<svg xmlns="http://www.w3.org/2000/svg" width="503.425" height="85.328" viewBox="0 0 503.425 85.328">
  <g id="F2E" transform="translate(-994.575 -621)">
    <g id="Group_562" data-name="Group 562" transform="translate(994.575 621.001)">
      <rect id="Rectangle_528" data-name="Rectangle 528" width="8.191" height="4.779" transform="translate(57.34 56.355)" fill="#e31010"/>
      <rect id="Rectangle_529" data-name="Rectangle 529" width="8.191" height="12.489" transform="translate(57.34 62.379)" fill="#e31010"/>
      <rect id="Rectangle_530" data-name="Rectangle 530" width="8.191" height="6.092" transform="translate(57.34 46.599)" fill="#e31010"/>
      <rect id="Rectangle_531" data-name="Rectangle 531" width="8.193" height="1.075" transform="translate(57.338 77.056)" fill="#e31010"/>
      <rect id="Rectangle_532" data-name="Rectangle 532" width="8.193" height="3.983" transform="translate(57.338 81.343)" fill="#e31010"/>
      <rect id="Rectangle_533" data-name="Rectangle 533" width="8.193" height="8.57" transform="translate(57.338 0.001)" fill="#e31010"/>
      <rect id="Rectangle_534" data-name="Rectangle 534" width="8.191" height="6.02" transform="translate(57.34 10.964)" fill="#e31010"/>
      <rect id="Rectangle_535" data-name="Rectangle 535" width="8.191" height="10.082" transform="translate(57.34 34.787)" fill="#e31010"/>
      <rect id="Rectangle_536" data-name="Rectangle 536" width="8.191" height="6.805" transform="translate(57.34 22.025)" fill="#e31010"/>
      <rect id="Rectangle_537" data-name="Rectangle 537" width="8.193" height="2.069" transform="translate(57.338 30.433)" fill="#e31010"/>
      <rect id="Rectangle_538" data-name="Rectangle 538" width="16.381" height="2.069" transform="translate(65.531 30.433)" fill="#e75cee"/>
      <rect id="Rectangle_539" data-name="Rectangle 539" width="16.383" height="6.092" transform="translate(65.529 46.599)" fill="#e75cee"/>
      <rect id="Rectangle_540" data-name="Rectangle 540" width="16.383" height="6.805" transform="translate(65.529 22.025)" fill="#e75cee"/>
      <rect id="Rectangle_541" data-name="Rectangle 541" width="16.381" height="8.57" transform="translate(65.531 0.001)" fill="#e75cee"/>
      <rect id="Rectangle_542" data-name="Rectangle 542" width="16.381" height="3.983" transform="translate(65.531 81.343)" fill="#e75cee"/>
      <rect id="Rectangle_543" data-name="Rectangle 543" width="16.383" height="10.082" transform="translate(65.529 34.787)" fill="#e75cee"/>
      <rect id="Rectangle_544" data-name="Rectangle 544" width="16.383" height="12.489" transform="translate(65.529 62.379)" fill="#e75cee"/>
      <rect id="Rectangle_545" data-name="Rectangle 545" width="16.383" height="4.779" transform="translate(65.529 56.355)" fill="#e75cee"/>
      <rect id="Rectangle_546" data-name="Rectangle 546" width="16.381" height="1.075" transform="translate(65.531 77.056)" fill="#e75cee"/>
      <rect id="Rectangle_547" data-name="Rectangle 547" width="16.383" height="6.02" transform="translate(65.529 10.964)" fill="#e75cee"/>
      <rect id="Rectangle_548" data-name="Rectangle 548" width="8.193" height="10.082" transform="translate(81.912 34.787)" fill="#fcfc53"/>
      <rect id="Rectangle_549" data-name="Rectangle 549" width="8.193" height="8.57" transform="translate(81.912 0.001)" fill="#fcfc53"/>
      <rect id="Rectangle_550" data-name="Rectangle 550" width="8.193" height="6.805" transform="translate(81.912 22.025)" fill="#fcfc53"/>
      <rect id="Rectangle_551" data-name="Rectangle 551" width="8.193" height="2.069" transform="translate(81.912 30.433)" fill="#fcfc53"/>
      <rect id="Rectangle_552" data-name="Rectangle 552" width="8.193" height="1.075" transform="translate(81.912 77.056)" fill="#fcfc53"/>
      <rect id="Rectangle_553" data-name="Rectangle 553" width="8.193" height="12.489" transform="translate(81.912 62.379)" fill="#fcfc53"/>
      <rect id="Rectangle_554" data-name="Rectangle 554" width="8.193" height="6.02" transform="translate(81.912 10.964)" fill="#fcfc53"/>
      <rect id="Rectangle_555" data-name="Rectangle 555" width="8.193" height="3.983" transform="translate(81.912 81.343)" fill="#fcfc53"/>
      <rect id="Rectangle_556" data-name="Rectangle 556" width="8.193" height="4.779" transform="translate(81.912 56.355)" fill="#fcfc53"/>
      <rect id="Rectangle_557" data-name="Rectangle 557" width="8.193" height="6.092" transform="translate(81.912 46.599)" fill="#fcfc53"/>
      <rect id="Rectangle_558" data-name="Rectangle 558" width="8.191" height="14.438" transform="translate(446.085 30.433)" fill="#195ff5"/>
      <rect id="Rectangle_559" data-name="Rectangle 559" width="8.191" height="6.805" transform="translate(446.085 22.023)" fill="#195ff5"/>
      <rect id="Rectangle_560" data-name="Rectangle 560" width="8.191" height="3.625" transform="translate(446.085 -0.001)" fill="#195ff5"/>
      <rect id="Rectangle_561" data-name="Rectangle 561" width="8.191" height="6.02" transform="translate(446.085 10.961)" fill="#195ff5"/>
      <rect id="Rectangle_562" data-name="Rectangle 562" width="8.191" height="3.395" transform="translate(446.085 5.176)" fill="#195ff5"/>
      <rect id="Rectangle_563" data-name="Rectangle 563" width="8.191" height="6.092" transform="translate(446.085 46.599)" fill="#195ff5"/>
      <rect id="Rectangle_564" data-name="Rectangle 564" width="8.191" height="9.33" transform="translate(446.085 62.379)" fill="#195ff5"/>
      <rect id="Rectangle_565" data-name="Rectangle 565" width="8.191" height="4.779" transform="translate(446.085 56.355)" fill="#195ff5"/>
      <rect id="Rectangle_566" data-name="Rectangle 566" width="8.191" height="3.983" transform="translate(446.085 81.343)" fill="#195ff5"/>
      <rect id="Rectangle_567" data-name="Rectangle 567" width="8.191" height="4.98" transform="translate(446.085 73.151)" fill="#195ff5"/>
      <rect id="Rectangle_568" data-name="Rectangle 568" width="16.383" height="4.98" transform="translate(429.702 73.151)" fill="#19f5ee"/>
      <rect id="Rectangle_569" data-name="Rectangle 569" width="16.383" height="6.02" transform="translate(429.702 10.961)" fill="#19f5ee"/>
      <rect id="Rectangle_570" data-name="Rectangle 570" width="16.383" height="3.625" transform="translate(429.702 -0.001)" fill="#19f5ee"/>
      <rect id="Rectangle_571" data-name="Rectangle 571" width="16.383" height="3.983" transform="translate(429.702 81.343)" fill="#19f5ee"/>
      <rect id="Rectangle_572" data-name="Rectangle 572" width="16.383" height="6.092" transform="translate(429.702 46.599)" fill="#19f5ee"/>
      <rect id="Rectangle_573" data-name="Rectangle 573" width="16.383" height="9.33" transform="translate(429.702 62.379)" fill="#19f5ee"/>
      <rect id="Rectangle_574" data-name="Rectangle 574" width="16.383" height="4.779" transform="translate(429.702 56.355)" fill="#19f5ee"/>
      <rect id="Rectangle_575" data-name="Rectangle 575" width="16.383" height="14.438" transform="translate(429.702 30.433)" fill="#19f5ee"/>
      <rect id="Rectangle_576" data-name="Rectangle 576" width="16.383" height="6.805" transform="translate(429.702 22.023)" fill="#19f5ee"/>
      <rect id="Rectangle_577" data-name="Rectangle 577" width="16.383" height="3.395" transform="translate(429.702 5.176)" fill="#19f5ee"/>
      <rect id="Rectangle_578" data-name="Rectangle 578" width="16.383" height="4.779" transform="translate(90.102 56.355)" fill="#fcfcfc"/>
      <rect id="Rectangle_579" data-name="Rectangle 579" width="16.381" height="8.57" transform="translate(90.104 0.001)" fill="#fcfcfc"/>
      <rect id="Rectangle_580" data-name="Rectangle 580" width="16.383" height="6.02" transform="translate(90.102 10.964)" fill="#fcfcfc"/>
      <rect id="Rectangle_581" data-name="Rectangle 581" width="16.383" height="12.489" transform="translate(90.102 62.379)" fill="#fcfcfc"/>
      <rect id="Rectangle_582" data-name="Rectangle 582" width="16.383" height="6.805" transform="translate(90.102 22.025)" fill="#fcfcfc"/>
      <rect id="Rectangle_583" data-name="Rectangle 583" width="16.381" height="2.069" transform="translate(90.104 30.433)" fill="#fcfcfc"/>
      <rect id="Rectangle_584" data-name="Rectangle 584" width="16.381" height="1.075" transform="translate(90.104 77.056)" fill="#fcfcfc"/>
      <rect id="Rectangle_585" data-name="Rectangle 585" width="16.381" height="3.983" transform="translate(90.104 81.343)" fill="#fcfcfc"/>
      <rect id="Rectangle_586" data-name="Rectangle 586" width="16.383" height="10.082" transform="translate(90.102 34.787)" fill="#fcfcfc"/>
      <rect id="Rectangle_587" data-name="Rectangle 587" width="16.383" height="6.092" transform="translate(90.102 46.599)" fill="#fcfcfc"/>
      <rect id="Rectangle_588" data-name="Rectangle 588" width="8.193" height="4.779" transform="translate(106.486 56.355)" fill="#fcfcfc"/>
      <rect id="Rectangle_589" data-name="Rectangle 589" width="8.193" height="12.489" transform="translate(106.486 62.379)" fill="#fcfcfc"/>
      <rect id="Rectangle_590" data-name="Rectangle 590" width="8.193" height="1.075" transform="translate(106.486 77.056)" fill="#fcfcfc"/>
      <rect id="Rectangle_591" data-name="Rectangle 591" width="8.193" height="8.57" transform="translate(106.486 0.001)" fill="#fcfcfc"/>
      <rect id="Rectangle_592" data-name="Rectangle 592" width="8.193" height="3.983" transform="translate(106.486 81.343)" fill="#fcfcfc"/>
      <rect id="Rectangle_593" data-name="Rectangle 593" width="8.193" height="6.092" transform="translate(106.486 46.599)" fill="#fcfcfc"/>
      <rect id="Rectangle_594" data-name="Rectangle 594" width="8.193" height="6.805" transform="translate(106.486 22.025)" fill="#fcfcfc"/>
      <rect id="Rectangle_595" data-name="Rectangle 595" width="8.193" height="2.069" transform="translate(106.486 30.433)" fill="#fcfcfc"/>
      <rect id="Rectangle_596" data-name="Rectangle 596" width="8.193" height="6.02" transform="translate(106.486 10.964)" fill="#fcfcfc"/>
      <rect id="Rectangle_597" data-name="Rectangle 597" width="8.193" height="10.082" transform="translate(106.486 34.787)" fill="#fcfcfc"/>
      <rect id="Rectangle_598" data-name="Rectangle 598" width="8.193" height="14.438" transform="translate(421.511 30.433)" fill="#fcfcfc"/>
      <rect id="Rectangle_599" data-name="Rectangle 599" width="8.193" height="4.779" transform="translate(421.511 56.355)" fill="#fcfcfc"/>
      <rect id="Rectangle_600" data-name="Rectangle 600" width="8.193" height="4.98" transform="translate(421.511 73.151)" fill="#fcfcfc"/>
      <rect id="Rectangle_601" data-name="Rectangle 601" width="8.193" height="6.805" transform="translate(421.511 22.023)" fill="#fcfcfc"/>
      <rect id="Rectangle_602" data-name="Rectangle 602" width="8.193" height="6.092" transform="translate(421.511 46.599)" fill="#fcfcfc"/>
      <rect id="Rectangle_603" data-name="Rectangle 603" width="8.193" height="6.02" transform="translate(421.511 10.961)" fill="#fcfcfc"/>
      <rect id="Rectangle_604" data-name="Rectangle 604" width="8.193" height="9.33" transform="translate(421.511 62.379)" fill="#fcfcfc"/>
      <rect id="Rectangle_605" data-name="Rectangle 605" width="8.193" height="3.395" transform="translate(421.509 5.176)" fill="#fcfcfc"/>
      <rect id="Rectangle_606" data-name="Rectangle 606" width="8.193" height="3.625" transform="translate(421.511 -0.001)" fill="#fcfcfc"/>
      <rect id="Rectangle_607" data-name="Rectangle 607" width="8.193" height="3.983" transform="translate(421.511 81.343)" fill="#fcfcfc"/>
      <rect id="Rectangle_608" data-name="Rectangle 608" width="16.383" height="6.805" transform="translate(405.128 22.023)" fill="#fcfcfc"/>
      <rect id="Rectangle_609" data-name="Rectangle 609" width="16.383" height="6.02" transform="translate(405.128 10.964)" fill="#fcfcfc"/>
      <rect id="Rectangle_610" data-name="Rectangle 610" width="16.381" height="3.983" transform="translate(405.128 81.343)" fill="#fcfcfc"/>
      <rect id="Rectangle_611" data-name="Rectangle 611" width="16.383" height="3.395" transform="translate(405.128 5.176)" fill="#fcfcfc"/>
      <rect id="Rectangle_612" data-name="Rectangle 612" width="16.383" height="14.438" transform="translate(405.128 30.433)" fill="#fcfcfc"/>
      <rect id="Rectangle_613" data-name="Rectangle 613" width="16.383" height="6.092" transform="translate(405.128 46.599)" fill="#fcfcfc"/>
      <rect id="Rectangle_614" data-name="Rectangle 614" width="16.383" height="4.779" transform="translate(405.128 56.355)" fill="#fcfcfc"/>
      <rect id="Rectangle_615" data-name="Rectangle 615" width="16.383" height="9.33" transform="translate(405.128 62.379)" fill="#fcfcfc"/>
      <rect id="Rectangle_616" data-name="Rectangle 616" width="16.381" height="3.625" transform="translate(405.128 -0.001)" fill="#fcfcfc"/>
      <rect id="Rectangle_617" data-name="Rectangle 617" width="16.383" height="4.98" transform="translate(405.128 73.151)" fill="#fcfcfc"/>
      <rect id="Rectangle_618" data-name="Rectangle 618" width="8.193" height="9.33" transform="translate(396.935 62.379)" fill="#fcfcfc"/>
      <rect id="Rectangle_619" data-name="Rectangle 619" width="8.193" height="4.779" transform="translate(396.937 56.355)" fill="#fcfcfc"/>
      <rect id="Rectangle_620" data-name="Rectangle 620" width="8.193" height="3.625" transform="translate(396.937 -0.001)" fill="#fcfcfc"/>
      <rect id="Rectangle_621" data-name="Rectangle 621" width="8.193" height="4.98" transform="translate(396.937 73.151)" fill="#fcfcfc"/>
      <rect id="Rectangle_622" data-name="Rectangle 622" width="8.193" height="6.02" transform="translate(396.935 10.964)" fill="#fcfcfc"/>
      <rect id="Rectangle_623" data-name="Rectangle 623" width="8.193" height="3.395" transform="translate(396.935 5.176)" fill="#fcfcfc"/>
      <rect id="Rectangle_624" data-name="Rectangle 624" width="8.193" height="14.438" transform="translate(396.937 30.433)" fill="#fcfcfc"/>
      <rect id="Rectangle_625" data-name="Rectangle 625" width="8.193" height="6.805" transform="translate(396.937 22.023)" fill="#fcfcfc"/>
      <rect id="Rectangle_626" data-name="Rectangle 626" width="8.193" height="3.983" transform="translate(396.937 81.343)" fill="#fcfcfc"/>
      <rect id="Rectangle_627" data-name="Rectangle 627" width="8.193" height="6.092" transform="translate(396.937 46.599)" fill="#fcfcfc"/>
      <rect id="Rectangle_628" data-name="Rectangle 628" width="282.259" height="6.02" transform="translate(114.678 10.964)" fill="#fcfcfc"/>
      <path id="Path_304" data-name="Path 304" d="M55.361,16.76H205.136v2.285H55.361V29.129H337.62V14.691H55.361Z" transform="translate(59.317 15.742)" fill="#fcfcfc"/>
      <path id="Path_305" data-name="Path 305" d="M100.951,40.884v-1.44H337.62v-9.33H55.36V42.6h31.72v2.187H55.36v1.075H337.62v-4.98Z" transform="translate(59.317 32.267)" fill="#fcfcfc"/>
      <rect id="Rectangle_629" data-name="Rectangle 629" width="282.259" height="4.779" transform="translate(114.678 56.355)" fill="#fcfcfc"/>
      <rect id="Rectangle_630" data-name="Rectangle 630" width="282.259" height="6.092" transform="translate(114.678 46.599)" fill="#fcfcfc"/>
      <rect id="Rectangle_631" data-name="Rectangle 631" width="282.259" height="6.805" transform="translate(114.678 22.025)" fill="#fcfcfc"/>
      <rect id="Rectangle_632" data-name="Rectangle 632" width="282.259" height="3.983" transform="translate(114.678 81.343)" fill="#fcfcfc"/>
      <path id="Path_306" data-name="Path 306" d="M55.361,0V8.57H337.62v-3.4H144.3V3.625H337.62V0Z" transform="translate(59.317 0.001)" fill="#fcfcfc"/>
      <rect id="Rectangle_633" data-name="Rectangle 633" width="8.191" height="5.044" transform="translate(65.531 16.981)" fill="#e31010"/>
      <rect id="Rectangle_634" data-name="Rectangle 634" width="16.383" height="5.044" transform="translate(73.721 16.981)" fill="#e75cee"/>
      <rect id="Rectangle_635" data-name="Rectangle 635" width="8.193" height="5.044" transform="translate(90.102 16.981)" fill="#fcfc53"/>
      <rect id="Rectangle_636" data-name="Rectangle 636" width="8.193" height="5.044" transform="translate(454.275 16.981)" fill="#195ff5"/>
      <rect id="Rectangle_637" data-name="Rectangle 637" width="16.383" height="5.044" transform="translate(437.894 16.981)" fill="#19f5ee"/>
      <rect id="Rectangle_638" data-name="Rectangle 638" width="16.383" height="5.044" transform="translate(98.295 16.981)" fill="#fcfcfc"/>
      <rect id="Rectangle_639" data-name="Rectangle 639" width="8.191" height="5.044" transform="translate(114.678 16.981)" fill="#fcfcfc"/>
      <rect id="Rectangle_640" data-name="Rectangle 640" width="8.191" height="5.044" transform="translate(429.702 16.981)" fill="#fcfcfc"/>
      <rect id="Rectangle_641" data-name="Rectangle 641" width="16.383" height="5.044" transform="translate(413.319 16.981)" fill="#fcfcfc"/>
      <rect id="Rectangle_642" data-name="Rectangle 642" width="8.191" height="5.044" transform="translate(405.128 16.981)" fill="#fcfcfc"/>
      <rect id="Rectangle_643" data-name="Rectangle 643" width="282.259" height="5.044" transform="translate(122.869 16.981)" fill="#fcfcfc"/>
      <rect id="Rectangle_644" data-name="Rectangle 644" width="8.193" height="1.603" transform="translate(106.486 28.828)" fill="#e31010"/>
      <rect id="Rectangle_645" data-name="Rectangle 645" width="16.383" height="1.603" transform="translate(114.678 28.828)" fill="#e75cee"/>
      <rect id="Rectangle_646" data-name="Rectangle 646" width="8.191" height="1.603" transform="translate(131.061 28.828)" fill="#fcfc53"/>
      <rect id="Rectangle_647" data-name="Rectangle 647" width="8.193" height="1.603" transform="translate(495.232 28.828)" fill="#195ff5"/>
      <rect id="Rectangle_648" data-name="Rectangle 648" width="16.383" height="1.603" transform="translate(478.849 28.828)" fill="#19f5ee"/>
      <rect id="Rectangle_649" data-name="Rectangle 649" width="16.383" height="1.603" transform="translate(139.252 28.828)" fill="#fcfcfc"/>
      <rect id="Rectangle_650" data-name="Rectangle 650" width="8.191" height="1.603" transform="translate(155.635 28.828)" fill="#fcfcfc"/>
      <rect id="Rectangle_651" data-name="Rectangle 651" width="8.193" height="1.603" transform="translate(470.657 28.828)" fill="#fcfcfc"/>
      <rect id="Rectangle_652" data-name="Rectangle 652" width="16.381" height="1.603" transform="translate(454.275 28.828)" fill="#fcfcfc"/>
      <rect id="Rectangle_653" data-name="Rectangle 653" width="8.191" height="1.603" transform="translate(446.085 28.828)" fill="#fcfcfc"/>
      <rect id="Rectangle_654" data-name="Rectangle 654" width="282.261" height="1.603" transform="translate(163.826 28.828)" fill="#fcfcfc"/>
      <rect id="Rectangle_655" data-name="Rectangle 655" width="8.191" height="2.39" transform="translate(16.383 8.571)" fill="#e31010"/>
      <rect id="Rectangle_656" data-name="Rectangle 656" width="16.383" height="2.39" transform="translate(24.574 8.571)" fill="#e75cee"/>
      <rect id="Rectangle_657" data-name="Rectangle 657" width="8.191" height="2.39" transform="translate(40.957 8.571)" fill="#fcfc53"/>
      <rect id="Rectangle_658" data-name="Rectangle 658" width="8.191" height="2.39" transform="translate(405.128 8.573)" fill="#195ff5"/>
      <rect id="Rectangle_659" data-name="Rectangle 659" width="16.383" height="2.39" transform="translate(388.747 8.573)" fill="#19f5ee"/>
      <rect id="Rectangle_660" data-name="Rectangle 660" width="16.383" height="2.39" transform="translate(49.147 8.571)" fill="#fcfcfc"/>
      <rect id="Rectangle_661" data-name="Rectangle 661" width="8.191" height="2.39" transform="translate(65.531 8.571)" fill="#fcfcfc"/>
      <rect id="Rectangle_662" data-name="Rectangle 662" width="8.193" height="2.39" transform="translate(380.554 8.573)" fill="#fcfcfc"/>
      <rect id="Rectangle_663" data-name="Rectangle 663" width="16.383" height="2.39" transform="translate(364.171 8.571)" fill="#fcfcfc"/>
      <rect id="Rectangle_664" data-name="Rectangle 664" width="8.191" height="2.39" transform="translate(355.98 8.571)" fill="#fcfcfc"/>
      <rect id="Rectangle_665" data-name="Rectangle 665" width="282.259" height="2.39" transform="translate(73.721 8.571)" fill="#fcfcfc"/>
      <rect id="Rectangle_666" data-name="Rectangle 666" width="8.191" height="3.662" transform="translate(0 52.693)" fill="#e31010"/>
      <rect id="Rectangle_667" data-name="Rectangle 667" width="16.383" height="3.662" transform="translate(8.191 52.691)" fill="#e75cee"/>
      <rect id="Rectangle_668" data-name="Rectangle 668" width="8.193" height="3.662" transform="translate(24.572 52.691)" fill="#fcfc53"/>
      <rect id="Rectangle_669" data-name="Rectangle 669" width="8.191" height="3.662" transform="translate(388.747 52.693)" fill="#195ff5"/>
      <rect id="Rectangle_670" data-name="Rectangle 670" width="16.383" height="3.662" transform="translate(372.364 52.693)" fill="#19f5ee"/>
      <rect id="Rectangle_671" data-name="Rectangle 671" width="16.383" height="3.662" transform="translate(32.764 52.691)" fill="#fcfcfc"/>
      <rect id="Rectangle_672" data-name="Rectangle 672" width="8.193" height="3.662" transform="translate(49.145 52.691)" fill="#fcfcfc"/>
      <rect id="Rectangle_673" data-name="Rectangle 673" width="8.193" height="3.662" transform="translate(364.171 52.693)" fill="#fcfcfc"/>
      <rect id="Rectangle_674" data-name="Rectangle 674" width="16.383" height="3.662" transform="translate(347.79 52.693)" fill="#fcfcfc"/>
      <rect id="Rectangle_675" data-name="Rectangle 675" width="8.193" height="3.662" transform="translate(339.597 52.693)" fill="#fcfcfc"/>
      <rect id="Rectangle_676" data-name="Rectangle 676" width="282.259" height="3.662" transform="translate(57.338 52.693)" fill="#fcfcfc"/>
      <rect id="Rectangle_677" data-name="Rectangle 677" width="8.193" height="1.247" transform="translate(90.104 61.134)" fill="#e31010"/>
      <rect id="Rectangle_678" data-name="Rectangle 678" width="16.381" height="1.247" transform="translate(98.295 61.134)" fill="#e75cee"/>
      <rect id="Rectangle_679" data-name="Rectangle 679" width="8.193" height="1.247" transform="translate(114.678 61.134)" fill="#fcfc53"/>
      <rect id="Rectangle_680" data-name="Rectangle 680" width="8.193" height="1.247" transform="translate(478.849 61.134)" fill="#195ff5"/>
      <rect id="Rectangle_681" data-name="Rectangle 681" width="16.381" height="1.247" transform="translate(462.468 61.134)" fill="#19f5ee"/>
      <rect id="Rectangle_682" data-name="Rectangle 682" width="16.381" height="1.247" transform="translate(122.869 61.134)" fill="#fcfcfc"/>
      <rect id="Rectangle_683" data-name="Rectangle 683" width="8.193" height="1.247" transform="translate(139.252 61.134)" fill="#fcfcfc"/>
      <rect id="Rectangle_684" data-name="Rectangle 684" width="8.193" height="1.247" transform="translate(454.275 61.134)" fill="#fcfcfc"/>
      <rect id="Rectangle_685" data-name="Rectangle 685" width="16.381" height="1.247" transform="translate(437.894 61.134)" fill="#fcfcfc"/>
      <rect id="Rectangle_686" data-name="Rectangle 686" width="8.193" height="1.247" transform="translate(429.702 61.134)" fill="#fcfcfc"/>
      <rect id="Rectangle_687" data-name="Rectangle 687" width="282.259" height="1.247" transform="translate(147.442 61.134)" fill="#fcfcfc"/>
      <rect id="Rectangle_688" data-name="Rectangle 688" width="8.193" height="1.728" transform="translate(73.721 44.871)" fill="#e31010"/>
      <rect id="Rectangle_689" data-name="Rectangle 689" width="16.383" height="1.728" transform="translate(81.912 44.871)" fill="#e75cee"/>
      <rect id="Rectangle_690" data-name="Rectangle 690" width="8.191" height="1.728" transform="translate(98.295 44.871)" fill="#fcfc53"/>
      <rect id="Rectangle_691" data-name="Rectangle 691" width="8.191" height="1.728" transform="translate(462.468 44.871)" fill="#195ff5"/>
      <rect id="Rectangle_692" data-name="Rectangle 692" width="16.381" height="1.728" transform="translate(446.085 44.871)" fill="#19f5ee"/>
      <rect id="Rectangle_693" data-name="Rectangle 693" width="16.383" height="1.728" transform="translate(106.486 44.871)" fill="#fcfcfc"/>
      <rect id="Rectangle_694" data-name="Rectangle 694" width="8.193" height="1.728" transform="translate(122.869 44.871)" fill="#fcfcfc"/>
      <rect id="Rectangle_695" data-name="Rectangle 695" width="8.193" height="1.728" transform="translate(437.894 44.871)" fill="#fcfcfc"/>
      <rect id="Rectangle_696" data-name="Rectangle 696" width="16.383" height="1.728" transform="translate(421.511 44.871)" fill="#fcfcfc"/>
      <rect id="Rectangle_697" data-name="Rectangle 697" width="8.193" height="1.728" transform="translate(413.319 44.871)" fill="#fcfcfc"/>
      <rect id="Rectangle_698" data-name="Rectangle 698" width="282.257" height="1.728" transform="translate(131.061 44.871)" fill="#fcfcfc"/>
      <rect id="Rectangle_699" data-name="Rectangle 699" width="8.191" height="3.211" transform="translate(65.531 78.131)" fill="#e31010"/>
      <rect id="Rectangle_700" data-name="Rectangle 700" width="16.383" height="3.211" transform="translate(73.721 78.131)" fill="#e75cee"/>
      <rect id="Rectangle_701" data-name="Rectangle 701" width="8.193" height="3.211" transform="translate(90.104 78.131)" fill="#fcfc53"/>
      <rect id="Rectangle_702" data-name="Rectangle 702" width="8.193" height="3.211" transform="translate(454.275 78.131)" fill="#195ff5"/>
      <rect id="Rectangle_703" data-name="Rectangle 703" width="16.383" height="3.211" transform="translate(437.894 78.131)" fill="#19f5ee"/>
      <rect id="Rectangle_704" data-name="Rectangle 704" width="16.383" height="3.211" transform="translate(98.295 78.131)" fill="#fcfcfc"/>
      <rect id="Rectangle_705" data-name="Rectangle 705" width="8.191" height="3.211" transform="translate(114.678 78.131)" fill="#fcfcfc"/>
      <rect id="Rectangle_706" data-name="Rectangle 706" width="8.191" height="3.211" transform="translate(429.702 78.131)" fill="#fcfcfc"/>
      <rect id="Rectangle_707" data-name="Rectangle 707" width="16.383" height="3.211" transform="translate(413.319 78.131)" fill="#fcfcfc"/>
      <rect id="Rectangle_708" data-name="Rectangle 708" width="8.191" height="3.211" transform="translate(405.128 78.131)" fill="#fcfcfc"/>
      <rect id="Rectangle_709" data-name="Rectangle 709" width="282.259" height="3.211" transform="translate(122.869 78.131)" fill="#fcfcfc"/>
      <rect id="Rectangle_710" data-name="Rectangle 710" width="8.191" height="1.442" transform="translate(462.468 71.709)" fill="#195ff5"/>
      <rect id="Rectangle_711" data-name="Rectangle 711" width="16.381" height="1.442" transform="translate(446.085 71.709)" fill="#19f5ee"/>
      <rect id="Rectangle_712" data-name="Rectangle 712" width="8.193" height="1.442" transform="translate(437.894 71.709)" fill="#fcfcfc"/>
      <rect id="Rectangle_713" data-name="Rectangle 713" width="16.383" height="1.442" transform="translate(421.511 71.709)" fill="#fcfcfc"/>
      <rect id="Rectangle_714" data-name="Rectangle 714" width="8.193" height="1.442" transform="translate(413.319 71.709)" fill="#fcfcfc"/>
      <rect id="Rectangle_715" data-name="Rectangle 715" width="236.669" height="1.442" transform="translate(160.267 71.709)" fill="#fcfcfc"/>
      <rect id="Rectangle_716" data-name="Rectangle 716" width="8.191" height="2.285" transform="translate(40.957 32.503)" fill="#e31010"/>
      <rect id="Rectangle_717" data-name="Rectangle 717" width="16.383" height="2.285" transform="translate(49.147 32.503)" fill="#e75cee"/>
      <rect id="Rectangle_718" data-name="Rectangle 718" width="8.191" height="2.285" transform="translate(65.531 32.503)" fill="#fcfc53"/>
      <rect id="Rectangle_719" data-name="Rectangle 719" width="16.383" height="2.285" transform="translate(73.721 32.503)" fill="#fcfcfc"/>
      <rect id="Rectangle_720" data-name="Rectangle 720" width="8.193" height="2.285" transform="translate(90.102 32.503)" fill="#fcfcfc"/>
      <rect id="Rectangle_721" data-name="Rectangle 721" width="149.775" height="2.285" transform="translate(114.678 32.503)" fill="#fcfcfc"/>
      <rect id="Rectangle_722" data-name="Rectangle 722" width="8.193" height="1.552" transform="translate(470.657 3.624)" fill="#195ff5"/>
      <rect id="Rectangle_723" data-name="Rectangle 723" width="16.381" height="1.552" transform="translate(454.275 3.624)" fill="#19f5ee"/>
      <rect id="Rectangle_724" data-name="Rectangle 724" width="8.191" height="1.552" transform="translate(446.085 3.624)" fill="#fcfcfc"/>
      <rect id="Rectangle_725" data-name="Rectangle 725" width="16.383" height="1.552" transform="translate(429.702 3.624)" fill="#fcfcfc"/>
      <rect id="Rectangle_726" data-name="Rectangle 726" width="8.193" height="1.552" transform="translate(421.511 3.624)" fill="#fcfcfc"/>
      <rect id="Rectangle_727" data-name="Rectangle 727" width="193.323" height="1.552" transform="translate(203.612 3.624)" fill="#fcfcfc"/>
      <rect id="Rectangle_728" data-name="Rectangle 728" width="8.193" height="2.187" transform="translate(24.572 74.868)" fill="#e31010"/>
      <rect id="Rectangle_729" data-name="Rectangle 729" width="16.383" height="2.187" transform="translate(32.764 74.868)" fill="#e75cee"/>
      <rect id="Rectangle_730" data-name="Rectangle 730" width="8.193" height="2.187" transform="translate(49.145 74.868)" fill="#fcfc53"/>
      <rect id="Rectangle_731" data-name="Rectangle 731" width="16.383" height="2.187" transform="translate(57.338 74.868)" fill="#fcfcfc"/>
      <rect id="Rectangle_732" data-name="Rectangle 732" width="8.191" height="2.187" transform="translate(73.721 74.868)" fill="#fcfcfc"/>
      <rect id="Rectangle_733" data-name="Rectangle 733" width="31.72" height="2.187" transform="translate(114.678 74.868)" fill="#fcfcfc"/>
    </g>
    <path id="Path_7252" data-name="Path 7252" d="M6.25,0V-31.25H25V-25H12.5v6.25H25v6.25H12.5V0ZM37.5,0V-31.25H56.25V-25H62.5v6.25H56.25v12.5H62.5V0H56.25V-6.25H50V-12.5H43.75V0Zm6.25-18.75H56V-25H43.75ZM81.25,0V-6.25H75V-25h6.25v-6.25h12.5V-25H100V-6.25H93.75V0Zm0-6.5h12.5V-24.75H81.25ZM112.5,0V-31.25h6.25V-25H125v6.25h6.25v6.25h6.25V-31.25h6.25V0H137.5V-6.25h-6.25V-12.5H125v-6.25h-6.25V0Zm50,0V-25h-6.25v-6.25H175V-25h-6.25V0Zm25,0V-31.25h18.75V-25h-12.5v6.25h12.5v6.25h-12.5v6.25h12.5V0Zm31.25,0V-31.25H225V-25h6.25v6.25h6.25v6.25h6.25V-31.25H250V0h-6.25V-6.25H237.5V-12.5h-6.25v-6.25H225V0ZM262.5,0V-31.25h18.75V-25h6.25V-6.25h-6.25V0Zm6.25-6.25H281V-25H268.75Z" transform="translate(1105.575 683)" fill="#232323"/>
  </g>
</svg>
