<svg xmlns="http://www.w3.org/2000/svg" width="875.069" height="192" viewBox="0 0 875.069 192">
  <g id="loding" transform="translate(-6476.578 2972)">
    <path id="Path_7245" data-name="Path 7245" d="M93.264-75.668H56.332V0H39.574V-75.668h-37V-92.426H93.264Zm29.2,21.012h58.846v-37.77h16.758V0H181.307V-37.77H122.461V0H105.7V-92.426h16.758ZM293.648-37.77H240.732V-54.656h52.916ZM301.189,0H240.732a26.875,26.875,0,0,1-7.605-1.225,22.367,22.367,0,0,1-7.638-4.028,22.592,22.592,0,0,1-5.865-7.283,23.412,23.412,0,0,1-2.353-10.989V-83.982a8.46,8.46,0,0,1,.645-3.287,8.571,8.571,0,0,1,1.772-2.707,7.949,7.949,0,0,1,2.675-1.8,8.627,8.627,0,0,1,3.352-.645h75.475v16.758h-67.16v52.143a6.807,6.807,0,0,0,1.74,5.027,6.9,6.9,0,0,0,5.092,1.74h60.328ZM436.734-37.77h-52.98V-54.656h52.98Zm7.477-37.9h-67.16V0H360.293V-83.982a8.46,8.46,0,0,1,.645-3.287,8.571,8.571,0,0,1,1.772-2.707,7.949,7.949,0,0,1,2.675-1.8,8.627,8.627,0,0,1,3.352-.645h75.475ZM539.73,0H454.846V-31a25.256,25.256,0,0,1,.548-5.06,26.377,26.377,0,0,1,1.708-5.317,24.1,24.1,0,0,1,3-5.027,20.331,20.331,0,0,1,4.447-4.222,22.147,22.147,0,0,1,6.026-2.933,25.281,25.281,0,0,1,7.734-1.1h37.77a6.731,6.731,0,0,0,5.06-1.708,6.931,6.931,0,0,0,1.644-5v-7.412a7.161,7.161,0,0,0-1.676-5.156,6.491,6.491,0,0,0-4.9-1.74H462.387V-92.426h53.818a25.049,25.049,0,0,1,7.67,1.1A22.147,22.147,0,0,1,529.9-88.4a21,21,0,0,1,4.479,4.222,24.78,24.78,0,0,1,3.062,5,24.556,24.556,0,0,1,1.74,5.285,24.976,24.976,0,0,1,.548,5v7.541a23.412,23.412,0,0,1-2.353,10.989,22.393,22.393,0,0,1-5.9,7.283,23.249,23.249,0,0,1-7.638,4.061,26.107,26.107,0,0,1-7.638,1.257h-37.9a7.771,7.771,0,0,0-3.287.58,4.727,4.727,0,0,0-1.9,1.547,6.8,6.8,0,0,0-1,2.191A24.847,24.847,0,0,0,471.6-31v14.244H539.73Zm93.328-37.77H580.143V-54.656h52.916ZM640.6,0H580.143a26.875,26.875,0,0,1-7.605-1.225A22.367,22.367,0,0,1,564.9-5.253a22.592,22.592,0,0,1-5.865-7.283,23.412,23.412,0,0,1-2.353-10.989V-83.982a8.46,8.46,0,0,1,.645-3.287,8.571,8.571,0,0,1,1.772-2.707,7.949,7.949,0,0,1,2.675-1.8,8.627,8.627,0,0,1,3.352-.645H640.6v16.758h-67.16v52.143a6.807,6.807,0,0,0,1.74,5.027,6.9,6.9,0,0,0,5.092,1.74H640.6Z" transform="translate(6475 -2781)" fill="none" stroke="#fff" stroke-width="2" stroke-dasharray="600 100"/>
    <path id="Path_7246" data-name="Path 7246" d="M55,10V0h5V10ZM5,10V0h5V10ZM55,0H50V-10h5V0ZM10,0V-10h5V0ZM50-10H45V-20h5v10ZM15-10V-20h5v10ZM55-35h5v5H5v-5H30V-45h5v10H55ZM70,10V0h5V10Zm45,0H105V5h10V-5H80V0H75V-25H70v-5h5v-5h5v-5h5v-5h30v5h-5v5h10V10Zm-5-20h5V-20H100v10h10ZM90-10h5V-20H80v10H90Zm20-15h5v-5H100v5h10ZM90-25h5v-5H80v5H90Zm10-10h5v-5H85v5h15Z" transform="translate(6475 -2926)" fill="none" stroke="#fff" stroke-width="2" stroke-dasharray="600 100"/>
    <path id="Path_7247" data-name="Path 7247" d="M91.846,0H74.959V-37.77H15.4a8.269,8.269,0,0,1-3.352-.677,8.632,8.632,0,0,1-2.675-1.8,8.193,8.193,0,0,1-1.772-2.675,8.46,8.46,0,0,1-.645-3.287V-92.426H23.719v37.77h51.24v-37.77H91.846Z" transform="translate(7165 -2785)" fill="none" stroke="#fff" stroke-width="2" stroke-dasharray="600 100"/>
    <path id="Path_7248" data-name="Path 7248" d="M35.071-26.057H20.662V0H12.314V-26.057H1.587v-8.252H12.314v-11.2h8.347v11.2H35.071ZM78.647,0H70.4V-22.756a3.372,3.372,0,0,0-.825-2.46,3.323,3.323,0,0,0-2.476-.841H52.209v-8.252H67.095a12.206,12.206,0,0,1,2.476.27,12.718,12.718,0,0,1,2.587.841,12.038,12.038,0,0,1,2.46,1.476,9.706,9.706,0,0,1,2.063,2.19,11.194,11.194,0,0,1,1.428,2.968,12.449,12.449,0,0,1,.54,3.809ZM48.877,0H40.625V-48.813h8.252Z" transform="translate(7272 -2833)" fill="none" stroke="#fff" stroke-width="2" stroke-dasharray="600 100"/>
  </g>
</svg>
