<svg xmlns="http://www.w3.org/2000/svg" width="169.34" height="45.167" viewBox="0 0 169.34 45.167">
  <g id="了解詳情" transform="translate(-1580.5 -42.917)">
    <g id="F2E" transform="translate(335.925 -573.244)">
      <g id="Group_562" data-name="Group 562" transform="translate(1244.575 616.16)">
        <rect id="Rectangle_528" data-name="Rectangle 528" width="2.755" height="2.53" transform="translate(19.288 29.832)" fill="#e31010"/>
        <rect id="Rectangle_529" data-name="Rectangle 529" width="2.755" height="6.611" transform="translate(19.288 33.02)" fill="#e31010"/>
        <rect id="Rectangle_530" data-name="Rectangle 530" width="2.755" height="3.225" transform="translate(19.288 24.667)" fill="#e31010"/>
        <rect id="Rectangle_531" data-name="Rectangle 531" width="2.756" height="0.569" transform="translate(19.287 40.789)" fill="#e31010"/>
        <rect id="Rectangle_532" data-name="Rectangle 532" width="2.756" height="2.109" transform="translate(19.287 43.059)" fill="#e31010"/>
        <rect id="Rectangle_533" data-name="Rectangle 533" width="2.756" height="4.536" transform="translate(19.287 0.001)" fill="#e31010"/>
        <rect id="Rectangle_534" data-name="Rectangle 534" width="2.755" height="3.186" transform="translate(19.288 5.804)" fill="#e31010"/>
        <rect id="Rectangle_535" data-name="Rectangle 535" width="2.755" height="5.337" transform="translate(19.288 18.415)" fill="#e31010"/>
        <rect id="Rectangle_536" data-name="Rectangle 536" width="2.755" height="3.602" transform="translate(19.288 11.659)" fill="#e31010"/>
        <rect id="Rectangle_537" data-name="Rectangle 537" width="2.756" height="1.095" transform="translate(19.287 16.11)" fill="#e31010"/>
        <rect id="Rectangle_538" data-name="Rectangle 538" width="5.51" height="1.095" transform="translate(22.043 16.11)" fill="#e75cee"/>
        <rect id="Rectangle_539" data-name="Rectangle 539" width="5.511" height="3.225" transform="translate(22.042 24.667)" fill="#e75cee"/>
        <rect id="Rectangle_540" data-name="Rectangle 540" width="5.511" height="3.602" transform="translate(22.042 11.659)" fill="#e75cee"/>
        <rect id="Rectangle_541" data-name="Rectangle 541" width="5.51" height="4.536" transform="translate(22.043 0.001)" fill="#e75cee"/>
        <rect id="Rectangle_542" data-name="Rectangle 542" width="5.51" height="2.109" transform="translate(22.043 43.059)" fill="#e75cee"/>
        <rect id="Rectangle_543" data-name="Rectangle 543" width="5.511" height="5.337" transform="translate(22.042 18.415)" fill="#e75cee"/>
        <rect id="Rectangle_544" data-name="Rectangle 544" width="5.511" height="6.611" transform="translate(22.042 33.02)" fill="#e75cee"/>
        <rect id="Rectangle_545" data-name="Rectangle 545" width="5.511" height="2.53" transform="translate(22.042 29.832)" fill="#e75cee"/>
        <rect id="Rectangle_546" data-name="Rectangle 546" width="5.51" height="0.569" transform="translate(22.043 40.789)" fill="#e75cee"/>
        <rect id="Rectangle_547" data-name="Rectangle 547" width="5.511" height="3.186" transform="translate(22.042 5.804)" fill="#e75cee"/>
        <rect id="Rectangle_548" data-name="Rectangle 548" width="2.756" height="5.337" transform="translate(27.553 18.415)" fill="#fcfc53"/>
        <rect id="Rectangle_549" data-name="Rectangle 549" width="2.756" height="4.536" transform="translate(27.553 0.001)" fill="#fcfc53"/>
        <rect id="Rectangle_550" data-name="Rectangle 550" width="2.756" height="3.602" transform="translate(27.553 11.659)" fill="#fcfc53"/>
        <rect id="Rectangle_551" data-name="Rectangle 551" width="2.756" height="1.095" transform="translate(27.553 16.11)" fill="#fcfc53"/>
        <rect id="Rectangle_552" data-name="Rectangle 552" width="2.756" height="0.569" transform="translate(27.553 40.789)" fill="#fcfc53"/>
        <rect id="Rectangle_553" data-name="Rectangle 553" width="2.756" height="6.611" transform="translate(27.553 33.02)" fill="#fcfc53"/>
        <rect id="Rectangle_554" data-name="Rectangle 554" width="2.756" height="3.186" transform="translate(27.553 5.804)" fill="#fcfc53"/>
        <rect id="Rectangle_555" data-name="Rectangle 555" width="2.756" height="2.109" transform="translate(27.553 43.059)" fill="#fcfc53"/>
        <rect id="Rectangle_556" data-name="Rectangle 556" width="2.756" height="2.53" transform="translate(27.553 29.832)" fill="#fcfc53"/>
        <rect id="Rectangle_557" data-name="Rectangle 557" width="2.756" height="3.225" transform="translate(27.553 24.667)" fill="#fcfc53"/>
        <rect id="Rectangle_558" data-name="Rectangle 558" width="2.755" height="7.643" transform="translate(150.052 16.11)" fill="#195ff5"/>
        <rect id="Rectangle_559" data-name="Rectangle 559" width="2.755" height="3.602" transform="translate(150.052 11.658)" fill="#195ff5"/>
        <rect id="Rectangle_560" data-name="Rectangle 560" width="2.755" height="1.919" transform="translate(150.052)" fill="#195ff5"/>
        <rect id="Rectangle_561" data-name="Rectangle 561" width="2.755" height="3.186" transform="translate(150.052 5.803)" fill="#195ff5"/>
        <rect id="Rectangle_562" data-name="Rectangle 562" width="2.755" height="1.797" transform="translate(150.052 2.74)" fill="#195ff5"/>
        <rect id="Rectangle_563" data-name="Rectangle 563" width="2.755" height="3.225" transform="translate(150.052 24.667)" fill="#195ff5"/>
        <rect id="Rectangle_564" data-name="Rectangle 564" width="2.755" height="4.939" transform="translate(150.052 33.02)" fill="#195ff5"/>
        <rect id="Rectangle_565" data-name="Rectangle 565" width="2.755" height="2.53" transform="translate(150.052 29.832)" fill="#195ff5"/>
        <rect id="Rectangle_566" data-name="Rectangle 566" width="2.755" height="2.109" transform="translate(150.052 43.059)" fill="#195ff5"/>
        <rect id="Rectangle_567" data-name="Rectangle 567" width="2.755" height="2.636" transform="translate(150.052 38.722)" fill="#195ff5"/>
        <rect id="Rectangle_568" data-name="Rectangle 568" width="5.511" height="2.636" transform="translate(144.541 38.722)" fill="#19f5ee"/>
        <rect id="Rectangle_569" data-name="Rectangle 569" width="5.511" height="3.186" transform="translate(144.541 5.803)" fill="#19f5ee"/>
        <rect id="Rectangle_570" data-name="Rectangle 570" width="5.511" height="1.919" transform="translate(144.541)" fill="#19f5ee"/>
        <rect id="Rectangle_571" data-name="Rectangle 571" width="5.511" height="2.109" transform="translate(144.541 43.059)" fill="#19f5ee"/>
        <rect id="Rectangle_572" data-name="Rectangle 572" width="5.511" height="3.225" transform="translate(144.541 24.667)" fill="#19f5ee"/>
        <rect id="Rectangle_573" data-name="Rectangle 573" width="5.511" height="4.939" transform="translate(144.541 33.02)" fill="#19f5ee"/>
        <rect id="Rectangle_574" data-name="Rectangle 574" width="5.511" height="2.53" transform="translate(144.541 29.832)" fill="#19f5ee"/>
        <rect id="Rectangle_575" data-name="Rectangle 575" width="5.511" height="7.643" transform="translate(144.541 16.11)" fill="#19f5ee"/>
        <rect id="Rectangle_576" data-name="Rectangle 576" width="5.511" height="3.602" transform="translate(144.541 11.658)" fill="#19f5ee"/>
        <rect id="Rectangle_577" data-name="Rectangle 577" width="5.511" height="1.797" transform="translate(144.541 2.74)" fill="#19f5ee"/>
        <rect id="Rectangle_578" data-name="Rectangle 578" width="5.511" height="2.53" transform="translate(30.308 29.832)" fill="#fcfcfc"/>
        <rect id="Rectangle_579" data-name="Rectangle 579" width="5.51" height="4.536" transform="translate(30.309 0.001)" fill="#fcfcfc"/>
        <rect id="Rectangle_580" data-name="Rectangle 580" width="5.511" height="3.186" transform="translate(30.308 5.804)" fill="#fcfcfc"/>
        <rect id="Rectangle_581" data-name="Rectangle 581" width="5.511" height="6.611" transform="translate(30.308 33.02)" fill="#fcfcfc"/>
        <rect id="Rectangle_582" data-name="Rectangle 582" width="5.511" height="3.602" transform="translate(30.308 11.659)" fill="#fcfcfc"/>
        <rect id="Rectangle_583" data-name="Rectangle 583" width="5.51" height="1.095" transform="translate(30.309 16.11)" fill="#fcfcfc"/>
        <rect id="Rectangle_584" data-name="Rectangle 584" width="5.51" height="0.569" transform="translate(30.309 40.789)" fill="#fcfcfc"/>
        <rect id="Rectangle_585" data-name="Rectangle 585" width="5.51" height="2.109" transform="translate(30.309 43.059)" fill="#fcfcfc"/>
        <rect id="Rectangle_586" data-name="Rectangle 586" width="5.511" height="5.337" transform="translate(30.308 18.415)" fill="#fcfcfc"/>
        <rect id="Rectangle_587" data-name="Rectangle 587" width="5.511" height="3.225" transform="translate(30.308 24.667)" fill="#fcfcfc"/>
        <rect id="Rectangle_588" data-name="Rectangle 588" width="2.756" height="2.53" transform="translate(35.819 29.832)" fill="#fcfcfc"/>
        <rect id="Rectangle_589" data-name="Rectangle 589" width="2.756" height="6.611" transform="translate(35.819 33.02)" fill="#fcfcfc"/>
        <rect id="Rectangle_590" data-name="Rectangle 590" width="2.756" height="0.569" transform="translate(35.819 40.789)" fill="#fcfcfc"/>
        <rect id="Rectangle_591" data-name="Rectangle 591" width="2.756" height="4.536" transform="translate(35.819 0.001)" fill="#fcfcfc"/>
        <rect id="Rectangle_592" data-name="Rectangle 592" width="2.756" height="2.109" transform="translate(35.819 43.059)" fill="#fcfcfc"/>
        <rect id="Rectangle_593" data-name="Rectangle 593" width="2.756" height="3.225" transform="translate(35.819 24.667)" fill="#fcfcfc"/>
        <rect id="Rectangle_594" data-name="Rectangle 594" width="2.756" height="3.602" transform="translate(35.819 11.659)" fill="#fcfcfc"/>
        <rect id="Rectangle_595" data-name="Rectangle 595" width="2.756" height="1.095" transform="translate(35.819 16.11)" fill="#fcfcfc"/>
        <rect id="Rectangle_596" data-name="Rectangle 596" width="2.756" height="3.186" transform="translate(35.819 5.804)" fill="#fcfcfc"/>
        <rect id="Rectangle_597" data-name="Rectangle 597" width="2.756" height="5.337" transform="translate(35.819 18.415)" fill="#fcfcfc"/>
        <rect id="Rectangle_598" data-name="Rectangle 598" width="2.756" height="7.643" transform="translate(141.786 16.11)" fill="#fcfcfc"/>
        <rect id="Rectangle_599" data-name="Rectangle 599" width="2.756" height="2.53" transform="translate(141.786 29.832)" fill="#fcfcfc"/>
        <rect id="Rectangle_600" data-name="Rectangle 600" width="2.756" height="2.636" transform="translate(141.786 38.722)" fill="#fcfcfc"/>
        <rect id="Rectangle_601" data-name="Rectangle 601" width="2.756" height="3.602" transform="translate(141.786 11.658)" fill="#fcfcfc"/>
        <rect id="Rectangle_602" data-name="Rectangle 602" width="2.756" height="3.225" transform="translate(141.786 24.667)" fill="#fcfcfc"/>
        <rect id="Rectangle_603" data-name="Rectangle 603" width="2.756" height="3.186" transform="translate(141.786 5.803)" fill="#fcfcfc"/>
        <rect id="Rectangle_604" data-name="Rectangle 604" width="2.756" height="4.939" transform="translate(141.786 33.02)" fill="#fcfcfc"/>
        <rect id="Rectangle_605" data-name="Rectangle 605" width="2.756" height="1.797" transform="translate(141.785 2.74)" fill="#fcfcfc"/>
        <rect id="Rectangle_606" data-name="Rectangle 606" width="2.756" height="1.919" transform="translate(141.786)" fill="#fcfcfc"/>
        <rect id="Rectangle_607" data-name="Rectangle 607" width="2.756" height="2.109" transform="translate(141.786 43.059)" fill="#fcfcfc"/>
        <rect id="Rectangle_608" data-name="Rectangle 608" width="5.511" height="3.602" transform="translate(136.275 11.658)" fill="#fcfcfc"/>
        <rect id="Rectangle_609" data-name="Rectangle 609" width="5.511" height="3.186" transform="translate(136.275 5.804)" fill="#fcfcfc"/>
        <rect id="Rectangle_610" data-name="Rectangle 610" width="5.51" height="2.109" transform="translate(136.275 43.059)" fill="#fcfcfc"/>
        <rect id="Rectangle_611" data-name="Rectangle 611" width="5.511" height="1.797" transform="translate(136.275 2.74)" fill="#fcfcfc"/>
        <rect id="Rectangle_612" data-name="Rectangle 612" width="5.511" height="7.643" transform="translate(136.275 16.11)" fill="#fcfcfc"/>
        <rect id="Rectangle_613" data-name="Rectangle 613" width="5.511" height="3.225" transform="translate(136.275 24.667)" fill="#fcfcfc"/>
        <rect id="Rectangle_614" data-name="Rectangle 614" width="5.511" height="2.53" transform="translate(136.275 29.832)" fill="#fcfcfc"/>
        <rect id="Rectangle_615" data-name="Rectangle 615" width="5.511" height="4.939" transform="translate(136.275 33.02)" fill="#fcfcfc"/>
        <rect id="Rectangle_616" data-name="Rectangle 616" width="5.51" height="1.919" transform="translate(136.275)" fill="#fcfcfc"/>
        <rect id="Rectangle_617" data-name="Rectangle 617" width="5.511" height="2.636" transform="translate(136.275 38.722)" fill="#fcfcfc"/>
        <rect id="Rectangle_618" data-name="Rectangle 618" width="2.756" height="4.939" transform="translate(133.519 33.02)" fill="#fcfcfc"/>
        <rect id="Rectangle_619" data-name="Rectangle 619" width="2.756" height="2.53" transform="translate(133.52 29.832)" fill="#fcfcfc"/>
        <rect id="Rectangle_620" data-name="Rectangle 620" width="2.756" height="1.919" transform="translate(133.52)" fill="#fcfcfc"/>
        <rect id="Rectangle_621" data-name="Rectangle 621" width="2.756" height="2.636" transform="translate(133.52 38.722)" fill="#fcfcfc"/>
        <rect id="Rectangle_622" data-name="Rectangle 622" width="2.756" height="3.186" transform="translate(133.519 5.804)" fill="#fcfcfc"/>
        <rect id="Rectangle_623" data-name="Rectangle 623" width="2.756" height="1.797" transform="translate(133.519 2.74)" fill="#fcfcfc"/>
        <rect id="Rectangle_624" data-name="Rectangle 624" width="2.756" height="7.643" transform="translate(133.52 16.11)" fill="#fcfcfc"/>
        <rect id="Rectangle_625" data-name="Rectangle 625" width="2.756" height="3.602" transform="translate(133.52 11.658)" fill="#fcfcfc"/>
        <rect id="Rectangle_626" data-name="Rectangle 626" width="2.756" height="2.109" transform="translate(133.52 43.059)" fill="#fcfcfc"/>
        <rect id="Rectangle_627" data-name="Rectangle 627" width="2.756" height="3.225" transform="translate(133.52 24.667)" fill="#fcfcfc"/>
        <rect id="Rectangle_628" data-name="Rectangle 628" width="94.945" height="3.186" transform="translate(38.575 5.804)" fill="#fcfcfc"/>
        <path id="Path_304" data-name="Path 304" d="M55.361,15.787h50.381V17H55.361v5.338h94.945V14.691H55.361Z" transform="translate(-16.786 1.419)" fill="#fcfcfc"/>
        <path id="Path_305" data-name="Path 305" d="M70.7,35.815v-.762h79.61V30.114H55.36v6.61H66.03v1.158H55.36v.569h94.945V35.815Z" transform="translate(-16.786 2.907)" fill="#fcfcfc"/>
        <rect id="Rectangle_629" data-name="Rectangle 629" width="94.945" height="2.53" transform="translate(38.575 29.832)" fill="#fcfcfc"/>
        <rect id="Rectangle_630" data-name="Rectangle 630" width="94.945" height="3.225" transform="translate(38.575 24.667)" fill="#fcfcfc"/>
        <rect id="Rectangle_631" data-name="Rectangle 631" width="94.945" height="3.602" transform="translate(38.575 11.659)" fill="#fcfcfc"/>
        <rect id="Rectangle_632" data-name="Rectangle 632" width="94.945" height="2.109" transform="translate(38.575 43.059)" fill="#fcfcfc"/>
        <path id="Path_306" data-name="Path 306" d="M55.361,0V4.536h94.945v-1.8H85.277v-.82h65.029V0Z" transform="translate(-16.786 0.001)" fill="#fcfcfc"/>
        <rect id="Rectangle_633" data-name="Rectangle 633" width="2.755" height="2.67" transform="translate(22.043 8.989)" fill="#e31010"/>
        <rect id="Rectangle_634" data-name="Rectangle 634" width="5.511" height="2.67" transform="translate(24.798 8.989)" fill="#e75cee"/>
        <rect id="Rectangle_635" data-name="Rectangle 635" width="2.756" height="2.67" transform="translate(30.308 8.989)" fill="#fcfc53"/>
        <rect id="Rectangle_636" data-name="Rectangle 636" width="2.756" height="2.67" transform="translate(152.807 8.989)" fill="#195ff5"/>
        <rect id="Rectangle_637" data-name="Rectangle 637" width="5.511" height="2.67" transform="translate(147.297 8.989)" fill="#19f5ee"/>
        <rect id="Rectangle_638" data-name="Rectangle 638" width="5.511" height="2.67" transform="translate(33.064 8.989)" fill="#fcfcfc"/>
        <rect id="Rectangle_639" data-name="Rectangle 639" width="2.755" height="2.67" transform="translate(38.575 8.989)" fill="#fcfcfc"/>
        <rect id="Rectangle_640" data-name="Rectangle 640" width="2.755" height="2.67" transform="translate(144.541 8.989)" fill="#fcfcfc"/>
        <rect id="Rectangle_641" data-name="Rectangle 641" width="5.511" height="2.67" transform="translate(139.03 8.989)" fill="#fcfcfc"/>
        <rect id="Rectangle_642" data-name="Rectangle 642" width="2.755" height="2.67" transform="translate(136.275 8.989)" fill="#fcfcfc"/>
        <rect id="Rectangle_643" data-name="Rectangle 643" width="94.945" height="2.67" transform="translate(41.33 8.989)" fill="#fcfcfc"/>
        <rect id="Rectangle_644" data-name="Rectangle 644" width="2.756" height="0.849" transform="translate(35.819 15.26)" fill="#e31010"/>
        <rect id="Rectangle_645" data-name="Rectangle 645" width="5.511" height="0.849" transform="translate(38.575 15.26)" fill="#e75cee"/>
        <rect id="Rectangle_646" data-name="Rectangle 646" width="2.755" height="0.849" transform="translate(44.086 15.26)" fill="#fcfc53"/>
        <rect id="Rectangle_647" data-name="Rectangle 647" width="2.756" height="0.849" transform="translate(166.584 15.26)" fill="#195ff5"/>
        <rect id="Rectangle_648" data-name="Rectangle 648" width="5.511" height="0.849" transform="translate(161.073 15.26)" fill="#19f5ee"/>
        <rect id="Rectangle_649" data-name="Rectangle 649" width="5.511" height="0.849" transform="translate(46.841 15.26)" fill="#fcfcfc"/>
        <rect id="Rectangle_650" data-name="Rectangle 650" width="2.755" height="0.849" transform="translate(52.352 15.26)" fill="#fcfcfc"/>
        <rect id="Rectangle_651" data-name="Rectangle 651" width="2.756" height="0.849" transform="translate(158.317 15.26)" fill="#fcfcfc"/>
        <rect id="Rectangle_652" data-name="Rectangle 652" width="5.51" height="0.849" transform="translate(152.807 15.26)" fill="#fcfcfc"/>
        <rect id="Rectangle_653" data-name="Rectangle 653" width="2.755" height="0.849" transform="translate(150.052 15.26)" fill="#fcfcfc"/>
        <rect id="Rectangle_654" data-name="Rectangle 654" width="94.946" height="0.849" transform="translate(55.107 15.26)" fill="#fcfcfc"/>
        <rect id="Rectangle_655" data-name="Rectangle 655" width="2.755" height="1.265" transform="translate(5.511 4.537)" fill="#e31010"/>
        <rect id="Rectangle_656" data-name="Rectangle 656" width="5.511" height="1.265" transform="translate(8.266 4.537)" fill="#e75cee"/>
        <rect id="Rectangle_657" data-name="Rectangle 657" width="2.755" height="1.265" transform="translate(13.777 4.537)" fill="#fcfc53"/>
        <rect id="Rectangle_658" data-name="Rectangle 658" width="2.755" height="1.265" transform="translate(136.275 4.538)" fill="#195ff5"/>
        <rect id="Rectangle_659" data-name="Rectangle 659" width="5.511" height="1.265" transform="translate(130.765 4.538)" fill="#19f5ee"/>
        <rect id="Rectangle_660" data-name="Rectangle 660" width="5.511" height="1.265" transform="translate(16.532 4.537)" fill="#fcfcfc"/>
        <rect id="Rectangle_661" data-name="Rectangle 661" width="2.755" height="1.265" transform="translate(22.043 4.537)" fill="#fcfcfc"/>
        <rect id="Rectangle_662" data-name="Rectangle 662" width="2.756" height="1.265" transform="translate(128.009 4.538)" fill="#fcfcfc"/>
        <rect id="Rectangle_663" data-name="Rectangle 663" width="5.511" height="1.265" transform="translate(122.498 4.537)" fill="#fcfcfc"/>
        <rect id="Rectangle_664" data-name="Rectangle 664" width="2.755" height="1.265" transform="translate(119.743 4.537)" fill="#fcfcfc"/>
        <rect id="Rectangle_665" data-name="Rectangle 665" width="94.945" height="1.265" transform="translate(24.798 4.537)" fill="#fcfcfc"/>
        <rect id="Rectangle_666" data-name="Rectangle 666" width="2.755" height="1.939" transform="translate(0 27.893)" fill="#e31010"/>
        <rect id="Rectangle_667" data-name="Rectangle 667" width="5.511" height="1.939" transform="translate(2.755 27.892)" fill="#e75cee"/>
        <rect id="Rectangle_668" data-name="Rectangle 668" width="2.756" height="1.939" transform="translate(8.265 27.892)" fill="#fcfc53"/>
        <rect id="Rectangle_669" data-name="Rectangle 669" width="2.755" height="1.939" transform="translate(130.765 27.893)" fill="#195ff5"/>
        <rect id="Rectangle_670" data-name="Rectangle 670" width="5.511" height="1.939" transform="translate(125.254 27.893)" fill="#19f5ee"/>
        <rect id="Rectangle_671" data-name="Rectangle 671" width="5.511" height="1.939" transform="translate(11.021 27.892)" fill="#fcfcfc"/>
        <rect id="Rectangle_672" data-name="Rectangle 672" width="2.756" height="1.939" transform="translate(16.531 27.892)" fill="#fcfcfc"/>
        <rect id="Rectangle_673" data-name="Rectangle 673" width="2.756" height="1.939" transform="translate(122.498 27.893)" fill="#fcfcfc"/>
        <rect id="Rectangle_674" data-name="Rectangle 674" width="5.511" height="1.939" transform="translate(116.988 27.893)" fill="#fcfcfc"/>
        <rect id="Rectangle_675" data-name="Rectangle 675" width="2.756" height="1.939" transform="translate(114.232 27.893)" fill="#fcfcfc"/>
        <rect id="Rectangle_676" data-name="Rectangle 676" width="94.945" height="1.939" transform="translate(19.287 27.893)" fill="#fcfcfc"/>
        <rect id="Rectangle_677" data-name="Rectangle 677" width="2.756" height="0.66" transform="translate(30.309 32.361)" fill="#e31010"/>
        <rect id="Rectangle_678" data-name="Rectangle 678" width="5.51" height="0.66" transform="translate(33.064 32.361)" fill="#e75cee"/>
        <rect id="Rectangle_679" data-name="Rectangle 679" width="2.756" height="0.66" transform="translate(38.575 32.361)" fill="#fcfc53"/>
        <rect id="Rectangle_680" data-name="Rectangle 680" width="2.756" height="0.66" transform="translate(161.073 32.361)" fill="#195ff5"/>
        <rect id="Rectangle_681" data-name="Rectangle 681" width="5.51" height="0.66" transform="translate(155.563 32.361)" fill="#19f5ee"/>
        <rect id="Rectangle_682" data-name="Rectangle 682" width="5.51" height="0.66" transform="translate(41.33 32.361)" fill="#fcfcfc"/>
        <rect id="Rectangle_683" data-name="Rectangle 683" width="2.756" height="0.66" transform="translate(46.841 32.361)" fill="#fcfcfc"/>
        <rect id="Rectangle_684" data-name="Rectangle 684" width="2.756" height="0.66" transform="translate(152.807 32.361)" fill="#fcfcfc"/>
        <rect id="Rectangle_685" data-name="Rectangle 685" width="5.51" height="0.66" transform="translate(147.297 32.361)" fill="#fcfcfc"/>
        <rect id="Rectangle_686" data-name="Rectangle 686" width="2.756" height="0.66" transform="translate(144.541 32.361)" fill="#fcfcfc"/>
        <rect id="Rectangle_687" data-name="Rectangle 687" width="94.945" height="0.66" transform="translate(49.596 32.361)" fill="#fcfcfc"/>
        <rect id="Rectangle_688" data-name="Rectangle 688" width="2.756" height="0.914" transform="translate(24.798 23.753)" fill="#e31010"/>
        <rect id="Rectangle_689" data-name="Rectangle 689" width="5.511" height="0.914" transform="translate(27.553 23.753)" fill="#e75cee"/>
        <rect id="Rectangle_690" data-name="Rectangle 690" width="2.755" height="0.914" transform="translate(33.064 23.753)" fill="#fcfc53"/>
        <rect id="Rectangle_691" data-name="Rectangle 691" width="2.755" height="0.914" transform="translate(155.563 23.753)" fill="#195ff5"/>
        <rect id="Rectangle_692" data-name="Rectangle 692" width="5.51" height="0.914" transform="translate(150.052 23.753)" fill="#19f5ee"/>
        <rect id="Rectangle_693" data-name="Rectangle 693" width="5.511" height="0.914" transform="translate(35.819 23.753)" fill="#fcfcfc"/>
        <rect id="Rectangle_694" data-name="Rectangle 694" width="2.756" height="0.914" transform="translate(41.33 23.753)" fill="#fcfcfc"/>
        <rect id="Rectangle_695" data-name="Rectangle 695" width="2.756" height="0.914" transform="translate(147.297 23.753)" fill="#fcfcfc"/>
        <rect id="Rectangle_696" data-name="Rectangle 696" width="5.511" height="0.914" transform="translate(141.786 23.753)" fill="#fcfcfc"/>
        <rect id="Rectangle_697" data-name="Rectangle 697" width="2.756" height="0.914" transform="translate(139.03 23.753)" fill="#fcfcfc"/>
        <rect id="Rectangle_698" data-name="Rectangle 698" width="94.944" height="0.914" transform="translate(44.086 23.753)" fill="#fcfcfc"/>
        <rect id="Rectangle_699" data-name="Rectangle 699" width="2.755" height="1.7" transform="translate(22.043 41.358)" fill="#e31010"/>
        <rect id="Rectangle_700" data-name="Rectangle 700" width="5.511" height="1.7" transform="translate(24.798 41.358)" fill="#e75cee"/>
        <rect id="Rectangle_701" data-name="Rectangle 701" width="2.756" height="1.7" transform="translate(30.309 41.358)" fill="#fcfc53"/>
        <rect id="Rectangle_702" data-name="Rectangle 702" width="2.756" height="1.7" transform="translate(152.807 41.358)" fill="#195ff5"/>
        <rect id="Rectangle_703" data-name="Rectangle 703" width="5.511" height="1.7" transform="translate(147.297 41.358)" fill="#19f5ee"/>
        <rect id="Rectangle_704" data-name="Rectangle 704" width="5.511" height="1.7" transform="translate(33.064 41.358)" fill="#fcfcfc"/>
        <rect id="Rectangle_705" data-name="Rectangle 705" width="2.755" height="1.7" transform="translate(38.575 41.358)" fill="#fcfcfc"/>
        <rect id="Rectangle_706" data-name="Rectangle 706" width="2.755" height="1.7" transform="translate(144.541 41.358)" fill="#fcfcfc"/>
        <rect id="Rectangle_707" data-name="Rectangle 707" width="5.511" height="1.7" transform="translate(139.03 41.358)" fill="#fcfcfc"/>
        <rect id="Rectangle_708" data-name="Rectangle 708" width="2.755" height="1.7" transform="translate(136.275 41.358)" fill="#fcfcfc"/>
        <rect id="Rectangle_709" data-name="Rectangle 709" width="94.945" height="1.7" transform="translate(41.33 41.358)" fill="#fcfcfc"/>
        <rect id="Rectangle_710" data-name="Rectangle 710" width="2.755" height="0.763" transform="translate(155.563 37.959)" fill="#195ff5"/>
        <rect id="Rectangle_711" data-name="Rectangle 711" width="5.51" height="0.763" transform="translate(150.052 37.959)" fill="#19f5ee"/>
        <rect id="Rectangle_712" data-name="Rectangle 712" width="2.756" height="0.763" transform="translate(147.297 37.959)" fill="#fcfcfc"/>
        <rect id="Rectangle_713" data-name="Rectangle 713" width="5.511" height="0.763" transform="translate(141.786 37.959)" fill="#fcfcfc"/>
        <rect id="Rectangle_714" data-name="Rectangle 714" width="2.756" height="0.763" transform="translate(139.03 37.959)" fill="#fcfcfc"/>
        <rect id="Rectangle_715" data-name="Rectangle 715" width="79.609" height="0.763" transform="translate(53.91 37.959)" fill="#fcfcfc"/>
        <rect id="Rectangle_716" data-name="Rectangle 716" width="2.755" height="1.209" transform="translate(13.777 17.205)" fill="#e31010"/>
        <rect id="Rectangle_717" data-name="Rectangle 717" width="5.511" height="1.209" transform="translate(16.532 17.205)" fill="#e75cee"/>
        <rect id="Rectangle_718" data-name="Rectangle 718" width="2.755" height="1.209" transform="translate(22.043 17.205)" fill="#fcfc53"/>
        <rect id="Rectangle_719" data-name="Rectangle 719" width="5.511" height="1.209" transform="translate(24.798 17.205)" fill="#fcfcfc"/>
        <rect id="Rectangle_720" data-name="Rectangle 720" width="2.756" height="1.209" transform="translate(30.308 17.205)" fill="#fcfcfc"/>
        <rect id="Rectangle_721" data-name="Rectangle 721" width="50.381" height="1.209" transform="translate(38.575 17.205)" fill="#fcfcfc"/>
        <rect id="Rectangle_722" data-name="Rectangle 722" width="2.756" height="0.821" transform="translate(158.317 1.919)" fill="#195ff5"/>
        <rect id="Rectangle_723" data-name="Rectangle 723" width="5.51" height="0.821" transform="translate(152.807 1.919)" fill="#19f5ee"/>
        <rect id="Rectangle_724" data-name="Rectangle 724" width="2.755" height="0.821" transform="translate(150.052 1.919)" fill="#fcfcfc"/>
        <rect id="Rectangle_725" data-name="Rectangle 725" width="5.511" height="0.821" transform="translate(144.541 1.919)" fill="#fcfcfc"/>
        <rect id="Rectangle_726" data-name="Rectangle 726" width="2.756" height="0.821" transform="translate(141.786 1.919)" fill="#fcfcfc"/>
        <rect id="Rectangle_727" data-name="Rectangle 727" width="65.029" height="0.821" transform="translate(68.49 1.919)" fill="#fcfcfc"/>
        <rect id="Rectangle_728" data-name="Rectangle 728" width="2.756" height="1.158" transform="translate(8.265 39.631)" fill="#e31010"/>
        <rect id="Rectangle_729" data-name="Rectangle 729" width="5.511" height="1.158" transform="translate(11.021 39.631)" fill="#e75cee"/>
        <rect id="Rectangle_730" data-name="Rectangle 730" width="2.756" height="1.158" transform="translate(16.531 39.631)" fill="#fcfc53"/>
        <rect id="Rectangle_731" data-name="Rectangle 731" width="5.511" height="1.158" transform="translate(19.287 39.631)" fill="#fcfcfc"/>
        <rect id="Rectangle_732" data-name="Rectangle 732" width="2.755" height="1.158" transform="translate(24.798 39.631)" fill="#fcfcfc"/>
        <rect id="Rectangle_733" data-name="Rectangle 733" width="10.67" height="1.158" transform="translate(38.575 39.631)" fill="#fcfcfc"/>
      </g>
    </g>
    <path id="Path_7250" data-name="Path 7250" d="M18.106-16.94l-.462.11H2.2v2.024H15.642a26.7,26.7,0,0,1-5.61,3.982V-.792c0,.4-.176.506-.638.528-.506.022-2.222.022-3.938-.044A6.867,6.867,0,0,1,6.27,1.76a15.577,15.577,0,0,0,4.62-.352c.946-.286,1.276-.9,1.276-2.156V-9.79a32.972,32.972,0,0,0,7.568-5.962ZM29.15-5.544V-7.766H30.8v2.222Zm-3.1-2.222H27.72v2.222H26.026c.022-.55.022-1.078.022-1.584Zm2.882-7.128a18.512,18.512,0,0,1-.814,1.98H25.872c.33-.616.638-1.3.924-1.98Zm.22,3.52H30.8v2.09H29.15Zm-3.1,0H27.72v2.09H26.048Zm14.63-4.29c-.11,2.244-.264,3.146-.506,3.41a.592.592,0,0,1-.594.2,15.686,15.686,0,0,1-1.782-.088,4.971,4.971,0,0,1,.462,1.694,14.158,14.158,0,0,0,2.222-.022,1.651,1.651,0,0,0,1.254-.616c.462-.528.66-2,.814-5.566.022-.22.022-.7.022-.7H33v1.694h2.728a5.337,5.337,0,0,1-3.234,4.334v-1.584H29.876a28.243,28.243,0,0,0,1.32-2.9l-1.188-.748-.286.088h-2.31c.176-.528.33-1.056.484-1.584l-1.87-.418A15.911,15.911,0,0,1,22.7-11.616a13.794,13.794,0,0,1,1.5,1.21l.2-.242v3.5c0,2.464-.154,5.7-1.628,8.008a8.058,8.058,0,0,1,1.452.9,12.977,12.977,0,0,0,1.694-5.742H30.8V-.4c0,.286-.11.374-.4.4-.264,0-1.188,0-2.244-.022A6.5,6.5,0,0,1,28.8,1.694a7.573,7.573,0,0,0,2.926-.308c.594-.308.77-.88.77-1.76V-11.132a5.589,5.589,0,0,1,.968,1.276c2.706-1.21,3.718-3.234,4.158-5.808ZM43.164-4.026h-4V-6.4h3.586v-1.76H39.16v-2.112H37.224v2.112h-1.54q.231-.792.4-1.584L34.386-10.1a12.462,12.462,0,0,1-1.892,4.84,9.329,9.329,0,0,1,1.54.814A10.839,10.839,0,0,0,35.068-6.4h2.156v2.376H32.868v1.782h4.356V1.628H39.16V-2.244h4Zm7.48-.308v3.146H47.52V-4.334Zm1.738-1.65H45.8V1.452H47.52V.462h4.862ZM45.848-7.37h6.4V-8.954h-6.4Zm6.4-4.488h-6.4v1.606h6.4Zm-1.716-3.828a22.442,22.442,0,0,0-1.65-2.882l-1.54.814a21.4,21.4,0,0,1,1.54,2.97H44.946v1.628h8.03v-1.628H48.928ZM65.01-4.752H60.1V-7.7h3.938V-9.592H60.1V-12.32h4.62v-1.87H62.062c.66-.924,1.474-2.288,2.178-3.542l-2.134-.748A20.561,20.561,0,0,1,60.3-14.7l1.276.506H56.8l1.1-.55a17.094,17.094,0,0,0-1.98-3.63l-1.65.77a21,21,0,0,1,1.76,3.41H53.592v1.87H58.1v2.728H54.208V-7.7H58.1v2.948H53.284V-2.86H58.1V1.76h2V-2.86H65.01Zm3.322-3.256a30.915,30.915,0,0,0,1.034-5.984l-1.584-.22A26.036,26.036,0,0,1,66.7-8.558Zm6.2-4.114a23.1,23.1,0,0,0-1.408-3.3l-1.21.528V-18.48H70.026V1.672h1.892V-14.5a26.952,26.952,0,0,1,1.21,3.124ZM76.8-3.08c.044-.462.066-.946.088-1.364H83.8V-3.08Zm7-4.312v1.43H76.89v-1.43Zm1.914-1.474H74.954v3.982c0,1.694-.11,3.872-1.342,5.434a6.9,6.9,0,0,1,1.474,1.408A8.062,8.062,0,0,0,76.6-1.606H83.8V-.374c0,.264-.11.352-.418.374-.264,0-1.342.022-2.354-.022a6.254,6.254,0,0,1,.594,1.738,8.709,8.709,0,0,0,3.234-.33c.682-.242.858-.77.858-1.738Zm-4.466-2.6v-1.276H85.69v-1.43H81.246v-1.144h5.06V-16.83h-5.06v-1.628H79.222v1.628H74.184v1.518h5.038v1.144H74.844v1.43h4.378v1.276H73.656v1.518H87.01v-1.518Z" transform="translate(1624.17 75)" fill="#232323"/>
  </g>
</svg>
