<svg xmlns="http://www.w3.org/2000/svg" xmlns:xlink="http://www.w3.org/1999/xlink" width="994.507" height="276.053" viewBox="0 0 994.507 276.053">
  <defs>
    <clipPath id="clip-path">
      <rect id="Rectangle_739" data-name="Rectangle 739" width="994.507" height="276.053" fill="none"/>
    </clipPath>
    <clipPath id="clip-path-3">
      <rect id="Rectangle_737" data-name="Rectangle 737" width="948.828" height="239.096" fill="none"/>
    </clipPath>
  </defs>
  <g id="數字區" transform="translate(-459 -725.545)">
    <g id="Group_569" data-name="Group 569" transform="translate(459 725.545)">
      <g id="Group_568" data-name="Group 568" clip-path="url(#clip-path)">
        <path id="Path_307" data-name="Path 307" d="M970.268,257.8H7.111V7.111H970.268ZM9.315,256.017H968.064V8.895H9.315Z" transform="translate(8.564 5.572)" fill="#4dffff"/>
        <g id="Group_567" data-name="Group 567">
          <g id="Group_566" data-name="Group 566" clip-path="url(#clip-path)">
            <g id="Group_565" data-name="Group 565" transform="translate(22.84 18.479)" opacity="0.54" style="mix-blend-mode: screen;isolation: isolate">
              <g id="Group_564" data-name="Group 564">
                <g id="Group_563" data-name="Group 563" clip-path="url(#clip-path-3)">
                  <rect id="Rectangle_736" data-name="Rectangle 736" width="947.727" height="238.204" transform="translate(0.55 0.446)"/>
                  <path id="Path_308" data-name="Path 308" d="M959.19,249.457H10.361V10.361H959.19Zm-947.727-.892H958.088V11.253H11.463Z" transform="translate(-10.362 -10.361)" fill="#4dffff"/>
                </g>
              </g>
            </g>
          </g>
        </g>
        <path id="Path_309" data-name="Path 309" d="M0,148.944v10.405H12.86v-1.784H2.2v-8.622Z" transform="translate(0 116.704)" fill="#4dffff"/>
        <path id="Path_310" data-name="Path 310" d="M0,0V10.407H2.2V1.783H12.86V0Z" transform="translate(0 0)" fill="#4dffff"/>
        <path id="Path_311" data-name="Path 311" d="M455.986,148.944v8.622H445.328v1.784H458.19V148.944Z" transform="translate(536.319 116.704)" fill="#4dffff"/>
        <path id="Path_312" data-name="Path 312" d="M445.328,0V1.783h10.658v8.623h2.2V0Z" transform="translate(536.319 0)" fill="#4dffff"/>
      </g>
    </g>
    <g id="Group_572" data-name="Group 572" transform="translate(-24 -30.672)">
      <path id="Path_650" data-name="Path 650" d="M10,0V-20H5v-5H20v5H15V0ZM35,0V-5H30V-20h5v-5H45v5h5V-5H45V0Zm0-5.2H45V-19.8H35ZM65,0V-20H60v-5H75v5H70V0ZM85,0V-20h5v-5h10v5h5V0h-5V-10H90V0Zm5-15h10v-4.8H90ZM115,0V-25h5V-5h10V0Z" transform="translate(609 865)" fill="#fff"/>
      <path id="Path_651" data-name="Path 651" d="M7.5,0V-7.5H15V-30H7.5v-7.5h15v30H30V0Zm60-22.5V-30H45v-7.5H67.5V-30H75v7.5ZM52.5-15v-7.5h15V-15ZM45,0V-15h7.5v7.5H75V0ZM97.5,0V-15H105v-7.5h7.5V-30H90v-7.5h30v15h-7.5V-15H105V0Zm45,0V-15H150v-7.5h7.5V-30H135v-7.5h30v15h-7.5V-15H150V0Z" transform="translate(590 952)" fill="#fff"/>
    </g>
    <g id="Group_570" data-name="Group 570" transform="translate(-66 -30.672)">
      <path id="Path_653" data-name="Path 653" d="M5,0V-25H20v5h5v5H20v5H10V0Zm5-15h9.8v-5H10ZM35,0V-25H50v5H40v5H50v5H40v5H50V0ZM60,0V-25H75v5h5v5H75V-5h5V0H75V-5H70v-5H65V0Zm5-15h9.8v-5H65Zm30-5v-5h15v5ZM105-5v-5H95v-5H90v-5h5v5h10v5h5v5ZM90,0V-5h15V0Zm35,0V-5h-5V-20h5v-5h10v5h5V-5h-5V0Zm0-5.2h10V-19.8H125ZM150,0V-25h5v5h5v5h5v5h5V-25h5V0h-5V-5h-5v-5h-5v-5h-5V0Zm35,0V-20h5v-5h10v5h5V0h-5V-10H190V0Zm5-15h10v-4.8H190ZM215,0V-25h5V-5h10V0Z" transform="translate(905 865)" fill="#fff"/>
      <path id="Path_652" data-name="Path 652" d="M7.5,0V-7.5H15V-30H7.5v-7.5h15v30H30V0ZM45,0V-7.5h7.5V-30H45v-7.5H60v30h7.5V0ZM90,0V-7.5H82.5V-30H90v-7.5h15V-30H90v7.5h15V-15h7.5v7.5H105V0Zm0-7.8h15v-6.9H90ZM135,0V-7.5h-7.5V-30H135v-7.5h15V-30h7.5V-7.5H150V0Zm0-7.8h15V-29.7H135Z" transform="translate(936 952)" fill="#fff"/>
    </g>
    <g id="Group_571" data-name="Group 571" transform="translate(-58 -30.672)">
      <path id="Path_654" data-name="Path 654" d="M10,0V-20H5v-5H20v5H15V0ZM30,0V-25H45v5H35v5H45v5H35v5H45V0ZM55,0V-20h5v-5H70v5h5V0H70V-10H60V0Zm5-15H70v-4.8H60ZM85,0V-25h5v5h5v5h5v5H95v-5H90V0Zm20,0V-15h-5v-5h5v-5h5V0Z" transform="translate(1232 865)" fill="#fff"/>
      <path id="Path_655" data-name="Path 655" d="M22.5,0V-15H7.5V-37.5H15v15h7.5v-15H30v15h7.5V-15H30V0ZM60,0V-7.5H52.5V-30H60v-7.5H75V-30H60v7.5H75V-15h7.5v7.5H75V0Zm0-7.8H75v-6.9H60Z" transform="translate(1245 952)" fill="#fff"/>
    </g>
  </g>
</svg>
