<svg xmlns="http://www.w3.org/2000/svg" xmlns:xlink="http://www.w3.org/1999/xlink" width="169.321" height="117.501" viewBox="0 0 169.321 117.501">
  <defs>
    <clipPath id="clip-path">
      <rect id="Rectangle_740" data-name="Rectangle 740" width="169.321" height="117.501" fill="none"/>
    </clipPath>
  </defs>
  <g id="立即報名" transform="translate(-1726 -930.913)">
    <g id="Group_574" data-name="Group 574" transform="translate(1726 930.914)">
      <g id="Group_573" data-name="Group 573" transform="translate(0 0)" clip-path="url(#clip-path)">
        <path id="Path_313" data-name="Path 313" d="M13.206,10.381H10.494a58.159,58.159,0,0,0-3.452,6.608H9.751a58.622,58.622,0,0,1,3.454-6.608" transform="translate(12.172 17.945)" fill="#e31010"/>
        <path id="Path_314" data-name="Path 314" d="M17.4,39.381H14.684a58.839,58.839,0,0,0,6.445,3.782h2.709A58.8,58.8,0,0,1,17.4,39.381" transform="translate(25.382 68.072)" fill="#e31010"/>
        <path id="Path_315" data-name="Path 315" d="M20.13,4.933H17.42a58.969,58.969,0,0,0-6.952,6.786h2.709A59.392,59.392,0,0,1,20.13,4.933" transform="translate(18.094 8.528)" fill="#e31010"/>
        <path id="Path_316" data-name="Path 316" d="M19.141,41.688A58.629,58.629,0,0,0,39.85,45.442c.453,0,.9-.005,1.353-.016a58.517,58.517,0,0,1-19.351-3.738Z" transform="translate(33.086 72.059)" fill="#e31010"/>
        <path id="Path_317" data-name="Path 317" d="M29.965,1.384H27.255a58.538,58.538,0,0,0-12.84,6.778h2.712A58.519,58.519,0,0,1,29.965,1.384" transform="translate(24.917 2.393)" fill="#e31010"/>
        <path id="Path_318" data-name="Path 318" d="M37.819.016C37.369.005,36.916,0,36.463,0A58.832,58.832,0,0,0,21.1,2.03h2.712A58.67,58.67,0,0,1,37.819.016" transform="translate(36.47 0.001)" fill="#e31010"/>
        <path id="Path_319" data-name="Path 319" d="M11.214,14.051H8.5A58.16,58.16,0,0,0,5.394,26.512H8.106a58.317,58.317,0,0,1,3.108-12.461" transform="translate(9.324 24.288)" fill="#e31010"/>
        <path id="Path_320" data-name="Path 320" d="M12.406,34.7H9.694a59.106,59.106,0,0,0,5.7,6.352H18.1a59.082,59.082,0,0,1-5.7-6.352" transform="translate(16.756 59.982)" fill="#e31010"/>
        <path id="Path_321" data-name="Path 321" d="M9.954,28.195H7.242q.417,1.277.887,2.524h2.712q-.471-1.248-.887-2.524" transform="translate(12.518 48.736)" fill="#e31010"/>
        <path id="Path_322" data-name="Path 322" d="M9.562,29.821H6.853A58.5,58.5,0,0,0,13.32,41.409h2.709A58.638,58.638,0,0,1,9.562,29.821" transform="translate(11.846 51.547)" fill="#e31010"/>
        <path id="Path_323" data-name="Path 323" d="M7.958,23.012H5.249A58.4,58.4,0,0,0,7.192,34.524H9.9A58.8,58.8,0,0,1,7.958,23.012" transform="translate(9.073 39.777)" fill="#e31010"/>
        <path id="Path_324" data-name="Path 324" d="M8.187,19.282H5.475q-.176,1.7-.254,3.427H7.93q.082-1.727.256-3.427" transform="translate(9.025 33.33)" fill="#e31010"/>
        <path id="Path_325" data-name="Path 325" d="M31.3.063C30.4.022,29.492,0,28.586,0c-.458,0-.909.005-1.359.016.909.019,1.814.063,2.709.123.45-.03.906-.055,1.359-.076" transform="translate(47.062 0.001)" fill="#e75cee"/>
        <path id="Path_326" data-name="Path 326" d="M27.227,43.136c.45.011.9.016,1.356.016q1.363,0,2.709-.063c-.453-.019-.9-.046-1.356-.076q-1.347.09-2.709.123" transform="translate(47.062 74.35)" fill="#e75cee"/>
        <path id="Path_327" data-name="Path 327" d="M25.556,41.688H20.134a58.533,58.533,0,0,0,19.353,3.738c.909-.019,1.812-.063,2.709-.123a58.433,58.433,0,0,1-16.641-3.615" transform="translate(34.802 72.059)" fill="#e75cee"/>
        <path id="Path_328" data-name="Path 328" d="M27.515,2.02A58.808,58.808,0,0,1,38.813.129c-.9-.06-1.8-.1-2.712-.123A58.69,58.69,0,0,0,22.093,2.02Z" transform="translate(38.188 0.011)" fill="#e75cee"/>
        <path id="Path_329" data-name="Path 329" d="M16.911,10.381H11.489a58.621,58.621,0,0,0-3.454,6.608h5.422a58.622,58.622,0,0,1,3.454-6.608" transform="translate(13.889 17.945)" fill="#e75cee"/>
        <path id="Path_330" data-name="Path 330" d="M13.268,29.821H7.846a58.5,58.5,0,0,0,6.467,11.588h5.422a58.638,58.638,0,0,1-6.467-11.588" transform="translate(13.562 51.547)" fill="#e75cee"/>
        <path id="Path_331" data-name="Path 331" d="M16.11,34.7H10.688a58.792,58.792,0,0,0,5.7,6.352h5.422a58.792,58.792,0,0,1-5.7-6.352" transform="translate(18.474 59.982)" fill="#e75cee"/>
        <path id="Path_332" data-name="Path 332" d="M13.66,28.195H8.236q.413,1.277.887,2.524h5.424q-.475-1.248-.887-2.524" transform="translate(14.236 48.736)" fill="#e75cee"/>
        <path id="Path_333" data-name="Path 333" d="M11.665,23.012H6.243A58.6,58.6,0,0,0,8.186,34.524h5.422a58.6,58.6,0,0,1-1.943-11.512" transform="translate(10.791 39.777)" fill="#e75cee"/>
        <path id="Path_334" data-name="Path 334" d="M11.893,19.282H6.471q-.176,1.7-.256,3.427h5.422q.082-1.727.256-3.427" transform="translate(10.743 33.33)" fill="#e75cee"/>
        <path id="Path_335" data-name="Path 335" d="M14.917,14.051H9.5A58.317,58.317,0,0,0,6.388,26.512H11.81a58.317,58.317,0,0,1,3.108-12.461" transform="translate(11.042 24.288)" fill="#e75cee"/>
        <path id="Path_336" data-name="Path 336" d="M23.835,4.933H18.413a59.391,59.391,0,0,0-6.952,6.786h5.422a59.391,59.391,0,0,1,6.952-6.786" transform="translate(19.811 8.528)" fill="#e75cee"/>
        <path id="Path_337" data-name="Path 337" d="M33.668,1.384H28.247A58.457,58.457,0,0,0,15.409,8.162h5.422A58.519,58.519,0,0,1,33.668,1.384" transform="translate(26.635 2.393)" fill="#e75cee"/>
        <path id="Path_338" data-name="Path 338" d="M21.1,39.381H15.678a58.8,58.8,0,0,0,6.442,3.782h5.422A58.8,58.8,0,0,1,21.1,39.381" transform="translate(27.1 68.072)" fill="#e75cee"/>
        <path id="Path_339" data-name="Path 339" d="M32.783.016C32.333.005,31.88,0,31.427,0q-1.363,0-2.709.063c.453.022.9.046,1.356.076.9-.06,1.8-.1,2.709-.123" transform="translate(49.64 0.001)" fill="#fcfc53"/>
        <path id="Path_340" data-name="Path 340" d="M28.718,43.089c.895.041,1.8.063,2.712.063.453,0,.9-.005,1.353-.016-.909-.022-1.814-.063-2.709-.123-.453.03-.906.057-1.356.076" transform="translate(49.64 74.35)" fill="#fcfc53"/>
        <path id="Path_341" data-name="Path 341" d="M29.579,42.973c-.453.041-.906.076-1.359.109.45.03.906.055,1.359.076.45-.022.9-.046,1.356-.076-.453-.033-.909-.068-1.356-.109" transform="translate(48.779 74.28)" fill="#fcfc53"/>
        <path id="Path_342" data-name="Path 342" d="M29.579.209c.447-.041.9-.076,1.356-.109-.453-.03-.906-.055-1.356-.076C29.126.045,28.67.069,28.22.1c.453.033.906.068,1.359.109" transform="translate(48.779 0.041)" fill="#fcfc53"/>
        <path id="Path_343" data-name="Path 343" d="M36.735.16c-.453-.041-.906-.076-1.359-.109a58.851,58.851,0,0,0-11.3,1.891h2.709A58.57,58.57,0,0,1,36.735.16" transform="translate(41.623 0.089)" fill="#fcfc53"/>
        <path id="Path_344" data-name="Path 344" d="M17.665,39.381a58.8,58.8,0,0,0,6.442,3.782h2.712a58.839,58.839,0,0,1-6.445-3.782Z" transform="translate(30.534 68.072)" fill="#fcfc53"/>
        <path id="Path_345" data-name="Path 345" d="M22.121,41.688A58.433,58.433,0,0,0,38.762,45.3c.453-.03.906-.068,1.356-.109A58.475,58.475,0,0,1,24.83,41.688Z" transform="translate(38.237 72.059)" fill="#fcfc53"/>
        <path id="Path_346" data-name="Path 346" d="M23.111,4.933H20.4a58.969,58.969,0,0,0-6.952,6.786h2.709a59.391,59.391,0,0,1,6.952-6.786" transform="translate(23.247 8.528)" fill="#fcfc53"/>
        <path id="Path_347" data-name="Path 347" d="M14.195,14.051H11.483A58.317,58.317,0,0,0,8.375,26.512h2.712a58.317,58.317,0,0,1,3.108-12.461" transform="translate(14.476 24.288)" fill="#fcfc53"/>
        <path id="Path_348" data-name="Path 348" d="M32.946,1.384H30.236A58.539,58.539,0,0,0,17.4,8.162h2.712A58.519,58.519,0,0,1,32.946,1.384" transform="translate(30.069 2.393)" fill="#fcfc53"/>
        <path id="Path_349" data-name="Path 349" d="M12.935,28.195H10.223q.417,1.277.887,2.524h2.712q-.471-1.248-.887-2.524" transform="translate(17.671 48.736)" fill="#fcfc53"/>
        <path id="Path_350" data-name="Path 350" d="M11.168,19.282H8.458q-.18,1.7-.256,3.427h2.712q.078-1.727.254-3.427" transform="translate(14.177 33.33)" fill="#fcfc53"/>
        <path id="Path_351" data-name="Path 351" d="M10.939,23.012H8.23a58.4,58.4,0,0,0,1.943,11.512h2.709a58.8,58.8,0,0,1-1.943-11.512" transform="translate(14.226 39.777)" fill="#fcfc53"/>
        <path id="Path_352" data-name="Path 352" d="M15.384,34.7H12.675a58.792,58.792,0,0,0,5.7,6.352h2.709a59.082,59.082,0,0,1-5.7-6.352" transform="translate(21.909 59.982)" fill="#fcfc53"/>
        <path id="Path_353" data-name="Path 353" d="M16.187,10.381H13.477a58.178,58.178,0,0,0-3.454,6.608h2.709a58.622,58.622,0,0,1,3.454-6.608" transform="translate(17.325 17.945)" fill="#fcfc53"/>
        <path id="Path_354" data-name="Path 354" d="M12.545,29.821H9.833A58.649,58.649,0,0,0,16.3,41.409h2.709a58.638,58.638,0,0,1-6.467-11.588" transform="translate(16.997 51.547)" fill="#fcfc53"/>
        <path id="Path_355" data-name="Path 355" d="M49.908,2.03A58.832,58.832,0,0,0,34.544,0c-.453,0-.906.005-1.356.016A58.693,58.693,0,0,1,47.2,2.03Z" transform="translate(57.366 0.001)" fill="#195ff5"/>
        <path id="Path_356" data-name="Path 356" d="M53.358,11.719H56.07a59.174,59.174,0,0,0-6.952-6.786H46.406a58.964,58.964,0,0,1,6.952,6.786" transform="translate(80.214 8.528)" fill="#195ff5"/>
        <path id="Path_357" data-name="Path 357" d="M54.568,16.988h2.709a58.393,58.393,0,0,0-3.452-6.608H51.114a58.41,58.41,0,0,1,3.454,6.608" transform="translate(88.351 17.943)" fill="#195ff5"/>
        <path id="Path_358" data-name="Path 358" d="M53.14,8.161h2.709A58.457,58.457,0,0,0,43.011,1.383H40.3A58.518,58.518,0,0,1,53.14,8.161" transform="translate(69.663 2.391)" fill="#195ff5"/>
        <path id="Path_359" data-name="Path 359" d="M42.377,43.163h2.709a58.838,58.838,0,0,0,6.445-3.782H48.819a58.8,58.8,0,0,1-6.442,3.782" transform="translate(73.249 68.072)" fill="#195ff5"/>
        <path id="Path_360" data-name="Path 360" d="M33.188,45.426c.45.011.9.016,1.356.016a58.652,58.652,0,0,0,20.709-3.754H52.541a58.533,58.533,0,0,1-19.353,3.738" transform="translate(57.366 72.059)" fill="#195ff5"/>
        <path id="Path_361" data-name="Path 361" d="M54.363,22.709h2.709q-.078-1.727-.254-3.427H54.107q.18,1.7.256,3.427" transform="translate(93.525 33.33)" fill="#195ff5"/>
        <path id="Path_362" data-name="Path 362" d="M53.842,30.719h2.712q.471-1.248.884-2.524H54.729q-.417,1.273-.887,2.524" transform="translate(93.067 48.736)" fill="#195ff5"/>
        <path id="Path_363" data-name="Path 363" d="M52.888,14.051A58.318,58.318,0,0,1,56,26.512h2.712A58.16,58.16,0,0,0,55.6,14.051Z" transform="translate(91.418 24.288)" fill="#195ff5"/>
        <path id="Path_364" data-name="Path 364" d="M53.461,34.525h2.712a58.869,58.869,0,0,0,1.943-11.512H55.4a58.464,58.464,0,0,1-1.943,11.512" transform="translate(92.408 39.779)" fill="#195ff5"/>
        <path id="Path_365" data-name="Path 365" d="M50.2,41.409h2.712a58.9,58.9,0,0,0,6.464-11.588H56.664A58.627,58.627,0,0,1,50.2,41.409" transform="translate(86.772 51.547)" fill="#195ff5"/>
        <path id="Path_366" data-name="Path 366" d="M47.64,41.053h2.709a59.106,59.106,0,0,0,5.7-6.352H53.337a58.793,58.793,0,0,1-5.7,6.352" transform="translate(82.347 59.982)" fill="#195ff5"/>
        <path id="Path_367" data-name="Path 367" d="M35.763.016C35.313.005,34.86,0,34.407,0Q33.045,0,31.7.063c.453.022.9.046,1.356.076.9-.06,1.8-.1,2.709-.123" transform="translate(54.791 0.001)" fill="#19f5ee"/>
        <path id="Path_368" data-name="Path 368" d="M31.7,43.089q1.347.061,2.709.063c.456,0,.906-.005,1.356-.016q-1.363-.033-2.709-.123c-.45.03-.9.057-1.356.076" transform="translate(54.791 74.35)" fill="#19f5ee"/>
        <path id="Path_369" data-name="Path 369" d="M52.375,22.709H57.8q-.078-1.727-.254-3.427H52.121q.176,1.7.254,3.427" transform="translate(90.092 33.33)" fill="#19f5ee"/>
        <path id="Path_370" data-name="Path 370" d="M54.01,26.512h5.422a58.358,58.358,0,0,0-3.108-12.461H50.9A58.358,58.358,0,0,1,54.01,26.512" transform="translate(87.985 24.288)" fill="#19f5ee"/>
        <path id="Path_371" data-name="Path 371" d="M48.212,41.409h5.422A58.5,58.5,0,0,0,60.1,29.821H54.679a58.639,58.639,0,0,1-6.467,11.588" transform="translate(83.335 51.547)" fill="#19f5ee"/>
        <path id="Path_372" data-name="Path 372" d="M51.474,34.525H56.9a58.668,58.668,0,0,0,1.945-11.512H53.417a58.464,58.464,0,0,1-1.943,11.512" transform="translate(88.974 39.779)" fill="#19f5ee"/>
        <path id="Path_373" data-name="Path 373" d="M51.154,8.161h5.422a58.6,58.6,0,0,0-12.84-6.778H38.314a58.539,58.539,0,0,1,12.84,6.778" transform="translate(66.226 2.391)" fill="#19f5ee"/>
        <path id="Path_374" data-name="Path 374" d="M51.371,11.719h5.422a58.755,58.755,0,0,0-6.952-6.786H44.419a58.964,58.964,0,0,1,6.952,6.786" transform="translate(76.779 8.528)" fill="#19f5ee"/>
        <path id="Path_375" data-name="Path 375" d="M52.581,16.988H58a58.392,58.392,0,0,0-3.452-6.608H49.127a58.857,58.857,0,0,1,3.454,6.608" transform="translate(84.917 17.943)" fill="#19f5ee"/>
        <path id="Path_376" data-name="Path 376" d="M45.653,41.053h5.422a58.792,58.792,0,0,0,5.7-6.352H51.35a58.793,58.793,0,0,1-5.7,6.352" transform="translate(78.912 59.982)" fill="#19f5ee"/>
        <path id="Path_377" data-name="Path 377" d="M40.39,43.163h5.422a58.8,58.8,0,0,0,6.442-3.782H46.832a58.8,58.8,0,0,1-6.442,3.782" transform="translate(69.815 68.072)" fill="#19f5ee"/>
        <path id="Path_378" data-name="Path 378" d="M51.854,30.719h5.422q.471-1.248.887-2.524H52.741q-.413,1.273-.887,2.524" transform="translate(89.631 48.736)" fill="#19f5ee"/>
        <path id="Path_379" data-name="Path 379" d="M43.494,2.02h5.422A58.69,58.69,0,0,0,34.907.006C34,.028,33.093.069,32.195.129a58.808,58.808,0,0,1,11.3,1.891" transform="translate(55.65 0.011)" fill="#19f5ee"/>
        <path id="Path_380" data-name="Path 380" d="M48.836,41.688A58.433,58.433,0,0,1,32.195,45.3c.9.06,1.8.1,2.709.123a58.533,58.533,0,0,0,19.353-3.738Z" transform="translate(55.65 72.059)" fill="#19f5ee"/>
        <path id="Path_381" data-name="Path 381" d="M30.208,43.136c.45.011.9.016,1.356.016q1.363,0,2.709-.063c-.453-.019-.9-.046-1.353-.076q-1.351.09-2.712.123" transform="translate(52.215 74.35)" fill="#fcfcfc"/>
        <path id="Path_382" data-name="Path 382" d="M34.273.063C33.376.022,32.47,0,31.561,0c-.453,0-.9.005-1.353.016.909.019,1.812.063,2.709.123.45-.03.9-.055,1.356-.076" transform="translate(52.215 0.001)" fill="#fcfcfc"/>
        <path id="Path_383" data-name="Path 383" d="M31.924.377Q33.271.222,34.637.129,33.286.039,31.924.006q-1.363.033-2.709.123,1.363.094,2.709.248" transform="translate(50.499 0.011)" fill="#fcfcfc"/>
        <path id="Path_384" data-name="Path 384" d="M31.924,42.922q-1.347.156-2.709.248,1.347.09,2.709.123,1.363-.033,2.712-.123-1.367-.094-2.712-.248" transform="translate(50.499 74.192)" fill="#fcfcfc"/>
        <path id="Path_385" data-name="Path 385" d="M32.783.3Q31.437.144,30.074.051c-.456.033-.906.068-1.356.109.909.082,1.812.188,2.709.311.45-.063.9-.12,1.356-.172" transform="translate(49.64 0.089)" fill="#fcfcfc"/>
        <path id="Path_386" data-name="Path 386" d="M28.718,43.17c.447.041.9.076,1.356.109.909-.063,1.809-.145,2.709-.248-.453-.052-.906-.109-1.353-.172-.9.123-1.806.226-2.712.311" transform="translate(49.64 74.083)" fill="#fcfcfc"/>
        <path id="Path_387" data-name="Path 387" d="M19.892,10.381H14.47a58.622,58.622,0,0,0-3.454,6.608h5.422a58.621,58.621,0,0,1,3.454-6.608" transform="translate(19.041 17.945)" fill="#fcfcfc"/>
        <path id="Path_388" data-name="Path 388" d="M28.537,41.688H23.115A58.455,58.455,0,0,0,38.4,45.194q1.367-.123,2.712-.311a58.232,58.232,0,0,1-12.576-3.2" transform="translate(39.955 72.059)" fill="#fcfcfc"/>
        <path id="Path_389" data-name="Path 389" d="M23.812,8.161A58.518,58.518,0,0,1,36.649,1.383H31.228A58.519,58.519,0,0,0,18.39,8.161Z" transform="translate(31.787 2.391)" fill="#fcfcfc"/>
        <path id="Path_390" data-name="Path 390" d="M26.816,4.933H21.394a59.179,59.179,0,0,0-6.952,6.786h5.422a59.391,59.391,0,0,1,6.952-6.786" transform="translate(24.963 8.528)" fill="#fcfcfc"/>
        <path id="Path_391" data-name="Path 391" d="M24.08,39.381H18.658A58.8,58.8,0,0,0,25.1,43.163h5.422a58.8,58.8,0,0,1-6.442-3.782" transform="translate(32.251 68.072)" fill="#fcfcfc"/>
        <path id="Path_392" data-name="Path 392" d="M17.9,14.051H12.479A58.484,58.484,0,0,0,9.368,26.512h5.424A58.318,58.318,0,0,1,17.9,14.051" transform="translate(16.193 24.288)" fill="#fcfcfc"/>
        <path id="Path_393" data-name="Path 393" d="M19.091,34.7H13.669a58.792,58.792,0,0,0,5.7,6.352h5.422a58.792,58.792,0,0,1-5.7-6.352" transform="translate(23.627 59.982)" fill="#fcfcfc"/>
        <path id="Path_394" data-name="Path 394" d="M14.645,23.012H9.223a58.6,58.6,0,0,0,1.943,11.512h5.422a58.6,58.6,0,0,1-1.943-11.512" transform="translate(15.942 39.777)" fill="#fcfcfc"/>
        <path id="Path_395" data-name="Path 395" d="M16.639,28.195H11.217q.413,1.277.887,2.524h5.422q-.471-1.248-.887-2.524" transform="translate(19.389 48.736)" fill="#fcfcfc"/>
        <path id="Path_396" data-name="Path 396" d="M16.249,29.821H10.827a58.5,58.5,0,0,0,6.467,11.588h5.422a58.638,58.638,0,0,1-6.467-11.588" transform="translate(18.715 51.547)" fill="#fcfcfc"/>
        <path id="Path_397" data-name="Path 397" d="M30.5,1.873A58.6,58.6,0,0,1,37.726.4c-.895-.126-1.8-.229-2.709-.311a58.538,58.538,0,0,0-9.943,1.782Z" transform="translate(43.341 0.158)" fill="#fcfcfc"/>
        <path id="Path_398" data-name="Path 398" d="M14.873,19.282H9.451q-.176,1.7-.256,3.427h5.424q.078-1.727.254-3.427" transform="translate(15.894 33.33)" fill="#fcfcfc"/>
        <path id="Path_399" data-name="Path 399" d="M32.557,42.973c-.45.041-.9.076-1.356.109.45.03.9.055,1.356.076.453-.022.906-.046,1.356-.076-.453-.033-.906-.068-1.356-.109" transform="translate(53.931 74.28)" fill="#fcfcfc"/>
        <path id="Path_400" data-name="Path 400" d="M32.557.209c.45-.041.9-.076,1.356-.109-.45-.03-.9-.055-1.356-.076C32.1.045,31.651.069,31.2.1c.453.033.906.068,1.356.109" transform="translate(53.931 0.041)" fill="#fcfcfc"/>
        <path id="Path_401" data-name="Path 401" d="M34.273.16c-.45-.041-.9-.076-1.356-.109Q31.555.145,30.208.3c.453.052.9.109,1.353.172.9-.123,1.8-.226,2.712-.311" transform="translate(52.215 0.089)" fill="#fcfcfc"/>
        <path id="Path_402" data-name="Path 402" d="M30.208,43.031q1.347.156,2.712.248c.453-.033.9-.068,1.353-.109-.909-.082-1.812-.188-2.709-.311-.45.063-.9.12-1.356.172" transform="translate(52.215 74.083)" fill="#fcfcfc"/>
        <path id="Path_403" data-name="Path 403" d="M31.067.519c.45-.074.9-.142,1.356-.2-.45-.063-.9-.12-1.356-.172-.453.052-.906.109-1.356.172.453.063.906.131,1.356.2" transform="translate(51.356 0.246)" fill="#fcfcfc"/>
        <path id="Path_404" data-name="Path 404" d="M31.067,42.784c-.45.074-.9.142-1.356.2.45.063.9.12,1.356.172.453-.052.906-.109,1.356-.172-.453-.063-.906-.131-1.356-.2" transform="translate(51.356 73.954)" fill="#fcfcfc"/>
        <path id="Path_405" data-name="Path 405" d="M19.167,10.381H16.457A58.178,58.178,0,0,0,13,16.989h2.709a58.621,58.621,0,0,1,3.454-6.608" transform="translate(22.476 17.945)" fill="#fcfcfc"/>
        <path id="Path_406" data-name="Path 406" d="M14.149,19.282H11.437q-.176,1.7-.254,3.427H13.9q.078-1.727.254-3.427" transform="translate(19.33 33.33)" fill="#fcfcfc"/>
        <path id="Path_407" data-name="Path 407" d="M17.176,14.051H14.464a58.317,58.317,0,0,0-3.108,12.461h2.709a58.484,58.484,0,0,1,3.111-12.461" transform="translate(19.629 24.288)" fill="#fcfcfc"/>
        <path id="Path_408" data-name="Path 408" d="M25.1,41.688a58.232,58.232,0,0,0,12.576,3.2c.453-.063.906-.131,1.356-.2a58.309,58.309,0,0,1-11.22-2.99Z" transform="translate(43.389 72.059)" fill="#fcfcfc"/>
        <path id="Path_409" data-name="Path 409" d="M15.525,29.821H12.813a58.649,58.649,0,0,0,6.469,11.588h2.709a58.638,58.638,0,0,1-6.467-11.588" transform="translate(22.147 51.547)" fill="#fcfcfc"/>
        <path id="Path_410" data-name="Path 410" d="M26.091,4.933H23.379a59.155,59.155,0,0,0-6.95,6.786h2.709a59.391,59.391,0,0,1,6.952-6.786" transform="translate(28.398 8.528)" fill="#fcfcfc"/>
        <path id="Path_411" data-name="Path 411" d="M35.648.41c-.45-.074-.9-.142-1.356-.2a58.6,58.6,0,0,0-7.231,1.471H29.77A59,59,0,0,1,35.648.41" transform="translate(46.775 0.355)" fill="#fcfcfc"/>
        <path id="Path_412" data-name="Path 412" d="M18.365,34.7H15.656a58.792,58.792,0,0,0,5.7,6.352h2.709a58.793,58.793,0,0,1-5.7-6.352" transform="translate(27.062 59.982)" fill="#fcfcfc"/>
        <path id="Path_413" data-name="Path 413" d="M13.922,23.012H11.21a58.6,58.6,0,0,0,1.945,11.512h2.709a58.8,58.8,0,0,1-1.943-11.512" transform="translate(19.377 39.777)" fill="#fcfcfc"/>
        <path id="Path_414" data-name="Path 414" d="M35.927,1.384H33.215A58.518,58.518,0,0,0,20.377,8.162h2.712A58.519,58.519,0,0,1,35.927,1.384" transform="translate(35.222 2.393)" fill="#fcfcfc"/>
        <path id="Path_415" data-name="Path 415" d="M20.645,39.381a58.8,58.8,0,0,0,6.442,3.782H29.8a58.547,58.547,0,0,1-6.442-3.782Z" transform="translate(35.685 68.072)" fill="#fcfcfc"/>
        <path id="Path_416" data-name="Path 416" d="M15.914,28.195H13.2q.413,1.277.884,2.524H16.8q-.471-1.248-.887-2.524" transform="translate(22.825 48.736)" fill="#fcfcfc"/>
        <path id="Path_417" data-name="Path 417" d="M50.378,11.719h2.709a58.941,58.941,0,0,0-6.95-6.786H43.426a58.963,58.963,0,0,1,6.952,6.786" transform="translate(75.063 8.528)" fill="#fcfcfc"/>
        <path id="Path_418" data-name="Path 418" d="M44.659,41.053h2.712a59.373,59.373,0,0,0,5.7-6.352H50.356a58.793,58.793,0,0,1-5.7,6.352" transform="translate(77.194 59.982)" fill="#fcfcfc"/>
        <path id="Path_419" data-name="Path 419" d="M47.219,41.409h2.712A58.777,58.777,0,0,0,56.4,29.821H53.686a58.5,58.5,0,0,1-6.467,11.588" transform="translate(81.619 51.547)" fill="#fcfcfc"/>
        <path id="Path_420" data-name="Path 420" d="M52.873,8.161a58.539,58.539,0,0,0-12.84-6.778H37.32A58.4,58.4,0,0,1,50.158,8.161Z" transform="translate(64.508 2.391)" fill="#fcfcfc"/>
        <path id="Path_421" data-name="Path 421" d="M39.4,43.163h2.712a59.059,59.059,0,0,0,6.442-3.782H45.838A58.8,58.8,0,0,1,39.4,43.163" transform="translate(68.097 68.072)" fill="#fcfcfc"/>
        <path id="Path_422" data-name="Path 422" d="M48.134,10.381a58.159,58.159,0,0,1,3.452,6.608H54.3a58.623,58.623,0,0,0-3.454-6.608Z" transform="translate(83.2 17.945)" fill="#fcfcfc"/>
        <path id="Path_423" data-name="Path 423" d="M50.48,34.525h2.712a58.869,58.869,0,0,0,1.943-11.512H52.423A58.464,58.464,0,0,1,50.48,34.525" transform="translate(87.256 39.779)" fill="#fcfcfc"/>
        <path id="Path_424" data-name="Path 424" d="M51.381,22.709h2.712q-.082-1.727-.256-3.427H51.127q.176,1.7.254,3.427" transform="translate(88.374 33.33)" fill="#fcfcfc"/>
        <path id="Path_425" data-name="Path 425" d="M50.861,30.719H53.57q.471-1.248.887-2.524H51.748q-.417,1.273-.887,2.524" transform="translate(87.914 48.736)" fill="#fcfcfc"/>
        <path id="Path_426" data-name="Path 426" d="M44.353,1.942A58.808,58.808,0,0,0,33.054.051C32.6.084,32.148.119,31.7.16a58.489,58.489,0,0,1,9.943,1.782Z" transform="translate(54.791 0.089)" fill="#fcfcfc"/>
        <path id="Path_427" data-name="Path 427" d="M53.016,26.512h2.709a58.358,58.358,0,0,0-3.108-12.461H49.908a58.359,58.359,0,0,1,3.108,12.461" transform="translate(86.267 24.288)" fill="#fcfcfc"/>
        <path id="Path_428" data-name="Path 428" d="M31.7,45.194c.45.041.9.076,1.356.109A58.526,58.526,0,0,0,49.7,41.688H46.986A58.475,58.475,0,0,1,31.7,45.194" transform="translate(54.791 72.059)" fill="#fcfcfc"/>
        <path id="Path_429" data-name="Path 429" d="M48.493,34.525h5.422a58.464,58.464,0,0,0,1.943-11.512H50.436a58.465,58.465,0,0,1-1.943,11.512" transform="translate(83.821 39.779)" fill="#fcfcfc"/>
        <path id="Path_430" data-name="Path 430" d="M49.6,16.988h5.422A58.389,58.389,0,0,0,51.57,10.38H46.146A58.854,58.854,0,0,1,49.6,16.988" transform="translate(79.764 17.943)" fill="#fcfcfc"/>
        <path id="Path_431" data-name="Path 431" d="M48.172,8.161h5.422A58.457,58.457,0,0,0,40.756,1.383H35.334A58.519,58.519,0,0,1,48.172,8.161" transform="translate(61.075 2.391)" fill="#fcfcfc"/>
        <path id="Path_432" data-name="Path 432" d="M48.874,30.719H54.3q.471-1.248.887-2.524H49.761q-.417,1.273-.887,2.524" transform="translate(84.48 48.736)" fill="#fcfcfc"/>
        <path id="Path_433" data-name="Path 433" d="M49.394,22.709h5.422q-.078-1.727-.254-3.427H49.14q.176,1.7.254,3.427" transform="translate(84.939 33.33)" fill="#fcfcfc"/>
        <path id="Path_434" data-name="Path 434" d="M45.232,41.409h5.422A58.5,58.5,0,0,0,57.12,29.821H51.7a58.5,58.5,0,0,1-6.467,11.588" transform="translate(78.184 51.547)" fill="#fcfcfc"/>
        <path id="Path_435" data-name="Path 435" d="M42.672,41.053h5.422a58.793,58.793,0,0,0,5.7-6.352H48.369a58.793,58.793,0,0,1-5.7,6.352" transform="translate(73.759 59.982)" fill="#fcfcfc"/>
        <path id="Path_436" data-name="Path 436" d="M43.281,41.688a58.232,58.232,0,0,1-12.576,3.2q1.347.188,2.712.311A58.455,58.455,0,0,0,48.7,41.688Z" transform="translate(53.074 72.059)" fill="#fcfcfc"/>
        <path id="Path_437" data-name="Path 437" d="M48.391,11.719h5.422a58.964,58.964,0,0,0-6.952-6.786H41.439a58.963,58.963,0,0,1,6.952,6.786" transform="translate(71.628 8.528)" fill="#fcfcfc"/>
        <path id="Path_438" data-name="Path 438" d="M43.851,39.381a58.8,58.8,0,0,1-6.442,3.782h5.422a58.8,58.8,0,0,0,6.442-3.782Z" transform="translate(64.662 68.072)" fill="#fcfcfc"/>
        <path id="Path_439" data-name="Path 439" d="M37.937,1.873h5.422A58.538,58.538,0,0,0,33.416.091C32.508.173,31.6.277,30.7.4a58.543,58.543,0,0,1,7.233,1.471" transform="translate(53.072 0.158)" fill="#fcfcfc"/>
        <path id="Path_440" data-name="Path 440" d="M51.029,26.512H56.45a58.359,58.359,0,0,0-3.108-12.461H47.921a58.522,58.522,0,0,1,3.108,12.461" transform="translate(82.832 24.288)" fill="#fcfcfc"/>
        <path id="Path_441" data-name="Path 441" d="M41.678,41.053H44.39a59.375,59.375,0,0,0,5.7-6.352H47.375a58.793,58.793,0,0,1-5.7,6.352" transform="translate(72.041 59.982)" fill="#fcfcfc"/>
        <path id="Path_442" data-name="Path 442" d="M47.5,34.525h2.707a58.669,58.669,0,0,0,1.945-11.512H49.44A58.664,58.664,0,0,1,47.5,34.525" transform="translate(82.105 39.779)" fill="#fcfcfc"/>
        <path id="Path_443" data-name="Path 443" d="M48.4,22.709h2.712q-.082-1.727-.256-3.427H48.146q.176,1.7.254,3.427" transform="translate(83.221 33.33)" fill="#fcfcfc"/>
        <path id="Path_444" data-name="Path 444" d="M47.88,30.719h2.709q.475-1.248.887-2.524H48.767q-.417,1.273-.887,2.524" transform="translate(82.761 48.736)" fill="#fcfcfc"/>
        <path id="Path_445" data-name="Path 445" d="M44.238,41.409H46.95a58.777,58.777,0,0,0,6.467-11.588H50.7a58.5,58.5,0,0,1-6.467,11.588" transform="translate(76.466 51.547)" fill="#fcfcfc"/>
        <path id="Path_446" data-name="Path 446" d="M30.208,44.678c.45.074.9.142,1.356.2a58.55,58.55,0,0,0,12.576-3.2H41.428a58.361,58.361,0,0,1-11.22,2.99" transform="translate(52.215 72.059)" fill="#fcfcfc"/>
        <path id="Path_447" data-name="Path 447" d="M38.795,1.676A58.544,58.544,0,0,0,31.561.2c-.453.063-.9.131-1.353.2a58.032,58.032,0,0,1,5.874,1.266Z" transform="translate(52.215 0.355)" fill="#fcfcfc"/>
        <path id="Path_448" data-name="Path 448" d="M49.89,8.161A58.519,58.519,0,0,0,37.052,1.383H34.34A58.457,58.457,0,0,1,47.178,8.161Z" transform="translate(59.357 2.391)" fill="#fcfcfc"/>
        <path id="Path_449" data-name="Path 449" d="M43.157,4.933H40.445A58.969,58.969,0,0,1,47.4,11.719h2.712a59.391,59.391,0,0,0-6.952-6.786" transform="translate(69.91 8.528)" fill="#fcfcfc"/>
        <path id="Path_450" data-name="Path 450" d="M48.607,16.988h2.712a58.855,58.855,0,0,0-3.454-6.608H45.153a57.97,57.97,0,0,1,3.454,6.608" transform="translate(78.048 17.943)" fill="#fcfcfc"/>
        <path id="Path_451" data-name="Path 451" d="M50.035,26.512h2.712a58.525,58.525,0,0,0-3.111-12.461H46.927a58.358,58.358,0,0,1,3.108,12.461" transform="translate(81.114 24.288)" fill="#fcfcfc"/>
        <path id="Path_452" data-name="Path 452" d="M36.416,43.163h2.712a59.058,59.058,0,0,0,6.442-3.782H42.858a58.8,58.8,0,0,1-6.442,3.782" transform="translate(62.946 68.072)" fill="#fcfcfc"/>
        <path id="Path_453" data-name="Path 453" d="M14,16.988h88.464a58.856,58.856,0,0,0-3.454-6.608H17.451A58.857,58.857,0,0,0,14,16.988" transform="translate(24.194 17.943)" fill="#fcfcfc"/>
        <path id="Path_454" data-name="Path 454" d="M12.176,22.709h98.4q-.078-1.727-.254-3.427H12.43q-.176,1.7-.254,3.427" transform="translate(21.046 33.33)" fill="#fcfcfc"/>
        <path id="Path_455" data-name="Path 455" d="M20.275,41.409H96.84a58.777,58.777,0,0,0,6.467-11.588h-89.5a58.5,58.5,0,0,0,6.467,11.588" transform="translate(23.867 51.547)" fill="#fcfcfc"/>
        <path id="Path_456" data-name="Path 456" d="M15.086,30.719H106.1c.311-.832.608-1.675.884-2.524H14.2q.417,1.273.889,2.524" transform="translate(24.54 48.736)" fill="#fcfcfc"/>
        <path id="Path_457" data-name="Path 457" d="M14.147,34.525h94.36a58.67,58.67,0,0,0,1.945-11.512H12.2a58.464,58.464,0,0,0,1.943,11.512" transform="translate(21.095 39.779)" fill="#fcfcfc"/>
        <path id="Path_458" data-name="Path 458" d="M17.423,11.719H87.191a58.941,58.941,0,0,0-6.95-6.786H24.375a58.964,58.964,0,0,0-6.952,6.786" transform="translate(30.116 8.528)" fill="#fcfcfc"/>
        <path id="Path_459" data-name="Path 459" d="M12.349,26.512H109.8A58.359,58.359,0,0,0,106.7,14.051H15.46a58.362,58.362,0,0,0-3.111,12.461" transform="translate(21.345 24.288)" fill="#fcfcfc"/>
        <path id="Path_460" data-name="Path 460" d="M39.806,1.546A58.085,58.085,0,0,0,33.928.28a58.193,58.193,0,0,0-5.874,1.266Z" transform="translate(48.492 0.485)" fill="#fcfcfc"/>
        <path id="Path_461" data-name="Path 461" d="M90.641,34.7H16.649a59.106,59.106,0,0,0,5.7,6.352H84.944a59.079,59.079,0,0,0,5.7-6.352" transform="translate(28.778 59.982)" fill="#fcfcfc"/>
        <path id="Path_462" data-name="Path 462" d="M26.1,41.688a58.362,58.362,0,0,0,11.22,2.99,58.388,58.388,0,0,0,11.222-2.99Z" transform="translate(45.107 72.059)" fill="#fcfcfc"/>
        <path id="Path_463" data-name="Path 463" d="M69.6,8.161A58.518,58.518,0,0,0,56.759,1.383H34.208A58.519,58.519,0,0,0,21.37,8.161Z" transform="translate(36.938 2.391)" fill="#fcfcfc"/>
        <path id="Path_464" data-name="Path 464" d="M21.639,39.381a58.8,58.8,0,0,0,6.442,3.782H61.958A58.8,58.8,0,0,0,68.4,39.381Z" transform="translate(37.403 68.072)" fill="#fcfcfc"/>
        <path id="Path_465" data-name="Path 465" d="M17.907,7.42H15.2A59.05,59.05,0,0,0,9.3,15.5h2.712A59.031,59.031,0,0,1,17.907,7.42" transform="translate(16.077 12.826)" fill="#e31010"/>
        <path id="Path_466" data-name="Path 466" d="M21.61,7.42H16.189A58.8,58.8,0,0,0,10.3,15.5h5.422A59.031,59.031,0,0,1,21.61,7.42" transform="translate(17.795 12.826)" fill="#e75cee"/>
        <path id="Path_467" data-name="Path 467" d="M20.889,7.42H18.175A59.262,59.262,0,0,0,12.281,15.5h2.712a58.822,58.822,0,0,1,5.9-8.079" transform="translate(21.228 12.826)" fill="#fcfc53"/>
        <path id="Path_468" data-name="Path 468" d="M55.842,15.5h2.709A58.8,58.8,0,0,0,52.657,7.42H49.948A59.032,59.032,0,0,1,55.842,15.5" transform="translate(86.336 12.826)" fill="#195ff5"/>
        <path id="Path_469" data-name="Path 469" d="M53.855,15.5h5.422A59.031,59.031,0,0,0,53.383,7.42H47.961A59.029,59.029,0,0,1,53.855,15.5" transform="translate(82.901 12.826)" fill="#19f5ee"/>
        <path id="Path_470" data-name="Path 470" d="M24.591,7.42H19.17A59.031,59.031,0,0,0,13.276,15.5H18.7A59.031,59.031,0,0,1,24.591,7.42" transform="translate(22.948 12.826)" fill="#fcfcfc"/>
        <path id="Path_471" data-name="Path 471" d="M23.868,7.42H21.156A59.031,59.031,0,0,0,15.262,15.5h2.712A58.8,58.8,0,0,1,23.868,7.42" transform="translate(26.381 12.826)" fill="#fcfcfc"/>
        <path id="Path_472" data-name="Path 472" d="M52.861,15.5h2.712a59.049,59.049,0,0,0-5.9-8.079H46.967A59.032,59.032,0,0,1,52.861,15.5" transform="translate(81.183 12.826)" fill="#fcfcfc"/>
        <path id="Path_473" data-name="Path 473" d="M44.98,7.42A59.031,59.031,0,0,1,50.874,15.5H56.3A58.8,58.8,0,0,0,50.4,7.42Z" transform="translate(77.749 12.826)" fill="#fcfcfc"/>
        <path id="Path_474" data-name="Path 474" d="M49.881,15.5h2.712A59.05,59.05,0,0,0,46.7,7.42H43.987A59.029,59.029,0,0,1,49.881,15.5" transform="translate(76.032 12.826)" fill="#fcfcfc"/>
        <path id="Path_475" data-name="Path 475" d="M16.256,15.5H97.814A59.029,59.029,0,0,0,91.921,7.42H22.15A59.031,59.031,0,0,0,16.256,15.5" transform="translate(28.099 12.826)" fill="#fcfcfc"/>
        <path id="Path_476" data-name="Path 476" d="M5.664,12.8H2.952Q2.207,14.48,1.566,16.21H4.278q.638-1.731,1.386-3.408" transform="translate(2.707 22.129)" fill="#e31010"/>
        <path id="Path_477" data-name="Path 477" d="M9.368,12.8H3.946Q3.2,14.48,2.56,16.21H7.982Q8.62,14.479,9.368,12.8" transform="translate(4.425 22.129)" fill="#e75cee"/>
        <path id="Path_478" data-name="Path 478" d="M8.644,12.8H5.935Q5.186,14.48,4.546,16.21H7.258Q7.9,14.479,8.644,12.8" transform="translate(7.858 22.129)" fill="#fcfc53"/>
        <path id="Path_479" data-name="Path 479" d="M48.8,16.21h2.707q-.638-1.731-1.386-3.408H47.412q.749,1.678,1.389,3.408" transform="translate(81.952 22.129)" fill="#195ff5"/>
        <path id="Path_480" data-name="Path 480" d="M45.425,12.8q.745,1.678,1.386,3.408h5.422q-.638-1.731-1.386-3.408Z" transform="translate(78.518 22.129)" fill="#19f5ee"/>
        <path id="Path_481" data-name="Path 481" d="M12.348,12.8H6.926Q6.181,14.48,5.54,16.21h5.422q.643-1.731,1.386-3.408" transform="translate(9.576 22.129)" fill="#fcfcfc"/>
        <path id="Path_482" data-name="Path 482" d="M11.625,12.8H8.913Q8.168,14.48,7.527,16.21h2.712q.638-1.731,1.386-3.408" transform="translate(13.011 22.129)" fill="#fcfcfc"/>
        <path id="Path_483" data-name="Path 483" d="M45.818,16.21H48.53q-.643-1.731-1.386-3.408H44.432q.745,1.678,1.386,3.408" transform="translate(76.801 22.129)" fill="#fcfcfc"/>
        <path id="Path_484" data-name="Path 484" d="M43.831,16.21h5.422q-.643-1.731-1.386-3.408H42.445q.745,1.678,1.386,3.408" transform="translate(73.367 22.129)" fill="#fcfcfc"/>
        <path id="Path_485" data-name="Path 485" d="M42.837,16.21h2.709q-.638-1.731-1.386-3.408H41.451q.745,1.678,1.386,3.408" transform="translate(71.649 22.129)" fill="#fcfcfc"/>
        <path id="Path_486" data-name="Path 486" d="M8.521,16.21H99.757q-.643-1.731-1.386-3.408H9.907Q9.162,14.48,8.521,16.21" transform="translate(14.729 22.129)" fill="#fcfcfc"/>
        <path id="Path_487" data-name="Path 487" d="M2.712,27.232H0q.364,1.326.786,2.628H3.5q-.422-1.3-.786-2.628" transform="translate(0 47.072)" fill="#e31010"/>
        <path id="Path_488" data-name="Path 488" d="M6.416,27.232H.994c.243.884.5,1.76.786,2.628H7.2q-.422-1.3-.786-2.628" transform="translate(1.718 47.072)" fill="#e75cee"/>
        <path id="Path_489" data-name="Path 489" d="M5.69,27.232H2.981q.36,1.326.783,2.628H6.476q-.422-1.3-.786-2.628" transform="translate(5.153 47.072)" fill="#fcfc53"/>
        <path id="Path_490" data-name="Path 490" d="M47.211,29.86h2.712q.422-1.3.783-2.628H48q-.364,1.326-.786,2.628" transform="translate(81.605 47.072)" fill="#195ff5"/>
        <path id="Path_491" data-name="Path 491" d="M45.224,29.86h5.422q.422-1.3.786-2.628H46.01q-.364,1.326-.786,2.628" transform="translate(78.17 47.072)" fill="#19f5ee"/>
        <path id="Path_492" data-name="Path 492" d="M9.4,27.232H3.974q.364,1.326.786,2.628h5.422q-.422-1.3-.786-2.628" transform="translate(6.869 47.072)" fill="#fcfcfc"/>
        <path id="Path_493" data-name="Path 493" d="M8.673,27.232H5.961q.364,1.326.786,2.628H9.459q-.422-1.3-.786-2.628" transform="translate(10.304 47.072)" fill="#fcfcfc"/>
        <path id="Path_494" data-name="Path 494" d="M44.231,29.86H46.94q.426-1.3.786-2.628H45.017q-.364,1.326-.786,2.628" transform="translate(76.454 47.072)" fill="#fcfcfc"/>
        <path id="Path_495" data-name="Path 495" d="M42.244,29.86h5.422q.422-1.3.786-2.628H43.03q-.364,1.326-.786,2.628" transform="translate(73.019 47.072)" fill="#fcfcfc"/>
        <path id="Path_496" data-name="Path 496" d="M41.25,29.86h2.709q.426-1.3.786-2.628H42.036q-.364,1.326-.786,2.628" transform="translate(71.301 47.072)" fill="#fcfcfc"/>
        <path id="Path_497" data-name="Path 497" d="M7.741,29.86H100.53c.284-.868.543-1.744.786-2.628H6.955q.364,1.326.786,2.628" transform="translate(12.022 47.072)" fill="#fcfcfc"/>
        <path id="Path_498" data-name="Path 498" d="M6.915,23.248c0-.909.022-1.812.06-2.709H4.263q-.057,1.347-.057,2.709,0,2.038.134,4.038H7.049q-.135-2-.134-4.038" transform="translate(7.27 35.503)" fill="#e31010"/>
        <path id="Path_499" data-name="Path 499" d="M10.621,23.248q0-1.363.063-2.709H5.262Q5.2,21.886,5.2,23.248q0,2.038.136,4.038H10.76q-.139-2-.139-4.038" transform="translate(8.987 35.503)" fill="#e75cee"/>
        <path id="Path_500" data-name="Path 500" d="M9.9,23.248q0-1.363.063-2.709H7.248q-.061,1.347-.063,2.709c0,1.359.049,2.7.139,4.038h2.709q-.135-2-.136-4.038" transform="translate(12.419 35.503)" fill="#fcfc53"/>
        <path id="Path_501" data-name="Path 501" d="M53.318,23.248q0,2.038-.139,4.038h2.712q.135-2,.136-4.038,0-1.363-.06-2.709H53.255q.061,1.347.063,2.709" transform="translate(91.921 35.503)" fill="#195ff5"/>
        <path id="Path_502" data-name="Path 502" d="M51.329,23.248q0,2.038-.136,4.038h5.422q.135-2,.136-4.038,0-1.363-.063-2.709H51.267q.061,1.347.063,2.709" transform="translate(88.488 35.503)" fill="#19f5ee"/>
        <path id="Path_503" data-name="Path 503" d="M13.6,23.248q0-1.363.063-2.709H8.242q-.061,1.347-.063,2.709,0,2.038.136,4.038H13.74q-.139-2-.139-4.038" transform="translate(14.138 35.503)" fill="#fcfcfc"/>
        <path id="Path_504" data-name="Path 504" d="M12.878,23.248q0-1.363.063-2.709H10.229q-.061,1.347-.063,2.709c0,1.359.049,2.7.139,4.038h2.709q-.135-2-.136-4.038" transform="translate(17.572 35.503)" fill="#fcfcfc"/>
        <path id="Path_505" data-name="Path 505" d="M50.335,23.248q0,2.038-.136,4.038h2.709q.135-2,.136-4.038,0-1.363-.06-2.709H50.273q.061,1.347.063,2.709" transform="translate(86.77 35.503)" fill="#fcfcfc"/>
        <path id="Path_506" data-name="Path 506" d="M48.35,23.248q0,2.038-.139,4.038h5.424q.135-2,.136-4.038,0-1.363-.063-2.709H48.287q.061,1.347.063,2.709" transform="translate(83.334 35.503)" fill="#fcfcfc"/>
        <path id="Path_507" data-name="Path 507" d="M47.355,23.248q0,2.038-.136,4.038h2.709c.09-1.334.139-2.679.139-4.038q0-1.363-.063-2.709H47.293q.061,1.347.063,2.709" transform="translate(81.619 35.503)" fill="#fcfcfc"/>
        <path id="Path_508" data-name="Path 508" d="M11.16,23.248q0,2.038.136,4.038h98.248q.139-2,.139-4.038,0-1.363-.063-2.709h-98.4q-.061,1.347-.063,2.709" transform="translate(19.29 35.503)" fill="#fcfcfc"/>
        <path id="Path_509" data-name="Path 509" d="M7.96,34.068H5.248q.63.876,1.288,1.727H9.245c-.437-.568-.868-1.143-1.285-1.727" transform="translate(9.071 58.888)" fill="#e31010"/>
        <path id="Path_510" data-name="Path 510" d="M11.664,34.068H6.242c.417.584.849,1.16,1.285,1.727h5.424c-.439-.568-.87-1.143-1.288-1.727" transform="translate(10.789 58.888)" fill="#e75cee"/>
        <path id="Path_511" data-name="Path 511" d="M10.941,34.068H8.229q.63.876,1.288,1.727h2.709c-.437-.568-.868-1.143-1.285-1.727" transform="translate(14.224 58.888)" fill="#fcfc53"/>
        <path id="Path_512" data-name="Path 512" d="M45.754,35.8h2.712c.437-.568.868-1.143,1.285-1.727H47.039q-.626.876-1.285,1.727" transform="translate(79.087 58.888)" fill="#195ff5"/>
        <path id="Path_513" data-name="Path 513" d="M43.767,35.8h5.422q.659-.851,1.288-1.727H45.052q-.626.876-1.285,1.727" transform="translate(75.652 58.888)" fill="#19f5ee"/>
        <path id="Path_514" data-name="Path 514" d="M14.645,34.068H9.223c.417.584.849,1.16,1.285,1.727H15.93c-.437-.568-.868-1.143-1.285-1.727" transform="translate(15.942 58.888)" fill="#fcfcfc"/>
        <path id="Path_515" data-name="Path 515" d="M13.919,34.068H11.21q.626.876,1.285,1.727h2.712c-.439-.568-.87-1.143-1.288-1.727" transform="translate(19.377 58.888)" fill="#fcfcfc"/>
        <path id="Path_516" data-name="Path 516" d="M42.773,35.8h2.712c.437-.568.868-1.143,1.285-1.727H44.061q-.63.876-1.288,1.727" transform="translate(73.934 58.888)" fill="#fcfcfc"/>
        <path id="Path_517" data-name="Path 517" d="M40.786,35.8h5.422q.659-.851,1.288-1.727H42.074q-.63.876-1.288,1.727" transform="translate(70.499 58.888)" fill="#fcfcfc"/>
        <path id="Path_518" data-name="Path 518" d="M39.792,35.8H42.5q.663-.851,1.288-1.727H41.08q-.63.876-1.288,1.727" transform="translate(68.781 58.888)" fill="#fcfcfc"/>
        <path id="Path_519" data-name="Path 519" d="M13.491,35.8H87.48c.439-.568.87-1.143,1.288-1.727H12.2q.63.876,1.288,1.727" transform="translate(21.093 58.888)" fill="#fcfcfc"/>
        <path id="Path_520" data-name="Path 520" d="M15.573,3.867H12.861q-1.969,1.375-3.82,2.906h2.712q1.846-1.527,3.82-2.906" transform="translate(15.628 6.685)" fill="#e31010"/>
        <path id="Path_521" data-name="Path 521" d="M19.276,3.867H13.855q-1.973,1.375-3.82,2.906h5.422q1.846-1.527,3.82-2.906" transform="translate(17.346 6.685)" fill="#e75cee"/>
        <path id="Path_522" data-name="Path 522" d="M18.553,3.867H15.844q-1.973,1.375-3.823,2.906h2.712q1.846-1.527,3.82-2.906" transform="translate(20.779 6.685)" fill="#fcfc53"/>
        <path id="Path_523" data-name="Path 523" d="M44.852,6.774h2.712q-1.85-1.531-3.823-2.906H41.032Q43,5.243,44.852,6.774" transform="translate(70.925 6.687)" fill="#195ff5"/>
        <path id="Path_524" data-name="Path 524" d="M42.865,6.774h5.422q-1.846-1.531-3.82-2.906H39.045q1.969,1.375,3.82,2.906" transform="translate(67.49 6.687)" fill="#19f5ee"/>
        <path id="Path_525" data-name="Path 525" d="M22.257,3.867H16.836q-1.973,1.375-3.82,2.906h5.422q1.846-1.527,3.82-2.906" transform="translate(22.498 6.685)" fill="#fcfcfc"/>
        <path id="Path_526" data-name="Path 526" d="M17.714,6.774q1.85-1.531,3.82-2.906H18.825Q16.852,5.243,15,6.774Z" transform="translate(25.931 6.687)" fill="#fcfcfc"/>
        <path id="Path_527" data-name="Path 527" d="M41.872,6.774h2.709q-1.846-1.531-3.82-2.906H38.052q1.969,1.375,3.82,2.906" transform="translate(65.774 6.687)" fill="#fcfcfc"/>
        <path id="Path_528" data-name="Path 528" d="M45.306,6.774q-1.85-1.531-3.82-2.906H36.065q1.969,1.375,3.82,2.906Z" transform="translate(62.339 6.687)" fill="#fcfcfc"/>
        <path id="Path_529" data-name="Path 529" d="M38.891,6.774H41.6q-1.846-1.531-3.82-2.906H35.071q1.969,1.375,3.82,2.906" transform="translate(60.621 6.687)" fill="#fcfcfc"/>
        <path id="Path_530" data-name="Path 530" d="M68.042,3.867H19.816Q17.847,5.242,16,6.773H71.862q-1.846-1.527-3.82-2.906" transform="translate(27.649 6.685)" fill="#fcfcfc"/>
        <path id="Path_531" data-name="Path 531" d="M10.279,29.12H7.567c.243.644.5,1.28.761,1.913h2.709c-.262-.633-.516-1.269-.759-1.913" transform="translate(13.08 50.335)" fill="#e31010"/>
        <path id="Path_532" data-name="Path 532" d="M13.983,29.12H8.561c.243.644.5,1.28.759,1.913h5.422c-.262-.633-.516-1.269-.759-1.913" transform="translate(14.798 50.335)" fill="#e75cee"/>
        <path id="Path_533" data-name="Path 533" d="M13.26,29.12H10.548c.243.644.5,1.28.761,1.913h2.709c-.262-.633-.516-1.269-.759-1.913" transform="translate(18.232 50.335)" fill="#fcfc53"/>
        <path id="Path_534" data-name="Path 534" d="M53.563,31.033h2.712c.262-.633.516-1.269.759-1.913H54.322c-.24.644-.494,1.28-.759,1.913" transform="translate(92.585 50.335)" fill="#195ff5"/>
        <path id="Path_535" data-name="Path 535" d="M51.576,31.033H57c.265-.633.518-1.269.761-1.913H52.335c-.24.644-.494,1.28-.759,1.913" transform="translate(89.15 50.335)" fill="#19f5ee"/>
        <path id="Path_536" data-name="Path 536" d="M16.964,29.12H11.542c.243.644.494,1.28.759,1.913h5.422c-.262-.633-.516-1.269-.759-1.913" transform="translate(19.951 50.335)" fill="#fcfcfc"/>
        <path id="Path_537" data-name="Path 537" d="M16.239,29.12H13.53c.237.644.491,1.28.756,1.913H17c-.262-.633-.516-1.269-.756-1.913" transform="translate(23.387 50.335)" fill="#fcfcfc"/>
        <path id="Path_538" data-name="Path 538" d="M50.583,31.033h2.709c.262-.633.516-1.269.759-1.913H51.342c-.243.644-.5,1.28-.759,1.913" transform="translate(87.434 50.335)" fill="#fcfcfc"/>
        <path id="Path_539" data-name="Path 539" d="M48.595,31.033h5.422c.265-.633.518-1.269.761-1.913H49.354c-.24.644-.494,1.28-.759,1.913" transform="translate(83.997 50.335)" fill="#fcfcfc"/>
        <path id="Path_540" data-name="Path 540" d="M47.6,31.033h2.709c.265-.633.518-1.269.761-1.913H48.361c-.243.644-.494,1.28-.759,1.913" transform="translate(82.281 50.335)" fill="#fcfcfc"/>
        <path id="Path_541" data-name="Path 541" d="M15.282,31.033h89.5c.265-.633.518-1.269.759-1.913H14.523c.243.644.494,1.28.759,1.913" transform="translate(25.103 50.335)" fill="#fcfcfc"/>
        <path id="Path_542" data-name="Path 542" d="M17.475,37.029H14.763a58.944,58.944,0,0,0,7.918,6.417h2.712a58.944,58.944,0,0,1-7.918-6.417" transform="translate(25.518 64.006)" fill="#e31010"/>
        <path id="Path_543" data-name="Path 543" d="M21.179,37.029H15.757a59.091,59.091,0,0,0,7.915,6.417H29.1a58.944,58.944,0,0,1-7.918-6.417" transform="translate(27.236 64.006)" fill="#e75cee"/>
        <path id="Path_544" data-name="Path 544" d="M20.455,37.029H17.743a59.116,59.116,0,0,0,7.918,6.417h2.712a58.944,58.944,0,0,1-7.918-6.417" transform="translate(30.669 64.006)" fill="#fcfc53"/>
        <path id="Path_545" data-name="Path 545" d="M47.719,43.446h2.712a59.132,59.132,0,0,0,7.915-6.417H55.637a59.33,59.33,0,0,1-7.918,6.417" transform="translate(82.483 64.006)" fill="#195ff5"/>
        <path id="Path_546" data-name="Path 546" d="M45.732,43.446h5.422a59.157,59.157,0,0,0,7.918-6.417H53.65a59.157,59.157,0,0,1-7.918,6.417" transform="translate(79.049 64.006)" fill="#19f5ee"/>
        <path id="Path_547" data-name="Path 547" d="M18.737,37.029a58.944,58.944,0,0,0,7.918,6.417h5.422a58.944,58.944,0,0,1-7.918-6.417Z" transform="translate(32.387 64.006)" fill="#fcfcfc"/>
        <path id="Path_548" data-name="Path 548" d="M23.434,37.029H20.725a58.919,58.919,0,0,0,7.915,6.417h2.712a58.944,58.944,0,0,1-7.918-6.417" transform="translate(35.824 64.006)" fill="#fcfcfc"/>
        <path id="Path_549" data-name="Path 549" d="M44.738,43.446H47.45a59.131,59.131,0,0,0,7.915-6.417H52.656a59.157,59.157,0,0,1-7.918,6.417" transform="translate(77.33 64.006)" fill="#fcfcfc"/>
        <path id="Path_550" data-name="Path 550" d="M42.751,43.446h5.422a59.157,59.157,0,0,0,7.918-6.417H50.669a59.157,59.157,0,0,1-7.918,6.417" transform="translate(73.896 64.006)" fill="#fcfcfc"/>
        <path id="Path_551" data-name="Path 551" d="M49.675,37.029a58.943,58.943,0,0,1-7.918,6.417h2.712a58.944,58.944,0,0,0,7.918-6.417Z" transform="translate(72.178 64.006)" fill="#fcfcfc"/>
        <path id="Path_552" data-name="Path 552" d="M29.636,43.446H76.4a59.131,59.131,0,0,0,7.915-6.417H21.718a59.157,59.157,0,0,0,7.918,6.417" transform="translate(37.54 64.006)" fill="#fcfcfc"/>
        <path id="Path_553" data-name="Path 553" d="M15.2,18.618H12.486c-.079.6-.153,1.2-.216,1.812h2.712q.094-.913.216-1.812" transform="translate(21.209 32.182)" fill="#e31010"/>
        <path id="Path_554" data-name="Path 554" d="M18.9,18.618H13.481q-.123.9-.218,1.812h5.422c.065-.608.136-1.211.218-1.812" transform="translate(22.925 32.182)" fill="#e75cee"/>
        <path id="Path_555" data-name="Path 555" d="M18.178,18.618H15.468q-.123.9-.218,1.812h2.712q.094-.913.216-1.812" transform="translate(26.36 32.182)" fill="#fcfc53"/>
        <path id="Path_556" data-name="Path 556" d="M61.2,20.43h2.712q-.094-.909-.218-1.812H60.983c.079.6.153,1.206.216,1.812" transform="translate(105.41 32.182)" fill="#195ff5"/>
        <path id="Path_557" data-name="Path 557" d="M59.212,20.43h5.422c-.063-.606-.136-1.209-.216-1.812H59c.079.6.153,1.206.216,1.812" transform="translate(101.976 32.182)" fill="#19f5ee"/>
        <path id="Path_558" data-name="Path 558" d="M21.884,18.618H16.462q-.123.9-.218,1.812h5.424q.094-.913.216-1.812" transform="translate(28.078 32.182)" fill="#fcfcfc"/>
        <path id="Path_559" data-name="Path 559" d="M21.159,18.618H18.447c-.079.6-.153,1.2-.216,1.812h2.712q.094-.913.216-1.812" transform="translate(31.513 32.182)" fill="#fcfcfc"/>
        <path id="Path_560" data-name="Path 560" d="M58.22,20.43h2.707q-.094-.909-.216-1.812H58q.119.9.218,1.812" transform="translate(100.257 32.182)" fill="#fcfcfc"/>
        <path id="Path_561" data-name="Path 561" d="M56.231,20.43h5.422c-.063-.606-.136-1.209-.216-1.812H56.015c.079.6.153,1.206.216,1.812" transform="translate(96.823 32.182)" fill="#fcfcfc"/>
        <path id="Path_562" data-name="Path 562" d="M55.238,20.43h2.709q-.094-.909-.216-1.812H55.022c.079.6.153,1.206.216,1.812" transform="translate(95.106 32.182)" fill="#fcfcfc"/>
        <path id="Path_563" data-name="Path 563" d="M19.225,20.43h97.888c-.063-.606-.136-1.209-.216-1.812H19.441c-.079.6-.153,1.206-.216,1.812" transform="translate(33.231 32.182)" fill="#fcfcfc"/>
        <path id="Path_564" data-name="Path 564" d="M17.77,40.767H15.058a58.728,58.728,0,0,0,5.719,2.51h2.712a58.439,58.439,0,0,1-5.719-2.51" transform="translate(26.028 70.467)" fill="#e31010"/>
        <path id="Path_565" data-name="Path 565" d="M16.052,40.767a58.439,58.439,0,0,0,5.719,2.51h5.422a58.439,58.439,0,0,1-5.719-2.51Z" transform="translate(27.746 70.467)" fill="#e75cee"/>
        <path id="Path_566" data-name="Path 566" d="M20.75,40.767H18.038a58.438,58.438,0,0,0,5.719,2.51h2.712a58.439,58.439,0,0,1-5.719-2.51" transform="translate(31.179 70.467)" fill="#fcfc53"/>
        <path id="Path_567" data-name="Path 567" d="M38.294,43.278h2.712a58.681,58.681,0,0,0,5.716-2.51H44.013a58.727,58.727,0,0,1-5.719,2.51" transform="translate(66.192 70.469)" fill="#195ff5"/>
        <path id="Path_568" data-name="Path 568" d="M36.307,43.278h5.422a58.438,58.438,0,0,0,5.719-2.51H42.026a58.727,58.727,0,0,1-5.719,2.51" transform="translate(62.757 70.469)" fill="#19f5ee"/>
        <path id="Path_569" data-name="Path 569" d="M19.032,40.767a58.439,58.439,0,0,0,5.719,2.51h5.422a58.439,58.439,0,0,1-5.719-2.51Z" transform="translate(32.897 70.467)" fill="#fcfcfc"/>
        <path id="Path_570" data-name="Path 570" d="M23.729,40.767H21.02a58.391,58.391,0,0,0,5.716,2.51h2.712a58.438,58.438,0,0,1-5.719-2.51" transform="translate(36.333 70.467)" fill="#fcfcfc"/>
        <path id="Path_571" data-name="Path 571" d="M41.032,40.767a58.439,58.439,0,0,1-5.719,2.51h2.712a58.391,58.391,0,0,0,5.716-2.51Z" transform="translate(61.039 70.467)" fill="#fcfcfc"/>
        <path id="Path_572" data-name="Path 572" d="M33.326,43.278h5.422a58.776,58.776,0,0,0,5.722-2.51H39.045a58.439,58.439,0,0,1-5.719,2.51" transform="translate(57.605 70.469)" fill="#fcfcfc"/>
        <path id="Path_573" data-name="Path 573" d="M38.052,40.767a58.728,58.728,0,0,1-5.719,2.51h2.709a58.776,58.776,0,0,0,5.722-2.51Z" transform="translate(55.888 70.467)" fill="#fcfcfc"/>
        <path id="Path_574" data-name="Path 574" d="M27.731,43.278H50.173a58.681,58.681,0,0,0,5.716-2.51H22.012a58.728,58.728,0,0,0,5.719,2.51" transform="translate(38.048 70.469)" fill="#fcfcfc"/>
        <path id="Path_575" data-name="Path 575" d="M30.21.744H27.5q-2.754.745-5.4,1.746H24.81q2.644-1,5.4-1.746" transform="translate(38.202 1.287)" fill="#e31010"/>
        <path id="Path_576" data-name="Path 576" d="M33.916.744H28.495q-2.754.745-5.4,1.746h5.422q2.644-1,5.4-1.746" transform="translate(39.92 1.287)" fill="#e75cee"/>
        <path id="Path_577" data-name="Path 577" d="M27.794,2.49q2.64-1,5.4-1.746H30.482q-2.754.745-5.4,1.746Z" transform="translate(43.355 1.287)" fill="#fcfc53"/>
        <path id="Path_578" data-name="Path 578" d="M46.7,2.49h2.712q-2.644-1-5.4-1.746H41.3q2.759.745,5.4,1.746" transform="translate(71.393 1.287)" fill="#195ff5"/>
        <path id="Path_579" data-name="Path 579" d="M50.137,2.49q-2.64-1-5.4-1.746H39.316q2.759.745,5.4,1.746Z" transform="translate(67.958 1.287)" fill="#19f5ee"/>
        <path id="Path_580" data-name="Path 580" d="M36.9.744H31.475q-2.754.745-5.4,1.746H31.5q2.644-1,5.4-1.746" transform="translate(45.071 1.287)" fill="#fcfcfc"/>
        <path id="Path_581" data-name="Path 581" d="M30.774,2.49q2.64-1,5.4-1.746H33.462q-2.754.745-5.4,1.746Z" transform="translate(48.506 1.287)" fill="#fcfcfc"/>
        <path id="Path_582" data-name="Path 582" d="M43.722,2.49h2.712q-2.644-1-5.4-1.746H38.322q2.759.745,5.4,1.746" transform="translate(66.24 1.287)" fill="#fcfcfc"/>
        <path id="Path_583" data-name="Path 583" d="M47.156,2.49q-2.64-1-5.4-1.746H36.335q2.759.745,5.4,1.746Z" transform="translate(62.806 1.287)" fill="#fcfcfc"/>
        <path id="Path_584" data-name="Path 584" d="M40.742,2.49h2.709q-2.64-1-5.4-1.746H35.342q2.759.745,5.4,1.746" transform="translate(61.089 1.287)" fill="#fcfcfc"/>
        <path id="Path_585" data-name="Path 585" d="M46.207.744H34.456q-2.759.745-5.4,1.746H51.607q-2.644-1-5.4-1.746" transform="translate(50.224 1.287)" fill="#fcfcfc"/>
      </g>
    </g>
    <path id="Path_656" data-name="Path 656" d="M8,0V-10h2V0ZM22,2h2V4H2V2H16V-4h2V2h4ZM18-4v-6h2v6Zm4-10h2v2H2v-2H12v-4h2v4h8ZM42.4,4V-18h10V2h-6V0h4V-16h-6V4Zm-4,0V0h2V4Zm-6,0h-2V-18h10V-4h-2V0h-2V2h-2V0h2V-4h-4V2h2V4Zm4-10h2v-4h-6v4h4Zm0-6h2v-4h-6v4h4ZM22,40V36h2v4ZM6,40V36H2V34H6V32H2V30H4V26H2V24H6V22H2V20H6V18H8v2h4v2H8v2h6V18H24v4H22V20H16v4h8v8H22v4H20v2H16v2H12V38h4V36h4V32h2V26H16v8H14V32H8v2h4v2H8v4Zm14-8H18V28h2v4ZM8,30h2V26H6v4Zm6,0V26H12v4ZM50.4,40h-12V34h-4v2h-4V34h4V32h4V30h4V28h2v2h8V40Zm-2-2h2V32h-10v6h8Zm-4-10V26h2v2Zm-2,0h-2V26h2Zm4-2V24h2v2Zm-6,0h-2V24h2Zm-6-2h2v2h-4V24Zm14,0V22h-10v2h-2V22h2V20h2V18h2v2h8v4Z" transform="translate(1784 979)" fill="#232323" stroke="#232323" stroke-width="1"/>
  </g>
</svg>
