<svg xmlns="http://www.w3.org/2000/svg" xmlns:xlink="http://www.w3.org/1999/xlink" width="427.228" height="419.345" viewBox="0 0 427.228 419.345">
  <defs>
    <clipPath id="clip-path">
      <rect id="Rectangle_311" data-name="Rectangle 311" width="297.794" height="296.614" fill="none" stroke="#7e2c47" stroke-width="2"/>
    </clipPath>
    <clipPath id="clip-path-2">
      <rect id="Rectangle_311-2" data-name="Rectangle 311" width="297.794" height="296.614" fill="none" stroke="#c1e951" stroke-width="2"/>
    </clipPath>
    <clipPath id="clip-path-3">
      <rect id="Rectangle_311-3" data-name="Rectangle 311" width="297.794" height="296.614" fill="none" stroke="#30d2a0" stroke-width="2"/>
    </clipPath>
  </defs>
  <g id="耳機" transform="translate(-72.772 -154.328)">
    <g id="耳機-2" data-name="耳機" transform="matrix(0.656, 0.755, -0.755, 0.656, 296.629, 154.328)">
      <g id="Group_551" data-name="Group 551" clip-path="url(#clip-path)">
        <path id="Path_284" data-name="Path 284" d="M83.453,397.33c14.048,10.629,25.886,11.007,38.325,5.635L69.734,282.45c-11.591,5.005-22.2,16.94-22.175,31.762Z" transform="translate(-18.819 -111.763)" fill="none" stroke="#7e2c47" stroke-linecap="round" stroke-linejoin="round" stroke-width="2"/>
        <path id="Path_285" data-name="Path 285" d="M38.921,342.6c-7.885,3.405-6.9,23.253,2.2,44.331s22.874,35.406,30.759,32l4.578-1.977L43.5,340.624Z" transform="translate(-13.294 -134.782)" fill="none" stroke="#7e2c47" stroke-linecap="round" stroke-linejoin="round" stroke-width="2"/>
        <line id="Line_1" data-name="Line 1" x2="44.254" y2="102.477" transform="translate(31.479 189.657)" fill="none" stroke="#7e2c47" stroke-linecap="round" stroke-linejoin="round" stroke-width="2"/>
        <line id="Line_2" data-name="Line 2" x2="51.804" y2="119.961" transform="translate(46.417 173.014)" fill="none" stroke="#7e2c47" stroke-linecap="round" stroke-linejoin="round" stroke-width="2"/>
        <path id="Path_286" data-name="Path 286" d="M94.069,276.156l-.022.012h0L84.7,280.2l51.5,119.258,9.343-4.035h0l.024-.008a11.9,11.9,0,0,0,6.21-15.649l-42.062-97.4A11.9,11.9,0,0,0,94.069,276.156Z" transform="translate(-33.516 -108.886)" fill="none" stroke="#7e2c47" stroke-linecap="round" stroke-linejoin="round" stroke-width="2"/>
        <path id="Path_287" data-name="Path 287" d="M34.247,329.114l-6.768-15.671A7.488,7.488,0,1,1,41.228,307.5l.881,2.04" transform="translate(-10.63 -119.888)" fill="none" stroke="#7e2c47" stroke-linecap="round" stroke-linejoin="round" stroke-width="2"/>
        <path id="Path_288" data-name="Path 288" d="M41.189,139.869c-13.627,29.739-11.6,65.625,1.224,101.273" transform="translate(-12.601 -55.345)" fill="none" stroke="#7e2c47" stroke-linecap="round" stroke-linejoin="round" stroke-width="2"/>
        <path id="Path_289" data-name="Path 289" d="M24.057,135.088c-11.012,24.211-11.475,72.2.978,103.3" transform="translate(-6.23 -53.453)" fill="none" stroke="#7e2c47" stroke-linecap="round" stroke-linejoin="round" stroke-width="2"/>
        <path id="Path_290" data-name="Path 290" d="M426.893,253.25c-1.9,17.514-9.736,26.39-22.175,31.762L352.674,164.5c11.591-5.006,27.555-4.547,38.325,5.635Z" transform="translate(-139.55 -63.859)" fill="none" stroke="#7e2c47" stroke-linecap="round" stroke-linejoin="round" stroke-width="2"/>
        <path id="Path_291" data-name="Path 291" d="M423.1,177.874c7.885-3.405,21.656,10.922,30.759,32s10.09,40.927,2.205,44.331l-4.579,1.977-32.964-76.332Z" transform="translate(-165.604 -70.185)" fill="none" stroke="#7e2c47" stroke-linecap="round" stroke-linejoin="round" stroke-width="2"/>
        <line id="Line_3" data-name="Line 3" x2="44.254" y2="102.477" transform="translate(240.259 99.496)" fill="none" stroke="#7e2c47" stroke-linecap="round" stroke-linejoin="round" stroke-width="2"/>
        <line id="Line_4" data-name="Line 4" x2="51.804" y2="119.961" transform="translate(217.902 98.959)" fill="none" stroke="#7e2c47" stroke-linecap="round" stroke-linejoin="round" stroke-width="2"/>
        <path id="Path_292" data-name="Path 292" d="M332.917,171.619l.024-.008v0l9.343-4.034,51.5,119.258-9.343,4.034h0l-.022.012a11.9,11.9,0,0,1-15.649-6.209l-42.062-97.4A11.9,11.9,0,0,1,332.917,171.619Z" transform="translate(-128.889 -66.308)" fill="none" stroke="#7e2c47" stroke-linecap="round" stroke-linejoin="round" stroke-width="2"/>
        <path id="Path_293" data-name="Path 293" d="M416.233,164.154l-6.768-15.671a7.488,7.488,0,1,0-13.749,5.937l.881,2.04" transform="translate(-156.338 -56.964)" fill="none" stroke="#7e2c47" stroke-linecap="round" stroke-linejoin="round" stroke-width="2"/>
        <path id="Path_294" data-name="Path 294" d="M253.415,91.124c-30.527-70.688-96-108.8-172.584-75.732S-12.9,122.26,17.627,192.948" transform="translate(-1.319 -1.319)" fill="none" stroke="#7e2c47" stroke-linecap="round" stroke-linejoin="round" stroke-width="2"/>
        <path id="Path_295" data-name="Path 295" d="M274.217,41.88c30.991,10.471,55.723,36.554,72.881,70.329" transform="translate(-108.506 -16.572)" fill="none" stroke="#7e2c47" stroke-linecap="round" stroke-linejoin="round" stroke-width="2"/>
        <path id="Path_296" data-name="Path 296" d="M93.87,26.056C48.953,45.453,33.269,76.712,29.5,87.4c0,0,5.635,5.282,16.179,1.734s18.2-30.671,55.274-46.679,62.066-2.987,71.878-8.231,9.83-12.967,9.83-12.967C172.3,16.675,138.787,6.658,93.87,26.056Z" transform="translate(-11.672 -5.762)" fill="none" stroke="#7e2c47" stroke-linecap="round" stroke-linejoin="round" stroke-width="2"/>
        <path id="Path_297" data-name="Path 297" d="M282.948,25.638c25.175,8.584,60.421,41.148,74.527,71.542" transform="translate(-111.96 -10.145)" fill="none" stroke="#7e2c47" stroke-linecap="round" stroke-linejoin="round" stroke-width="2"/>
        <path id="Path_298" data-name="Path 298" d="M346.067,440.6a6.912,6.912,0,0,1-3.605,9.086l-34,14.682a6.913,6.913,0,0,1-5.481-12.692l34-14.681A6.912,6.912,0,0,1,346.067,440.6Z" transform="translate(-118.237 -172.689)" fill="none" stroke="#7e2c47" stroke-linecap="round" stroke-linejoin="round" stroke-width="2"/>
        <path id="Path_299" data-name="Path 299" d="M320.037,472.573a4.937,4.937,0,0,0,6.49,2.576l18.586-8.026a4.938,4.938,0,0,0,2.575-6.491Z" transform="translate(-126.636 -182.269)" fill="none" stroke="#7e2c47" stroke-linecap="round" stroke-linejoin="round" stroke-width="2"/>
        <path id="Path_300" data-name="Path 300" d="M424.714,350.7a23.454,23.454,0,0,1-.965,15.267c-7.668,18.987-37.258,31.341-46.979,35.4-.767.321-1.417.592-1.928.813l-.534.23a6.89,6.89,0,0,1,2.2,5.089l.534-.231c.495-.213,1.123-.476,1.865-.786,1.107-.462,2.458-1.026,4-1.691,12.726-5.495,38.372-17.894,45.985-36.747a29.547,29.547,0,0,0,.05-22.272A30.435,30.435,0,0,1,424.714,350.7Z" transform="translate(-148.111 -136.821)" fill="none" stroke="#7e2c47" stroke-linecap="round" stroke-linejoin="round" stroke-width="2"/>
      </g>
    </g>
    <g id="耳機-3" data-name="耳機" transform="matrix(0.656, 0.755, -0.755, 0.656, 300.629, 154.328)">
      <g id="Group_551-2" data-name="Group 551" clip-path="url(#clip-path-2)">
        <path id="Path_284-2" data-name="Path 284" d="M83.453,397.33c14.048,10.629,25.886,11.007,38.325,5.635L69.734,282.45c-11.591,5.005-22.2,16.94-22.175,31.762Z" transform="translate(-18.819 -111.763)" fill="none" stroke="#c1e951" stroke-linecap="round" stroke-linejoin="round" stroke-width="2"/>
        <path id="Path_285-2" data-name="Path 285" d="M38.921,342.6c-7.885,3.405-6.9,23.253,2.2,44.331s22.874,35.406,30.759,32l4.578-1.977L43.5,340.624Z" transform="translate(-13.294 -134.782)" fill="none" stroke="#c1e951" stroke-linecap="round" stroke-linejoin="round" stroke-width="2"/>
        <line id="Line_1-2" data-name="Line 1" x2="44.254" y2="102.477" transform="translate(31.479 189.657)" fill="none" stroke="#c1e951" stroke-linecap="round" stroke-linejoin="round" stroke-width="2"/>
        <line id="Line_2-2" data-name="Line 2" x2="51.804" y2="119.961" transform="translate(46.417 173.014)" fill="none" stroke="#c1e951" stroke-linecap="round" stroke-linejoin="round" stroke-width="2"/>
        <path id="Path_286-2" data-name="Path 286" d="M94.069,276.156l-.022.012h0L84.7,280.2l51.5,119.258,9.343-4.035h0l.024-.008a11.9,11.9,0,0,0,6.21-15.649l-42.062-97.4A11.9,11.9,0,0,0,94.069,276.156Z" transform="translate(-33.516 -108.886)" fill="none" stroke="#c1e951" stroke-linecap="round" stroke-linejoin="round" stroke-width="2"/>
        <path id="Path_287-2" data-name="Path 287" d="M34.247,329.114l-6.768-15.671A7.488,7.488,0,1,1,41.228,307.5l.881,2.04" transform="translate(-10.63 -119.888)" fill="none" stroke="#c1e951" stroke-linecap="round" stroke-linejoin="round" stroke-width="2"/>
        <path id="Path_288-2" data-name="Path 288" d="M41.189,139.869c-13.627,29.739-11.6,65.625,1.224,101.273" transform="translate(-12.601 -55.345)" fill="none" stroke="#c1e951" stroke-linecap="round" stroke-linejoin="round" stroke-width="2"/>
        <path id="Path_289-2" data-name="Path 289" d="M24.057,135.088c-11.012,24.211-11.475,72.2.978,103.3" transform="translate(-6.23 -53.453)" fill="none" stroke="#c1e951" stroke-linecap="round" stroke-linejoin="round" stroke-width="2"/>
        <path id="Path_290-2" data-name="Path 290" d="M426.893,253.25c-1.9,17.514-9.736,26.39-22.175,31.762L352.674,164.5c11.591-5.006,27.555-4.547,38.325,5.635Z" transform="translate(-139.55 -63.859)" fill="none" stroke="#c1e951" stroke-linecap="round" stroke-linejoin="round" stroke-width="2"/>
        <path id="Path_291-2" data-name="Path 291" d="M423.1,177.874c7.885-3.405,21.656,10.922,30.759,32s10.09,40.927,2.205,44.331l-4.579,1.977-32.964-76.332Z" transform="translate(-165.604 -70.185)" fill="none" stroke="#c1e951" stroke-linecap="round" stroke-linejoin="round" stroke-width="2"/>
        <line id="Line_3-2" data-name="Line 3" x2="44.254" y2="102.477" transform="translate(240.259 99.496)" fill="none" stroke="#c1e951" stroke-linecap="round" stroke-linejoin="round" stroke-width="2"/>
        <line id="Line_4-2" data-name="Line 4" x2="51.804" y2="119.961" transform="translate(217.902 98.959)" fill="none" stroke="#c1e951" stroke-linecap="round" stroke-linejoin="round" stroke-width="2"/>
        <path id="Path_292-2" data-name="Path 292" d="M332.917,171.619l.024-.008v0l9.343-4.034,51.5,119.258-9.343,4.034h0l-.022.012a11.9,11.9,0,0,1-15.649-6.209l-42.062-97.4A11.9,11.9,0,0,1,332.917,171.619Z" transform="translate(-128.889 -66.308)" fill="none" stroke="#c1e951" stroke-linecap="round" stroke-linejoin="round" stroke-width="2"/>
        <path id="Path_293-2" data-name="Path 293" d="M416.233,164.154l-6.768-15.671a7.488,7.488,0,1,0-13.749,5.937l.881,2.04" transform="translate(-156.338 -56.964)" fill="none" stroke="#c1e951" stroke-linecap="round" stroke-linejoin="round" stroke-width="2"/>
        <path id="Path_294-2" data-name="Path 294" d="M253.415,91.124c-30.527-70.688-96-108.8-172.584-75.732S-12.9,122.26,17.627,192.948" transform="translate(-1.319 -1.319)" fill="none" stroke="#c1e951" stroke-linecap="round" stroke-linejoin="round" stroke-width="2"/>
        <path id="Path_295-2" data-name="Path 295" d="M274.217,41.88c30.991,10.471,55.723,36.554,72.881,70.329" transform="translate(-108.506 -16.572)" fill="none" stroke="#c1e951" stroke-linecap="round" stroke-linejoin="round" stroke-width="2"/>
        <path id="Path_296-2" data-name="Path 296" d="M93.87,26.056C48.953,45.453,33.269,76.712,29.5,87.4c0,0,5.635,5.282,16.179,1.734s18.2-30.671,55.274-46.679,62.066-2.987,71.878-8.231,9.83-12.967,9.83-12.967C172.3,16.675,138.787,6.658,93.87,26.056Z" transform="translate(-11.672 -5.762)" fill="none" stroke="#c1e951" stroke-linecap="round" stroke-linejoin="round" stroke-width="2"/>
        <path id="Path_297-2" data-name="Path 297" d="M282.948,25.638c25.175,8.584,60.421,41.148,74.527,71.542" transform="translate(-111.96 -10.145)" fill="none" stroke="#c1e951" stroke-linecap="round" stroke-linejoin="round" stroke-width="2"/>
        <path id="Path_298-2" data-name="Path 298" d="M346.067,440.6a6.912,6.912,0,0,1-3.605,9.086l-34,14.682a6.913,6.913,0,0,1-5.481-12.692l34-14.681A6.912,6.912,0,0,1,346.067,440.6Z" transform="translate(-118.237 -172.689)" fill="none" stroke="#c1e951" stroke-linecap="round" stroke-linejoin="round" stroke-width="2"/>
        <path id="Path_299-2" data-name="Path 299" d="M320.037,472.573a4.937,4.937,0,0,0,6.49,2.576l18.586-8.026a4.938,4.938,0,0,0,2.575-6.491Z" transform="translate(-126.636 -182.269)" fill="none" stroke="#c1e951" stroke-linecap="round" stroke-linejoin="round" stroke-width="2"/>
        <path id="Path_300-2" data-name="Path 300" d="M424.714,350.7a23.454,23.454,0,0,1-.965,15.267c-7.668,18.987-37.258,31.341-46.979,35.4-.767.321-1.417.592-1.928.813l-.534.23a6.89,6.89,0,0,1,2.2,5.089l.534-.231c.495-.213,1.123-.476,1.865-.786,1.107-.462,2.458-1.026,4-1.691,12.726-5.495,38.372-17.894,45.985-36.747a29.547,29.547,0,0,0,.05-22.272A30.435,30.435,0,0,1,424.714,350.7Z" transform="translate(-148.111 -136.821)" fill="none" stroke="#c1e951" stroke-linecap="round" stroke-linejoin="round" stroke-width="2"/>
      </g>
    </g>
    <g id="耳機-4" data-name="耳機" transform="matrix(0.656, 0.755, -0.755, 0.656, 304.629, 154.328)">
      <g id="Group_551-3" data-name="Group 551" clip-path="url(#clip-path-3)">
        <path id="Path_284-3" data-name="Path 284" d="M83.453,397.33c14.048,10.629,25.886,11.007,38.325,5.635L69.734,282.45c-11.591,5.005-22.2,16.94-22.175,31.762Z" transform="translate(-18.819 -111.763)" fill="none" stroke="#30d2a0" stroke-linecap="round" stroke-linejoin="round" stroke-width="2"/>
        <path id="Path_285-3" data-name="Path 285" d="M38.921,342.6c-7.885,3.405-6.9,23.253,2.2,44.331s22.874,35.406,30.759,32l4.578-1.977L43.5,340.624Z" transform="translate(-13.294 -134.782)" fill="none" stroke="#30d2a0" stroke-linecap="round" stroke-linejoin="round" stroke-width="2"/>
        <line id="Line_1-3" data-name="Line 1" x2="44.254" y2="102.477" transform="translate(31.479 189.657)" fill="none" stroke="#30d2a0" stroke-linecap="round" stroke-linejoin="round" stroke-width="2"/>
        <line id="Line_2-3" data-name="Line 2" x2="51.804" y2="119.961" transform="translate(46.417 173.014)" fill="none" stroke="#30d2a0" stroke-linecap="round" stroke-linejoin="round" stroke-width="2"/>
        <path id="Path_286-3" data-name="Path 286" d="M94.069,276.156l-.022.012h0L84.7,280.2l51.5,119.258,9.343-4.035h0l.024-.008a11.9,11.9,0,0,0,6.21-15.649l-42.062-97.4A11.9,11.9,0,0,0,94.069,276.156Z" transform="translate(-33.516 -108.886)" fill="none" stroke="#30d2a0" stroke-linecap="round" stroke-linejoin="round" stroke-width="2"/>
        <path id="Path_287-3" data-name="Path 287" d="M34.247,329.114l-6.768-15.671A7.488,7.488,0,1,1,41.228,307.5l.881,2.04" transform="translate(-10.63 -119.888)" fill="none" stroke="#30d2a0" stroke-linecap="round" stroke-linejoin="round" stroke-width="2"/>
        <path id="Path_288-3" data-name="Path 288" d="M41.189,139.869c-13.627,29.739-11.6,65.625,1.224,101.273" transform="translate(-12.601 -55.345)" fill="none" stroke="#30d2a0" stroke-linecap="round" stroke-linejoin="round" stroke-width="2"/>
        <path id="Path_289-3" data-name="Path 289" d="M24.057,135.088c-11.012,24.211-11.475,72.2.978,103.3" transform="translate(-6.23 -53.453)" fill="none" stroke="#30d2a0" stroke-linecap="round" stroke-linejoin="round" stroke-width="2"/>
        <path id="Path_290-3" data-name="Path 290" d="M426.893,253.25c-1.9,17.514-9.736,26.39-22.175,31.762L352.674,164.5c11.591-5.006,27.555-4.547,38.325,5.635Z" transform="translate(-139.55 -63.859)" fill="none" stroke="#30d2a0" stroke-linecap="round" stroke-linejoin="round" stroke-width="2"/>
        <path id="Path_291-3" data-name="Path 291" d="M423.1,177.874c7.885-3.405,21.656,10.922,30.759,32s10.09,40.927,2.205,44.331l-4.579,1.977-32.964-76.332Z" transform="translate(-165.604 -70.185)" fill="none" stroke="#30d2a0" stroke-linecap="round" stroke-linejoin="round" stroke-width="2"/>
        <line id="Line_3-3" data-name="Line 3" x2="44.254" y2="102.477" transform="translate(240.259 99.496)" fill="none" stroke="#30d2a0" stroke-linecap="round" stroke-linejoin="round" stroke-width="2"/>
        <line id="Line_4-3" data-name="Line 4" x2="51.804" y2="119.961" transform="translate(217.902 98.959)" fill="none" stroke="#30d2a0" stroke-linecap="round" stroke-linejoin="round" stroke-width="2"/>
        <path id="Path_292-3" data-name="Path 292" d="M332.917,171.619l.024-.008v0l9.343-4.034,51.5,119.258-9.343,4.034h0l-.022.012a11.9,11.9,0,0,1-15.649-6.209l-42.062-97.4A11.9,11.9,0,0,1,332.917,171.619Z" transform="translate(-128.889 -66.308)" fill="none" stroke="#30d2a0" stroke-linecap="round" stroke-linejoin="round" stroke-width="2"/>
        <path id="Path_293-3" data-name="Path 293" d="M416.233,164.154l-6.768-15.671a7.488,7.488,0,1,0-13.749,5.937l.881,2.04" transform="translate(-156.338 -56.964)" fill="none" stroke="#30d2a0" stroke-linecap="round" stroke-linejoin="round" stroke-width="2"/>
        <path id="Path_294-3" data-name="Path 294" d="M253.415,91.124c-30.527-70.688-96-108.8-172.584-75.732S-12.9,122.26,17.627,192.948" transform="translate(-1.319 -1.319)" fill="none" stroke="#30d2a0" stroke-linecap="round" stroke-linejoin="round" stroke-width="2"/>
        <path id="Path_295-3" data-name="Path 295" d="M274.217,41.88c30.991,10.471,55.723,36.554,72.881,70.329" transform="translate(-108.506 -16.572)" fill="none" stroke="#30d2a0" stroke-linecap="round" stroke-linejoin="round" stroke-width="2"/>
        <path id="Path_296-3" data-name="Path 296" d="M93.87,26.056C48.953,45.453,33.269,76.712,29.5,87.4c0,0,5.635,5.282,16.179,1.734s18.2-30.671,55.274-46.679,62.066-2.987,71.878-8.231,9.83-12.967,9.83-12.967C172.3,16.675,138.787,6.658,93.87,26.056Z" transform="translate(-11.672 -5.762)" fill="none" stroke="#30d2a0" stroke-linecap="round" stroke-linejoin="round" stroke-width="2"/>
        <path id="Path_297-3" data-name="Path 297" d="M282.948,25.638c25.175,8.584,60.421,41.148,74.527,71.542" transform="translate(-111.96 -10.145)" fill="none" stroke="#30d2a0" stroke-linecap="round" stroke-linejoin="round" stroke-width="2"/>
        <path id="Path_298-3" data-name="Path 298" d="M346.067,440.6a6.912,6.912,0,0,1-3.605,9.086l-34,14.682a6.913,6.913,0,0,1-5.481-12.692l34-14.681A6.912,6.912,0,0,1,346.067,440.6Z" transform="translate(-118.237 -172.689)" fill="none" stroke="#30d2a0" stroke-linecap="round" stroke-linejoin="round" stroke-width="2"/>
        <path id="Path_299-3" data-name="Path 299" d="M320.037,472.573a4.937,4.937,0,0,0,6.49,2.576l18.586-8.026a4.938,4.938,0,0,0,2.575-6.491Z" transform="translate(-126.636 -182.269)" fill="none" stroke="#30d2a0" stroke-linecap="round" stroke-linejoin="round" stroke-width="2"/>
        <path id="Path_300-3" data-name="Path 300" d="M424.714,350.7a23.454,23.454,0,0,1-.965,15.267c-7.668,18.987-37.258,31.341-46.979,35.4-.767.321-1.417.592-1.928.813l-.534.23a6.89,6.89,0,0,1,2.2,5.089l.534-.231c.495-.213,1.123-.476,1.865-.786,1.107-.462,2.458-1.026,4-1.691,12.726-5.495,38.372-17.894,45.985-36.747a29.547,29.547,0,0,0,.05-22.272A30.435,30.435,0,0,1,424.714,350.7Z" transform="translate(-148.111 -136.821)" fill="none" stroke="#30d2a0" stroke-linecap="round" stroke-linejoin="round" stroke-width="2"/>
      </g>
    </g>
  </g>
</svg>
