<svg xmlns="http://www.w3.org/2000/svg" xmlns:xlink="http://www.w3.org/1999/xlink" width="348.32" height="404" viewBox="0 0 348.32 404">
  <defs>
    <clipPath id="clip-path">
      <rect id="Rectangle_310" data-name="Rectangle 310" width="341.32" height="404" fill="none" stroke="#8b2d4c" stroke-width="2"/>
    </clipPath>
    <clipPath id="clip-path-2">
      <rect id="Rectangle_310-2" data-name="Rectangle 310" width="341.32" height="404" fill="none" stroke="#c1e951" stroke-width="2"/>
    </clipPath>
    <clipPath id="clip-path-3">
      <rect id="Rectangle_310-3" data-name="Rectangle 310" width="341.32" height="404" fill="none" stroke="#32cf9c" stroke-width="2"/>
    </clipPath>
  </defs>
  <g id="遊戲稈" transform="translate(-1575.68 -121)">
    <g id="遊戲稈-2" data-name="遊戲稈" transform="translate(1582.68 121)">
      <g id="Group_549" data-name="Group 549" clip-path="url(#clip-path)">
        <path id="Path_265" data-name="Path 265" d="M233.585,346.055c-13.675-15.954-62.353-40.185-68.465-36.632l-35.969,20.9c-3.292,1.913-4.168,11.228-7.224,13l-30.8,17.9-30.8,17.9c-3.056,1.776-11.584-2.074-14.875-.161l-35.969,20.9C3.374,403.426.332,457.716,7.425,477.5s46.331,72.141,57.06,81.945,36.469-3.269,35.264-20.495-7.458-60.453,2.886-66.464l39.732-23.091L182.1,426.3c10.344-6.012,44.808,20.819,59.178,30.393s38.471-6.319,35.264-20.495S247.26,362.009,233.585,346.055Z" transform="translate(-1.726 -160.404)" fill="none" stroke="#8b2d4c" stroke-linecap="round" stroke-linejoin="round" stroke-width="2"/>
        <path id="Path_266" data-name="Path 266" d="M183.306,379.472s7.465,22.8,8.263,25.8.72,5.567-3.277,7.89l-20.454,11.887-20.454,11.887c-4,2.323-6.269,1.118-8.477-1.058s-18.323-19.949-18.323-19.949" transform="translate(-62.582 -196.941)" fill="none" stroke="#8b2d4c" stroke-linecap="round" stroke-linejoin="round" stroke-width="2"/>
        <path id="Path_267" data-name="Path 267" d="M209.605,515.269a3.1,3.1,0,0,1-1.142,4.233l-10.158,5.841a3.1,3.1,0,0,1-3.091-5.375l10.157-5.84A3.1,3.1,0,0,1,209.605,515.269Z" transform="translate(-100.507 -266.611)" fill="none" stroke="#8b2d4c" stroke-linecap="round" stroke-linejoin="round" stroke-width="2"/>
        <path id="Path_268" data-name="Path 268" d="M64.652,633.6a3.1,3.1,0,0,1-1.142,4.233l-10.158,5.841a3.1,3.1,0,0,1-3.091-5.375l10.158-5.84A3.1,3.1,0,0,1,64.652,633.6Z" transform="translate(-25.278 -328.025)" fill="none" stroke="#8b2d4c" stroke-linecap="round" stroke-linejoin="round" stroke-width="2"/>
        <path id="Path_269" data-name="Path 269" d="M442.275,415.552a3.1,3.1,0,0,1-1.142,4.233l-10.158,5.84a3.1,3.1,0,0,1-3.091-5.375l10.157-5.84A3.1,3.1,0,0,1,442.275,415.552Z" transform="translate(-221.26 -214.859)" fill="none" stroke="#8b2d4c" stroke-linecap="round" stroke-linejoin="round" stroke-width="2"/>
        <path id="Path_270" data-name="Path 270" d="M252.6,490.543a3.1,3.1,0,0,0,4.233,1.142l10.158-5.841a3.1,3.1,0,0,0-3.091-5.375l-10.157,5.841A3.1,3.1,0,0,0,252.6,490.543Z" transform="translate(-130.884 -249.143)" fill="none" stroke="#8b2d4c" stroke-linecap="round" stroke-linejoin="round" stroke-width="2"/>
        <path id="Path_271" data-name="Path 271" d="M60.032,469.744a3.127,3.127,0,0,1-1.132,4.275l-31.59,18.36a3.127,3.127,0,1,1-3.142-5.407l31.59-18.36A3.127,3.127,0,0,1,60.032,469.744Z" transform="translate(-11.735 -242.984)" fill="none" stroke="#8b2d4c" stroke-linecap="round" stroke-linejoin="round" stroke-width="2"/>
        <path id="Path_272" data-name="Path 272" d="M311.556,323.563a3.127,3.127,0,0,1-1.132,4.275l-31.59,18.36a3.127,3.127,0,1,1-3.142-5.407l31.59-18.36A3.127,3.127,0,0,1,311.556,323.563Z" transform="translate(-142.272 -167.117)" fill="none" stroke="#8b2d4c" stroke-linecap="round" stroke-linejoin="round" stroke-width="2"/>
        <path id="Path_273" data-name="Path 273" d="M159.551,201.413S148.36,182.04,133.993,146.1s3.77-62.006,32.558-58.931,40.98,27.723,70.421,15.917c40.5-16.24,52.307-103.1,171.184-98.144" transform="translate(-66.93 -2.457)" fill="none" stroke="#8b2d4c" stroke-linejoin="round" stroke-width="2"/>
        <path id="Path_274" data-name="Path 274" d="M87,530.756a23.988,23.988,0,1,0-8.284,32.9A23.988,23.988,0,0,0,87,530.756ZM74.648,556.845a16.057,16.057,0,1,1,5.546-22.02A16.057,16.057,0,0,1,74.648,556.845Z" transform="translate(-22.015 -269.391)" fill="none" stroke="#8b2d4c" stroke-linecap="round" stroke-linejoin="round" stroke-width="2"/>
        <path id="Path_275" data-name="Path 275" d="M359.256,373.546a23.988,23.988,0,1,0-8.285,32.9A23.988,23.988,0,0,0,359.256,373.546ZM346.9,399.635a16.057,16.057,0,1,1,5.546-22.02A16.057,16.057,0,0,1,346.9,399.635Z" transform="translate(-163.312 -187.801)" fill="none" stroke="#8b2d4c" stroke-linecap="round" stroke-linejoin="round" stroke-width="2"/>
        <path id="Path_276" data-name="Path 276" d="M140.5,676.189a9.372,9.372,0,1,1-10.538-8.037A9.372,9.372,0,0,1,140.5,676.189Z" transform="translate(-63.233 -346.718)" fill="none" stroke="#8b2d4c" stroke-linecap="round" stroke-linejoin="round" stroke-width="2"/>
        <path id="Path_277" data-name="Path 277" d="M147.652,630.026a9.372,9.372,0,1,1,8.037-10.538A9.372,9.372,0,0,1,147.652,630.026Z" transform="translate(-71.116 -317.291)" fill="none" stroke="#8b2d4c" stroke-linecap="round" stroke-linejoin="round" stroke-width="2"/>
        <path id="Path_278" data-name="Path 278" d="M426.927,510.8a9.372,9.372,0,1,0-1.693-13.145A9.372,9.372,0,0,0,426.927,510.8Z" transform="translate(-219.678 -256.383)" fill="none" stroke="#8b2d4c" stroke-linecap="round" stroke-linejoin="round" stroke-width="2"/>
        <path id="Path_279" data-name="Path 279" d="M383.371,493.915a9.372,9.372,0,1,0-13.145,1.693A9.372,9.372,0,0,0,383.371,493.915Z" transform="translate(-190.251 -248.5)" fill="none" stroke="#8b2d4c" stroke-linecap="round" stroke-linejoin="round" stroke-width="2"/>
        <path id="Path_280" data-name="Path 280" d="M229.41,559.33l11.024-6.366-7.345-12.719-11.024,6.366-1.288,8.963Z" transform="translate(-114.581 -280.38)" fill="none" stroke="#8b2d4c" stroke-linecap="round" stroke-linejoin="round" stroke-width="2"/>
        <path id="Path_281" data-name="Path 281" d="M275.475,516.573l-11.024,6.366,7.345,12.719,11.024-6.366,1.288-8.963Z" transform="translate(-137.247 -268.095)" fill="none" stroke="#8b2d4c" stroke-linecap="round" stroke-linejoin="round" stroke-width="2"/>
        <path id="Path_282" data-name="Path 282" d="M21.782,680.534s16.065.4,18.676,2.74,32.1,43.28,35.335,48.849c2,3.455-1.729,20.1-1.729,20.1" transform="translate(-11.305 -353.189)" fill="none" stroke="#8b2d4c" stroke-linecap="round" stroke-linejoin="round" stroke-width="2"/>
        <path id="Path_283" data-name="Path 283" d="M488.881,406.447s-7.687,14.112-6.963,17.545,21.436,49.44,24.645,55.022c1.99,3.462,18.273,8.551,18.273,8.551" transform="translate(-250.085 -210.941)" fill="none" stroke="#8b2d4c" stroke-linecap="round" stroke-linejoin="round" stroke-width="2"/>
      </g>
    </g>
    <g id="遊戲稈-3" data-name="遊戲稈" transform="translate(1578.68 121)">
      <g id="Group_549-2" data-name="Group 549" clip-path="url(#clip-path-2)">
        <path id="Path_265-2" data-name="Path 265" d="M233.585,346.055c-13.675-15.954-62.353-40.185-68.465-36.632l-35.969,20.9c-3.292,1.913-4.168,11.228-7.224,13l-30.8,17.9-30.8,17.9c-3.056,1.776-11.584-2.074-14.875-.161l-35.969,20.9C3.374,403.426.332,457.716,7.425,477.5s46.331,72.141,57.06,81.945,36.469-3.269,35.264-20.495-7.458-60.453,2.886-66.464l39.732-23.091L182.1,426.3c10.344-6.012,44.808,20.819,59.178,30.393s38.471-6.319,35.264-20.495S247.26,362.009,233.585,346.055Z" transform="translate(-1.726 -160.404)" fill="none" stroke="#c1e951" stroke-linecap="round" stroke-linejoin="round" stroke-width="2"/>
        <path id="Path_266-2" data-name="Path 266" d="M183.306,379.472s7.465,22.8,8.263,25.8.72,5.567-3.277,7.89l-20.454,11.887-20.454,11.887c-4,2.323-6.269,1.118-8.477-1.058s-18.323-19.949-18.323-19.949" transform="translate(-62.582 -196.941)" fill="none" stroke="#c1e951" stroke-linecap="round" stroke-linejoin="round" stroke-width="2"/>
        <path id="Path_267-2" data-name="Path 267" d="M209.605,515.269a3.1,3.1,0,0,1-1.142,4.233l-10.158,5.841a3.1,3.1,0,0,1-3.091-5.375l10.157-5.84A3.1,3.1,0,0,1,209.605,515.269Z" transform="translate(-100.507 -266.611)" fill="none" stroke="#c1e951" stroke-linecap="round" stroke-linejoin="round" stroke-width="2"/>
        <path id="Path_268-2" data-name="Path 268" d="M64.652,633.6a3.1,3.1,0,0,1-1.142,4.233l-10.158,5.841a3.1,3.1,0,0,1-3.091-5.375l10.158-5.84A3.1,3.1,0,0,1,64.652,633.6Z" transform="translate(-25.278 -328.025)" fill="none" stroke="#c1e951" stroke-linecap="round" stroke-linejoin="round" stroke-width="2"/>
        <path id="Path_269-2" data-name="Path 269" d="M442.275,415.552a3.1,3.1,0,0,1-1.142,4.233l-10.158,5.84a3.1,3.1,0,0,1-3.091-5.375l10.157-5.84A3.1,3.1,0,0,1,442.275,415.552Z" transform="translate(-221.26 -214.859)" fill="none" stroke="#c1e951" stroke-linecap="round" stroke-linejoin="round" stroke-width="2"/>
        <path id="Path_270-2" data-name="Path 270" d="M252.6,490.543a3.1,3.1,0,0,0,4.233,1.142l10.158-5.841a3.1,3.1,0,0,0-3.091-5.375l-10.157,5.841A3.1,3.1,0,0,0,252.6,490.543Z" transform="translate(-130.884 -249.143)" fill="none" stroke="#c1e951" stroke-linecap="round" stroke-linejoin="round" stroke-width="2"/>
        <path id="Path_271-2" data-name="Path 271" d="M60.032,469.744a3.127,3.127,0,0,1-1.132,4.275l-31.59,18.36a3.127,3.127,0,1,1-3.142-5.407l31.59-18.36A3.127,3.127,0,0,1,60.032,469.744Z" transform="translate(-11.735 -242.984)" fill="none" stroke="#c1e951" stroke-linecap="round" stroke-linejoin="round" stroke-width="2"/>
        <path id="Path_272-2" data-name="Path 272" d="M311.556,323.563a3.127,3.127,0,0,1-1.132,4.275l-31.59,18.36a3.127,3.127,0,1,1-3.142-5.407l31.59-18.36A3.127,3.127,0,0,1,311.556,323.563Z" transform="translate(-142.272 -167.117)" fill="none" stroke="#c1e951" stroke-linecap="round" stroke-linejoin="round" stroke-width="2"/>
        <path id="Path_273-2" data-name="Path 273" d="M159.551,201.413S148.36,182.04,133.993,146.1s3.77-62.006,32.558-58.931,40.98,27.723,70.421,15.917c40.5-16.24,52.307-103.1,171.184-98.144" transform="translate(-66.93 -2.457)" fill="none" stroke="#c1e951" stroke-linejoin="round" stroke-width="2"/>
        <path id="Path_274-2" data-name="Path 274" d="M87,530.756a23.988,23.988,0,1,0-8.284,32.9A23.988,23.988,0,0,0,87,530.756ZM74.648,556.845a16.057,16.057,0,1,1,5.546-22.02A16.057,16.057,0,0,1,74.648,556.845Z" transform="translate(-22.015 -269.391)" fill="none" stroke="#c1e951" stroke-linecap="round" stroke-linejoin="round" stroke-width="2"/>
        <path id="Path_275-2" data-name="Path 275" d="M359.256,373.546a23.988,23.988,0,1,0-8.285,32.9A23.988,23.988,0,0,0,359.256,373.546ZM346.9,399.635a16.057,16.057,0,1,1,5.546-22.02A16.057,16.057,0,0,1,346.9,399.635Z" transform="translate(-163.312 -187.801)" fill="none" stroke="#c1e951" stroke-linecap="round" stroke-linejoin="round" stroke-width="2"/>
        <path id="Path_276-2" data-name="Path 276" d="M140.5,676.189a9.372,9.372,0,1,1-10.538-8.037A9.372,9.372,0,0,1,140.5,676.189Z" transform="translate(-63.233 -346.718)" fill="none" stroke="#c1e951" stroke-linecap="round" stroke-linejoin="round" stroke-width="2"/>
        <path id="Path_277-2" data-name="Path 277" d="M147.652,630.026a9.372,9.372,0,1,1,8.037-10.538A9.372,9.372,0,0,1,147.652,630.026Z" transform="translate(-71.116 -317.291)" fill="none" stroke="#c1e951" stroke-linecap="round" stroke-linejoin="round" stroke-width="2"/>
        <path id="Path_278-2" data-name="Path 278" d="M426.927,510.8a9.372,9.372,0,1,0-1.693-13.145A9.372,9.372,0,0,0,426.927,510.8Z" transform="translate(-219.678 -256.383)" fill="none" stroke="#c1e951" stroke-linecap="round" stroke-linejoin="round" stroke-width="2"/>
        <path id="Path_279-2" data-name="Path 279" d="M383.371,493.915a9.372,9.372,0,1,0-13.145,1.693A9.372,9.372,0,0,0,383.371,493.915Z" transform="translate(-190.251 -248.5)" fill="none" stroke="#c1e951" stroke-linecap="round" stroke-linejoin="round" stroke-width="2"/>
        <path id="Path_280-2" data-name="Path 280" d="M229.41,559.33l11.024-6.366-7.345-12.719-11.024,6.366-1.288,8.963Z" transform="translate(-114.581 -280.38)" fill="none" stroke="#c1e951" stroke-linecap="round" stroke-linejoin="round" stroke-width="2"/>
        <path id="Path_281-2" data-name="Path 281" d="M275.475,516.573l-11.024,6.366,7.345,12.719,11.024-6.366,1.288-8.963Z" transform="translate(-137.247 -268.095)" fill="none" stroke="#c1e951" stroke-linecap="round" stroke-linejoin="round" stroke-width="2"/>
        <path id="Path_282-2" data-name="Path 282" d="M21.782,680.534s16.065.4,18.676,2.74,32.1,43.28,35.335,48.849c2,3.455-1.729,20.1-1.729,20.1" transform="translate(-11.305 -353.189)" fill="none" stroke="#c1e951" stroke-linecap="round" stroke-linejoin="round" stroke-width="2"/>
        <path id="Path_283-2" data-name="Path 283" d="M488.881,406.447s-7.687,14.112-6.963,17.545,21.436,49.44,24.645,55.022c1.99,3.462,18.273,8.551,18.273,8.551" transform="translate(-250.085 -210.941)" fill="none" stroke="#c1e951" stroke-linecap="round" stroke-linejoin="round" stroke-width="2"/>
      </g>
    </g>
    <g id="遊戲稈-4" data-name="遊戲稈" transform="translate(1575.68 121)">
      <g id="Group_549-3" data-name="Group 549" clip-path="url(#clip-path-3)">
        <path id="Path_265-3" data-name="Path 265" d="M233.585,346.055c-13.675-15.954-62.353-40.185-68.465-36.632l-35.969,20.9c-3.292,1.913-4.168,11.228-7.224,13l-30.8,17.9-30.8,17.9c-3.056,1.776-11.584-2.074-14.875-.161l-35.969,20.9C3.374,403.426.332,457.716,7.425,477.5s46.331,72.141,57.06,81.945,36.469-3.269,35.264-20.495-7.458-60.453,2.886-66.464l39.732-23.091L182.1,426.3c10.344-6.012,44.808,20.819,59.178,30.393s38.471-6.319,35.264-20.495S247.26,362.009,233.585,346.055Z" transform="translate(-1.726 -160.404)" fill="none" stroke="#32cf9c" stroke-linecap="round" stroke-linejoin="round" stroke-width="2"/>
        <path id="Path_266-3" data-name="Path 266" d="M183.306,379.472s7.465,22.8,8.263,25.8.72,5.567-3.277,7.89l-20.454,11.887-20.454,11.887c-4,2.323-6.269,1.118-8.477-1.058s-18.323-19.949-18.323-19.949" transform="translate(-62.582 -196.941)" fill="none" stroke="#32cf9c" stroke-linecap="round" stroke-linejoin="round" stroke-width="2"/>
        <path id="Path_267-3" data-name="Path 267" d="M209.605,515.269a3.1,3.1,0,0,1-1.142,4.233l-10.158,5.841a3.1,3.1,0,0,1-3.091-5.375l10.157-5.84A3.1,3.1,0,0,1,209.605,515.269Z" transform="translate(-100.507 -266.611)" fill="none" stroke="#32cf9c" stroke-linecap="round" stroke-linejoin="round" stroke-width="2"/>
        <path id="Path_268-3" data-name="Path 268" d="M64.652,633.6a3.1,3.1,0,0,1-1.142,4.233l-10.158,5.841a3.1,3.1,0,0,1-3.091-5.375l10.158-5.84A3.1,3.1,0,0,1,64.652,633.6Z" transform="translate(-25.278 -328.025)" fill="none" stroke="#32cf9c" stroke-linecap="round" stroke-linejoin="round" stroke-width="2"/>
        <path id="Path_269-3" data-name="Path 269" d="M442.275,415.552a3.1,3.1,0,0,1-1.142,4.233l-10.158,5.84a3.1,3.1,0,0,1-3.091-5.375l10.157-5.84A3.1,3.1,0,0,1,442.275,415.552Z" transform="translate(-221.26 -214.859)" fill="none" stroke="#32cf9c" stroke-linecap="round" stroke-linejoin="round" stroke-width="2"/>
        <path id="Path_270-3" data-name="Path 270" d="M252.6,490.543a3.1,3.1,0,0,0,4.233,1.142l10.158-5.841a3.1,3.1,0,0,0-3.091-5.375l-10.157,5.841A3.1,3.1,0,0,0,252.6,490.543Z" transform="translate(-130.884 -249.143)" fill="none" stroke="#32cf9c" stroke-linecap="round" stroke-linejoin="round" stroke-width="2"/>
        <path id="Path_271-3" data-name="Path 271" d="M60.032,469.744a3.127,3.127,0,0,1-1.132,4.275l-31.59,18.36a3.127,3.127,0,1,1-3.142-5.407l31.59-18.36A3.127,3.127,0,0,1,60.032,469.744Z" transform="translate(-11.735 -242.984)" fill="none" stroke="#32cf9c" stroke-linecap="round" stroke-linejoin="round" stroke-width="2"/>
        <path id="Path_272-3" data-name="Path 272" d="M311.556,323.563a3.127,3.127,0,0,1-1.132,4.275l-31.59,18.36a3.127,3.127,0,1,1-3.142-5.407l31.59-18.36A3.127,3.127,0,0,1,311.556,323.563Z" transform="translate(-142.272 -167.117)" fill="none" stroke="#32cf9c" stroke-linecap="round" stroke-linejoin="round" stroke-width="2"/>
        <path id="Path_273-3" data-name="Path 273" d="M159.551,201.413S148.36,182.04,133.993,146.1s3.77-62.006,32.558-58.931,40.98,27.723,70.421,15.917c40.5-16.24,52.307-103.1,171.184-98.144" transform="translate(-66.93 -2.457)" fill="none" stroke="#32cf9c" stroke-linejoin="round" stroke-width="2"/>
        <path id="Path_274-3" data-name="Path 274" d="M87,530.756a23.988,23.988,0,1,0-8.284,32.9A23.988,23.988,0,0,0,87,530.756ZM74.648,556.845a16.057,16.057,0,1,1,5.546-22.02A16.057,16.057,0,0,1,74.648,556.845Z" transform="translate(-22.015 -269.391)" fill="none" stroke="#32cf9c" stroke-linecap="round" stroke-linejoin="round" stroke-width="2"/>
        <path id="Path_275-3" data-name="Path 275" d="M359.256,373.546a23.988,23.988,0,1,0-8.285,32.9A23.988,23.988,0,0,0,359.256,373.546ZM346.9,399.635a16.057,16.057,0,1,1,5.546-22.02A16.057,16.057,0,0,1,346.9,399.635Z" transform="translate(-163.312 -187.801)" fill="none" stroke="#32cf9c" stroke-linecap="round" stroke-linejoin="round" stroke-width="2"/>
        <path id="Path_276-3" data-name="Path 276" d="M140.5,676.189a9.372,9.372,0,1,1-10.538-8.037A9.372,9.372,0,0,1,140.5,676.189Z" transform="translate(-63.233 -346.718)" fill="none" stroke="#32cf9c" stroke-linecap="round" stroke-linejoin="round" stroke-width="2"/>
        <path id="Path_277-3" data-name="Path 277" d="M147.652,630.026a9.372,9.372,0,1,1,8.037-10.538A9.372,9.372,0,0,1,147.652,630.026Z" transform="translate(-71.116 -317.291)" fill="none" stroke="#32cf9c" stroke-linecap="round" stroke-linejoin="round" stroke-width="2"/>
        <path id="Path_278-3" data-name="Path 278" d="M426.927,510.8a9.372,9.372,0,1,0-1.693-13.145A9.372,9.372,0,0,0,426.927,510.8Z" transform="translate(-219.678 -256.383)" fill="none" stroke="#32cf9c" stroke-linecap="round" stroke-linejoin="round" stroke-width="2"/>
        <path id="Path_279-3" data-name="Path 279" d="M383.371,493.915a9.372,9.372,0,1,0-13.145,1.693A9.372,9.372,0,0,0,383.371,493.915Z" transform="translate(-190.251 -248.5)" fill="none" stroke="#32cf9c" stroke-linecap="round" stroke-linejoin="round" stroke-width="2"/>
        <path id="Path_280-3" data-name="Path 280" d="M229.41,559.33l11.024-6.366-7.345-12.719-11.024,6.366-1.288,8.963Z" transform="translate(-114.581 -280.38)" fill="none" stroke="#32cf9c" stroke-linecap="round" stroke-linejoin="round" stroke-width="2"/>
        <path id="Path_281-3" data-name="Path 281" d="M275.475,516.573l-11.024,6.366,7.345,12.719,11.024-6.366,1.288-8.963Z" transform="translate(-137.247 -268.095)" fill="none" stroke="#32cf9c" stroke-linecap="round" stroke-linejoin="round" stroke-width="2"/>
        <path id="Path_282-3" data-name="Path 282" d="M21.782,680.534s16.065.4,18.676,2.74,32.1,43.28,35.335,48.849c2,3.455-1.729,20.1-1.729,20.1" transform="translate(-11.305 -353.189)" fill="none" stroke="#32cf9c" stroke-linecap="round" stroke-linejoin="round" stroke-width="2"/>
        <path id="Path_283-3" data-name="Path 283" d="M488.881,406.447s-7.687,14.112-6.963,17.545,21.436,49.44,24.645,55.022c1.99,3.462,18.273,8.551,18.273,8.551" transform="translate(-250.085 -210.941)" fill="none" stroke="#32cf9c" stroke-linecap="round" stroke-linejoin="round" stroke-width="2"/>
      </g>
    </g>
  </g>
</svg>
