<svg xmlns="http://www.w3.org/2000/svg" width="122.589" height="45.168" viewBox="0 0 122.589 45.168">
  <g id="雜訊按鈕的背景-2" transform="translate(-1244.575 -616.16)">
    <g id="Group_562" data-name="Group 562" transform="translate(1244.575 616.16)">
      <rect id="Rectangle_528" data-name="Rectangle 528" width="1.994" height="2.53" transform="translate(13.963 29.832)" fill="#e31010"/>
      <rect id="Rectangle_529" data-name="Rectangle 529" width="1.994" height="6.611" transform="translate(13.963 33.02)" fill="#e31010"/>
      <rect id="Rectangle_530" data-name="Rectangle 530" width="1.994" height="3.225" transform="translate(13.963 24.667)" fill="#e31010"/>
      <rect id="Rectangle_531" data-name="Rectangle 531" width="1.995" height="0.569" transform="translate(13.962 40.789)" fill="#e31010"/>
      <rect id="Rectangle_532" data-name="Rectangle 532" width="1.995" height="2.109" transform="translate(13.962 43.059)" fill="#e31010"/>
      <rect id="Rectangle_533" data-name="Rectangle 533" width="1.995" height="4.536" transform="translate(13.962 0.001)" fill="#e31010"/>
      <rect id="Rectangle_534" data-name="Rectangle 534" width="1.994" height="3.186" transform="translate(13.963 5.804)" fill="#e31010"/>
      <rect id="Rectangle_535" data-name="Rectangle 535" width="1.994" height="5.337" transform="translate(13.963 18.415)" fill="#e31010"/>
      <rect id="Rectangle_536" data-name="Rectangle 536" width="1.994" height="3.602" transform="translate(13.963 11.659)" fill="#e31010"/>
      <rect id="Rectangle_537" data-name="Rectangle 537" width="1.995" height="1.095" transform="translate(13.962 16.11)" fill="#e31010"/>
      <rect id="Rectangle_538" data-name="Rectangle 538" width="3.989" height="1.095" transform="translate(15.957 16.11)" fill="#e75cee"/>
      <rect id="Rectangle_539" data-name="Rectangle 539" width="3.989" height="3.225" transform="translate(15.957 24.667)" fill="#e75cee"/>
      <rect id="Rectangle_540" data-name="Rectangle 540" width="3.989" height="3.602" transform="translate(15.957 11.659)" fill="#e75cee"/>
      <rect id="Rectangle_541" data-name="Rectangle 541" width="3.989" height="4.536" transform="translate(15.957 0.001)" fill="#e75cee"/>
      <rect id="Rectangle_542" data-name="Rectangle 542" width="3.989" height="2.109" transform="translate(15.957 43.059)" fill="#e75cee"/>
      <rect id="Rectangle_543" data-name="Rectangle 543" width="3.989" height="5.337" transform="translate(15.957 18.415)" fill="#e75cee"/>
      <rect id="Rectangle_544" data-name="Rectangle 544" width="3.989" height="6.611" transform="translate(15.957 33.02)" fill="#e75cee"/>
      <rect id="Rectangle_545" data-name="Rectangle 545" width="3.989" height="2.53" transform="translate(15.957 29.832)" fill="#e75cee"/>
      <rect id="Rectangle_546" data-name="Rectangle 546" width="3.989" height="0.569" transform="translate(15.957 40.789)" fill="#e75cee"/>
      <rect id="Rectangle_547" data-name="Rectangle 547" width="3.989" height="3.186" transform="translate(15.957 5.804)" fill="#e75cee"/>
      <rect id="Rectangle_548" data-name="Rectangle 548" width="1.995" height="5.337" transform="translate(19.946 18.415)" fill="#fcfc53"/>
      <rect id="Rectangle_549" data-name="Rectangle 549" width="1.995" height="4.536" transform="translate(19.946 0.001)" fill="#fcfc53"/>
      <rect id="Rectangle_550" data-name="Rectangle 550" width="1.995" height="3.602" transform="translate(19.946 11.659)" fill="#fcfc53"/>
      <rect id="Rectangle_551" data-name="Rectangle 551" width="1.995" height="1.095" transform="translate(19.946 16.11)" fill="#fcfc53"/>
      <rect id="Rectangle_552" data-name="Rectangle 552" width="1.995" height="0.569" transform="translate(19.946 40.789)" fill="#fcfc53"/>
      <rect id="Rectangle_553" data-name="Rectangle 553" width="1.995" height="6.611" transform="translate(19.946 33.02)" fill="#fcfc53"/>
      <rect id="Rectangle_554" data-name="Rectangle 554" width="1.995" height="3.186" transform="translate(19.946 5.804)" fill="#fcfc53"/>
      <rect id="Rectangle_555" data-name="Rectangle 555" width="1.995" height="2.109" transform="translate(19.946 43.059)" fill="#fcfc53"/>
      <rect id="Rectangle_556" data-name="Rectangle 556" width="1.995" height="2.53" transform="translate(19.946 29.832)" fill="#fcfc53"/>
      <rect id="Rectangle_557" data-name="Rectangle 557" width="1.995" height="3.225" transform="translate(19.946 24.667)" fill="#fcfc53"/>
      <rect id="Rectangle_558" data-name="Rectangle 558" width="1.994" height="7.643" transform="translate(108.626 16.11)" fill="#195ff5"/>
      <rect id="Rectangle_559" data-name="Rectangle 559" width="1.994" height="3.602" transform="translate(108.626 11.658)" fill="#195ff5"/>
      <rect id="Rectangle_560" data-name="Rectangle 560" width="1.994" height="1.919" transform="translate(108.626)" fill="#195ff5"/>
      <rect id="Rectangle_561" data-name="Rectangle 561" width="1.994" height="3.186" transform="translate(108.626 5.803)" fill="#195ff5"/>
      <rect id="Rectangle_562" data-name="Rectangle 562" width="1.994" height="1.797" transform="translate(108.626 2.74)" fill="#195ff5"/>
      <rect id="Rectangle_563" data-name="Rectangle 563" width="1.994" height="3.225" transform="translate(108.626 24.667)" fill="#195ff5"/>
      <rect id="Rectangle_564" data-name="Rectangle 564" width="1.994" height="4.939" transform="translate(108.626 33.02)" fill="#195ff5"/>
      <rect id="Rectangle_565" data-name="Rectangle 565" width="1.994" height="2.53" transform="translate(108.626 29.832)" fill="#195ff5"/>
      <rect id="Rectangle_566" data-name="Rectangle 566" width="1.994" height="2.109" transform="translate(108.626 43.059)" fill="#195ff5"/>
      <rect id="Rectangle_567" data-name="Rectangle 567" width="1.994" height="2.636" transform="translate(108.626 38.722)" fill="#195ff5"/>
      <rect id="Rectangle_568" data-name="Rectangle 568" width="3.989" height="2.636" transform="translate(104.636 38.722)" fill="#19f5ee"/>
      <rect id="Rectangle_569" data-name="Rectangle 569" width="3.989" height="3.186" transform="translate(104.636 5.803)" fill="#19f5ee"/>
      <rect id="Rectangle_570" data-name="Rectangle 570" width="3.989" height="1.919" transform="translate(104.636)" fill="#19f5ee"/>
      <rect id="Rectangle_571" data-name="Rectangle 571" width="3.989" height="2.109" transform="translate(104.636 43.059)" fill="#19f5ee"/>
      <rect id="Rectangle_572" data-name="Rectangle 572" width="3.989" height="3.225" transform="translate(104.636 24.667)" fill="#19f5ee"/>
      <rect id="Rectangle_573" data-name="Rectangle 573" width="3.989" height="4.939" transform="translate(104.636 33.02)" fill="#19f5ee"/>
      <rect id="Rectangle_574" data-name="Rectangle 574" width="3.989" height="2.53" transform="translate(104.636 29.832)" fill="#19f5ee"/>
      <rect id="Rectangle_575" data-name="Rectangle 575" width="3.989" height="7.643" transform="translate(104.636 16.11)" fill="#19f5ee"/>
      <rect id="Rectangle_576" data-name="Rectangle 576" width="3.989" height="3.602" transform="translate(104.636 11.658)" fill="#19f5ee"/>
      <rect id="Rectangle_577" data-name="Rectangle 577" width="3.989" height="1.797" transform="translate(104.636 2.74)" fill="#19f5ee"/>
      <rect id="Rectangle_578" data-name="Rectangle 578" width="3.989" height="2.53" transform="translate(21.941 29.832)" fill="#fcfcfc"/>
      <rect id="Rectangle_579" data-name="Rectangle 579" width="3.989" height="4.536" transform="translate(21.941 0.001)" fill="#fcfcfc"/>
      <rect id="Rectangle_580" data-name="Rectangle 580" width="3.989" height="3.186" transform="translate(21.941 5.804)" fill="#fcfcfc"/>
      <rect id="Rectangle_581" data-name="Rectangle 581" width="3.989" height="6.611" transform="translate(21.941 33.02)" fill="#fcfcfc"/>
      <rect id="Rectangle_582" data-name="Rectangle 582" width="3.989" height="3.602" transform="translate(21.941 11.659)" fill="#fcfcfc"/>
      <rect id="Rectangle_583" data-name="Rectangle 583" width="3.989" height="1.095" transform="translate(21.941 16.11)" fill="#fcfcfc"/>
      <rect id="Rectangle_584" data-name="Rectangle 584" width="3.989" height="0.569" transform="translate(21.941 40.789)" fill="#fcfcfc"/>
      <rect id="Rectangle_585" data-name="Rectangle 585" width="3.989" height="2.109" transform="translate(21.941 43.059)" fill="#fcfcfc"/>
      <rect id="Rectangle_586" data-name="Rectangle 586" width="3.989" height="5.337" transform="translate(21.941 18.415)" fill="#fcfcfc"/>
      <rect id="Rectangle_587" data-name="Rectangle 587" width="3.989" height="3.225" transform="translate(21.941 24.667)" fill="#fcfcfc"/>
      <rect id="Rectangle_588" data-name="Rectangle 588" width="1.995" height="2.53" transform="translate(25.93 29.832)" fill="#fcfcfc"/>
      <rect id="Rectangle_589" data-name="Rectangle 589" width="1.995" height="6.611" transform="translate(25.93 33.02)" fill="#fcfcfc"/>
      <rect id="Rectangle_590" data-name="Rectangle 590" width="1.995" height="0.569" transform="translate(25.93 40.789)" fill="#fcfcfc"/>
      <rect id="Rectangle_591" data-name="Rectangle 591" width="1.995" height="4.536" transform="translate(25.93 0.001)" fill="#fcfcfc"/>
      <rect id="Rectangle_592" data-name="Rectangle 592" width="1.995" height="2.109" transform="translate(25.93 43.059)" fill="#fcfcfc"/>
      <rect id="Rectangle_593" data-name="Rectangle 593" width="1.995" height="3.225" transform="translate(25.93 24.667)" fill="#fcfcfc"/>
      <rect id="Rectangle_594" data-name="Rectangle 594" width="1.995" height="3.602" transform="translate(25.93 11.659)" fill="#fcfcfc"/>
      <rect id="Rectangle_595" data-name="Rectangle 595" width="1.995" height="1.095" transform="translate(25.93 16.11)" fill="#fcfcfc"/>
      <rect id="Rectangle_596" data-name="Rectangle 596" width="1.995" height="3.186" transform="translate(25.93 5.804)" fill="#fcfcfc"/>
      <rect id="Rectangle_597" data-name="Rectangle 597" width="1.995" height="5.337" transform="translate(25.93 18.415)" fill="#fcfcfc"/>
      <rect id="Rectangle_598" data-name="Rectangle 598" width="1.995" height="7.643" transform="translate(102.642 16.11)" fill="#fcfcfc"/>
      <rect id="Rectangle_599" data-name="Rectangle 599" width="1.995" height="2.53" transform="translate(102.642 29.832)" fill="#fcfcfc"/>
      <rect id="Rectangle_600" data-name="Rectangle 600" width="1.995" height="2.636" transform="translate(102.642 38.722)" fill="#fcfcfc"/>
      <rect id="Rectangle_601" data-name="Rectangle 601" width="1.995" height="3.602" transform="translate(102.642 11.658)" fill="#fcfcfc"/>
      <rect id="Rectangle_602" data-name="Rectangle 602" width="1.995" height="3.225" transform="translate(102.642 24.667)" fill="#fcfcfc"/>
      <rect id="Rectangle_603" data-name="Rectangle 603" width="1.995" height="3.186" transform="translate(102.642 5.803)" fill="#fcfcfc"/>
      <rect id="Rectangle_604" data-name="Rectangle 604" width="1.995" height="4.939" transform="translate(102.642 33.02)" fill="#fcfcfc"/>
      <rect id="Rectangle_605" data-name="Rectangle 605" width="1.995" height="1.797" transform="translate(102.641 2.74)" fill="#fcfcfc"/>
      <rect id="Rectangle_606" data-name="Rectangle 606" width="1.995" height="1.919" transform="translate(102.642)" fill="#fcfcfc"/>
      <rect id="Rectangle_607" data-name="Rectangle 607" width="1.995" height="2.109" transform="translate(102.642 43.059)" fill="#fcfcfc"/>
      <rect id="Rectangle_608" data-name="Rectangle 608" width="3.989" height="3.602" transform="translate(98.652 11.658)" fill="#fcfcfc"/>
      <rect id="Rectangle_609" data-name="Rectangle 609" width="3.989" height="3.186" transform="translate(98.652 5.804)" fill="#fcfcfc"/>
      <rect id="Rectangle_610" data-name="Rectangle 610" width="3.989" height="2.109" transform="translate(98.652 43.059)" fill="#fcfcfc"/>
      <rect id="Rectangle_611" data-name="Rectangle 611" width="3.989" height="1.797" transform="translate(98.652 2.74)" fill="#fcfcfc"/>
      <rect id="Rectangle_612" data-name="Rectangle 612" width="3.989" height="7.643" transform="translate(98.652 16.11)" fill="#fcfcfc"/>
      <rect id="Rectangle_613" data-name="Rectangle 613" width="3.989" height="3.225" transform="translate(98.652 24.667)" fill="#fcfcfc"/>
      <rect id="Rectangle_614" data-name="Rectangle 614" width="3.989" height="2.53" transform="translate(98.652 29.832)" fill="#fcfcfc"/>
      <rect id="Rectangle_615" data-name="Rectangle 615" width="3.989" height="4.939" transform="translate(98.652 33.02)" fill="#fcfcfc"/>
      <rect id="Rectangle_616" data-name="Rectangle 616" width="3.989" height="1.919" transform="translate(98.652)" fill="#fcfcfc"/>
      <rect id="Rectangle_617" data-name="Rectangle 617" width="3.989" height="2.636" transform="translate(98.652 38.722)" fill="#fcfcfc"/>
      <rect id="Rectangle_618" data-name="Rectangle 618" width="1.995" height="4.939" transform="translate(96.657 33.02)" fill="#fcfcfc"/>
      <rect id="Rectangle_619" data-name="Rectangle 619" width="1.995" height="2.53" transform="translate(96.658 29.832)" fill="#fcfcfc"/>
      <rect id="Rectangle_620" data-name="Rectangle 620" width="1.995" height="1.919" transform="translate(96.658)" fill="#fcfcfc"/>
      <rect id="Rectangle_621" data-name="Rectangle 621" width="1.995" height="2.636" transform="translate(96.658 38.722)" fill="#fcfcfc"/>
      <rect id="Rectangle_622" data-name="Rectangle 622" width="1.995" height="3.186" transform="translate(96.657 5.804)" fill="#fcfcfc"/>
      <rect id="Rectangle_623" data-name="Rectangle 623" width="1.995" height="1.797" transform="translate(96.657 2.74)" fill="#fcfcfc"/>
      <rect id="Rectangle_624" data-name="Rectangle 624" width="1.995" height="7.643" transform="translate(96.658 16.11)" fill="#fcfcfc"/>
      <rect id="Rectangle_625" data-name="Rectangle 625" width="1.995" height="3.602" transform="translate(96.658 11.658)" fill="#fcfcfc"/>
      <rect id="Rectangle_626" data-name="Rectangle 626" width="1.995" height="2.109" transform="translate(96.658 43.059)" fill="#fcfcfc"/>
      <rect id="Rectangle_627" data-name="Rectangle 627" width="1.995" height="3.225" transform="translate(96.658 24.667)" fill="#fcfcfc"/>
      <rect id="Rectangle_628" data-name="Rectangle 628" width="68.733" height="3.186" transform="translate(27.925 5.804)" fill="#fcfcfc"/>
      <path id="Path_304" data-name="Path 304" d="M55.361,15.787H91.832V17H55.361v5.338h68.733V14.691H55.361Z" transform="translate(-27.436 1.419)" fill="#fcfcfc"/>
      <path id="Path_305" data-name="Path 305" d="M66.462,35.815v-.762h57.631V30.114H55.36v6.61h7.724v1.158H55.36v.569h68.733V35.815Z" transform="translate(-27.436 2.907)" fill="#fcfcfc"/>
      <rect id="Rectangle_629" data-name="Rectangle 629" width="68.733" height="2.53" transform="translate(27.925 29.832)" fill="#fcfcfc"/>
      <rect id="Rectangle_630" data-name="Rectangle 630" width="68.733" height="3.225" transform="translate(27.925 24.667)" fill="#fcfcfc"/>
      <rect id="Rectangle_631" data-name="Rectangle 631" width="68.733" height="3.602" transform="translate(27.925 11.659)" fill="#fcfcfc"/>
      <rect id="Rectangle_632" data-name="Rectangle 632" width="68.733" height="2.109" transform="translate(27.925 43.059)" fill="#fcfcfc"/>
      <path id="Path_306" data-name="Path 306" d="M55.361,0V4.536h68.733v-1.8H77.018v-.82h47.076V0Z" transform="translate(-27.436 0.001)" fill="#fcfcfc"/>
      <rect id="Rectangle_633" data-name="Rectangle 633" width="1.994" height="2.67" transform="translate(15.957 8.989)" fill="#e31010"/>
      <rect id="Rectangle_634" data-name="Rectangle 634" width="3.989" height="2.67" transform="translate(17.952 8.989)" fill="#e75cee"/>
      <rect id="Rectangle_635" data-name="Rectangle 635" width="1.995" height="2.67" transform="translate(21.941 8.989)" fill="#fcfc53"/>
      <rect id="Rectangle_636" data-name="Rectangle 636" width="1.995" height="2.67" transform="translate(110.62 8.989)" fill="#195ff5"/>
      <rect id="Rectangle_637" data-name="Rectangle 637" width="3.989" height="2.67" transform="translate(106.631 8.989)" fill="#19f5ee"/>
      <rect id="Rectangle_638" data-name="Rectangle 638" width="3.989" height="2.67" transform="translate(23.936 8.989)" fill="#fcfcfc"/>
      <rect id="Rectangle_639" data-name="Rectangle 639" width="1.994" height="2.67" transform="translate(27.925 8.989)" fill="#fcfcfc"/>
      <rect id="Rectangle_640" data-name="Rectangle 640" width="1.994" height="2.67" transform="translate(104.636 8.989)" fill="#fcfcfc"/>
      <rect id="Rectangle_641" data-name="Rectangle 641" width="3.989" height="2.67" transform="translate(100.647 8.989)" fill="#fcfcfc"/>
      <rect id="Rectangle_642" data-name="Rectangle 642" width="1.994" height="2.67" transform="translate(98.652 8.989)" fill="#fcfcfc"/>
      <rect id="Rectangle_643" data-name="Rectangle 643" width="68.733" height="2.67" transform="translate(29.92 8.989)" fill="#fcfcfc"/>
      <rect id="Rectangle_644" data-name="Rectangle 644" width="1.995" height="0.849" transform="translate(25.93 15.26)" fill="#e31010"/>
      <rect id="Rectangle_645" data-name="Rectangle 645" width="3.989" height="0.849" transform="translate(27.925 15.26)" fill="#e75cee"/>
      <rect id="Rectangle_646" data-name="Rectangle 646" width="1.994" height="0.849" transform="translate(31.915 15.26)" fill="#fcfc53"/>
      <rect id="Rectangle_647" data-name="Rectangle 647" width="1.995" height="0.849" transform="translate(120.594 15.26)" fill="#195ff5"/>
      <rect id="Rectangle_648" data-name="Rectangle 648" width="3.989" height="0.849" transform="translate(116.604 15.26)" fill="#19f5ee"/>
      <rect id="Rectangle_649" data-name="Rectangle 649" width="3.989" height="0.849" transform="translate(33.909 15.26)" fill="#fcfcfc"/>
      <rect id="Rectangle_650" data-name="Rectangle 650" width="1.994" height="0.849" transform="translate(37.899 15.26)" fill="#fcfcfc"/>
      <rect id="Rectangle_651" data-name="Rectangle 651" width="1.995" height="0.849" transform="translate(114.609 15.26)" fill="#fcfcfc"/>
      <rect id="Rectangle_652" data-name="Rectangle 652" width="3.989" height="0.849" transform="translate(110.62 15.26)" fill="#fcfcfc"/>
      <rect id="Rectangle_653" data-name="Rectangle 653" width="1.994" height="0.849" transform="translate(108.626 15.26)" fill="#fcfcfc"/>
      <rect id="Rectangle_654" data-name="Rectangle 654" width="68.733" height="0.849" transform="translate(39.893 15.26)" fill="#fcfcfc"/>
      <rect id="Rectangle_655" data-name="Rectangle 655" width="1.994" height="1.265" transform="translate(3.989 4.537)" fill="#e31010"/>
      <rect id="Rectangle_656" data-name="Rectangle 656" width="3.989" height="1.265" transform="translate(5.984 4.537)" fill="#e75cee"/>
      <rect id="Rectangle_657" data-name="Rectangle 657" width="1.994" height="1.265" transform="translate(9.973 4.537)" fill="#fcfc53"/>
      <rect id="Rectangle_658" data-name="Rectangle 658" width="1.994" height="1.265" transform="translate(98.652 4.538)" fill="#195ff5"/>
      <rect id="Rectangle_659" data-name="Rectangle 659" width="3.989" height="1.265" transform="translate(94.663 4.538)" fill="#19f5ee"/>
      <rect id="Rectangle_660" data-name="Rectangle 660" width="3.989" height="1.265" transform="translate(11.968 4.537)" fill="#fcfcfc"/>
      <rect id="Rectangle_661" data-name="Rectangle 661" width="1.994" height="1.265" transform="translate(15.957 4.537)" fill="#fcfcfc"/>
      <rect id="Rectangle_662" data-name="Rectangle 662" width="1.995" height="1.265" transform="translate(92.668 4.538)" fill="#fcfcfc"/>
      <rect id="Rectangle_663" data-name="Rectangle 663" width="3.989" height="1.265" transform="translate(88.679 4.537)" fill="#fcfcfc"/>
      <rect id="Rectangle_664" data-name="Rectangle 664" width="1.994" height="1.265" transform="translate(86.684 4.537)" fill="#fcfcfc"/>
      <rect id="Rectangle_665" data-name="Rectangle 665" width="68.733" height="1.265" transform="translate(17.952 4.537)" fill="#fcfcfc"/>
      <rect id="Rectangle_666" data-name="Rectangle 666" width="1.994" height="1.939" transform="translate(0 27.893)" fill="#e31010"/>
      <rect id="Rectangle_667" data-name="Rectangle 667" width="3.989" height="1.939" transform="translate(1.994 27.892)" fill="#e75cee"/>
      <rect id="Rectangle_668" data-name="Rectangle 668" width="1.995" height="1.939" transform="translate(5.983 27.892)" fill="#fcfc53"/>
      <rect id="Rectangle_669" data-name="Rectangle 669" width="1.994" height="1.939" transform="translate(94.663 27.893)" fill="#195ff5"/>
      <rect id="Rectangle_670" data-name="Rectangle 670" width="3.989" height="1.939" transform="translate(90.674 27.893)" fill="#19f5ee"/>
      <rect id="Rectangle_671" data-name="Rectangle 671" width="3.989" height="1.939" transform="translate(7.978 27.892)" fill="#fcfcfc"/>
      <rect id="Rectangle_672" data-name="Rectangle 672" width="1.995" height="1.939" transform="translate(11.967 27.892)" fill="#fcfcfc"/>
      <rect id="Rectangle_673" data-name="Rectangle 673" width="1.995" height="1.939" transform="translate(88.679 27.893)" fill="#fcfcfc"/>
      <rect id="Rectangle_674" data-name="Rectangle 674" width="3.989" height="1.939" transform="translate(84.69 27.893)" fill="#fcfcfc"/>
      <rect id="Rectangle_675" data-name="Rectangle 675" width="1.995" height="1.939" transform="translate(82.695 27.893)" fill="#fcfcfc"/>
      <rect id="Rectangle_676" data-name="Rectangle 676" width="68.733" height="1.939" transform="translate(13.962 27.893)" fill="#fcfcfc"/>
      <rect id="Rectangle_677" data-name="Rectangle 677" width="1.995" height="0.66" transform="translate(21.941 32.361)" fill="#e31010"/>
      <rect id="Rectangle_678" data-name="Rectangle 678" width="3.989" height="0.66" transform="translate(23.936 32.361)" fill="#e75cee"/>
      <rect id="Rectangle_679" data-name="Rectangle 679" width="1.995" height="0.66" transform="translate(27.925 32.361)" fill="#fcfc53"/>
      <rect id="Rectangle_680" data-name="Rectangle 680" width="1.995" height="0.66" transform="translate(116.604 32.361)" fill="#195ff5"/>
      <rect id="Rectangle_681" data-name="Rectangle 681" width="3.989" height="0.66" transform="translate(112.615 32.361)" fill="#19f5ee"/>
      <rect id="Rectangle_682" data-name="Rectangle 682" width="3.989" height="0.66" transform="translate(29.92 32.361)" fill="#fcfcfc"/>
      <rect id="Rectangle_683" data-name="Rectangle 683" width="1.995" height="0.66" transform="translate(33.909 32.361)" fill="#fcfcfc"/>
      <rect id="Rectangle_684" data-name="Rectangle 684" width="1.995" height="0.66" transform="translate(110.62 32.361)" fill="#fcfcfc"/>
      <rect id="Rectangle_685" data-name="Rectangle 685" width="3.989" height="0.66" transform="translate(106.631 32.361)" fill="#fcfcfc"/>
      <rect id="Rectangle_686" data-name="Rectangle 686" width="1.995" height="0.66" transform="translate(104.636 32.361)" fill="#fcfcfc"/>
      <rect id="Rectangle_687" data-name="Rectangle 687" width="68.733" height="0.66" transform="translate(35.904 32.361)" fill="#fcfcfc"/>
      <rect id="Rectangle_688" data-name="Rectangle 688" width="1.995" height="0.914" transform="translate(17.952 23.753)" fill="#e31010"/>
      <rect id="Rectangle_689" data-name="Rectangle 689" width="3.989" height="0.914" transform="translate(19.946 23.753)" fill="#e75cee"/>
      <rect id="Rectangle_690" data-name="Rectangle 690" width="1.994" height="0.914" transform="translate(23.936 23.753)" fill="#fcfc53"/>
      <rect id="Rectangle_691" data-name="Rectangle 691" width="1.994" height="0.914" transform="translate(112.615 23.753)" fill="#195ff5"/>
      <rect id="Rectangle_692" data-name="Rectangle 692" width="3.989" height="0.914" transform="translate(108.626 23.753)" fill="#19f5ee"/>
      <rect id="Rectangle_693" data-name="Rectangle 693" width="3.989" height="0.914" transform="translate(25.93 23.753)" fill="#fcfcfc"/>
      <rect id="Rectangle_694" data-name="Rectangle 694" width="1.995" height="0.914" transform="translate(29.92 23.753)" fill="#fcfcfc"/>
      <rect id="Rectangle_695" data-name="Rectangle 695" width="1.995" height="0.914" transform="translate(106.631 23.753)" fill="#fcfcfc"/>
      <rect id="Rectangle_696" data-name="Rectangle 696" width="3.989" height="0.914" transform="translate(102.642 23.753)" fill="#fcfcfc"/>
      <rect id="Rectangle_697" data-name="Rectangle 697" width="1.995" height="0.914" transform="translate(100.647 23.753)" fill="#fcfcfc"/>
      <rect id="Rectangle_698" data-name="Rectangle 698" width="68.732" height="0.914" transform="translate(31.915 23.753)" fill="#fcfcfc"/>
      <rect id="Rectangle_699" data-name="Rectangle 699" width="1.994" height="1.7" transform="translate(15.957 41.358)" fill="#e31010"/>
      <rect id="Rectangle_700" data-name="Rectangle 700" width="3.989" height="1.7" transform="translate(17.952 41.358)" fill="#e75cee"/>
      <rect id="Rectangle_701" data-name="Rectangle 701" width="1.995" height="1.7" transform="translate(21.941 41.358)" fill="#fcfc53"/>
      <rect id="Rectangle_702" data-name="Rectangle 702" width="1.995" height="1.7" transform="translate(110.62 41.358)" fill="#195ff5"/>
      <rect id="Rectangle_703" data-name="Rectangle 703" width="3.989" height="1.7" transform="translate(106.631 41.358)" fill="#19f5ee"/>
      <rect id="Rectangle_704" data-name="Rectangle 704" width="3.989" height="1.7" transform="translate(23.936 41.358)" fill="#fcfcfc"/>
      <rect id="Rectangle_705" data-name="Rectangle 705" width="1.994" height="1.7" transform="translate(27.925 41.358)" fill="#fcfcfc"/>
      <rect id="Rectangle_706" data-name="Rectangle 706" width="1.994" height="1.7" transform="translate(104.636 41.358)" fill="#fcfcfc"/>
      <rect id="Rectangle_707" data-name="Rectangle 707" width="3.989" height="1.7" transform="translate(100.647 41.358)" fill="#fcfcfc"/>
      <rect id="Rectangle_708" data-name="Rectangle 708" width="1.994" height="1.7" transform="translate(98.652 41.358)" fill="#fcfcfc"/>
      <rect id="Rectangle_709" data-name="Rectangle 709" width="68.733" height="1.7" transform="translate(29.92 41.358)" fill="#fcfcfc"/>
      <rect id="Rectangle_710" data-name="Rectangle 710" width="1.994" height="0.763" transform="translate(112.615 37.959)" fill="#195ff5"/>
      <rect id="Rectangle_711" data-name="Rectangle 711" width="3.989" height="0.763" transform="translate(108.626 37.959)" fill="#19f5ee"/>
      <rect id="Rectangle_712" data-name="Rectangle 712" width="1.995" height="0.763" transform="translate(106.631 37.959)" fill="#fcfcfc"/>
      <rect id="Rectangle_713" data-name="Rectangle 713" width="3.989" height="0.763" transform="translate(102.642 37.959)" fill="#fcfcfc"/>
      <rect id="Rectangle_714" data-name="Rectangle 714" width="1.995" height="0.763" transform="translate(100.647 37.959)" fill="#fcfcfc"/>
      <rect id="Rectangle_715" data-name="Rectangle 715" width="57.631" height="0.763" transform="translate(39.026 37.959)" fill="#fcfcfc"/>
      <rect id="Rectangle_716" data-name="Rectangle 716" width="1.994" height="1.209" transform="translate(9.973 17.205)" fill="#e31010"/>
      <rect id="Rectangle_717" data-name="Rectangle 717" width="3.989" height="1.209" transform="translate(11.968 17.205)" fill="#e75cee"/>
      <rect id="Rectangle_718" data-name="Rectangle 718" width="1.994" height="1.209" transform="translate(15.957 17.205)" fill="#fcfc53"/>
      <rect id="Rectangle_719" data-name="Rectangle 719" width="3.989" height="1.209" transform="translate(17.952 17.205)" fill="#fcfcfc"/>
      <rect id="Rectangle_720" data-name="Rectangle 720" width="1.995" height="1.209" transform="translate(21.941 17.205)" fill="#fcfcfc"/>
      <rect id="Rectangle_721" data-name="Rectangle 721" width="36.472" height="1.209" transform="translate(27.925 17.205)" fill="#fcfcfc"/>
      <rect id="Rectangle_722" data-name="Rectangle 722" width="1.995" height="0.821" transform="translate(114.609 1.919)" fill="#195ff5"/>
      <rect id="Rectangle_723" data-name="Rectangle 723" width="3.989" height="0.821" transform="translate(110.62 1.919)" fill="#19f5ee"/>
      <rect id="Rectangle_724" data-name="Rectangle 724" width="1.994" height="0.821" transform="translate(108.626 1.919)" fill="#fcfcfc"/>
      <rect id="Rectangle_725" data-name="Rectangle 725" width="3.989" height="0.821" transform="translate(104.636 1.919)" fill="#fcfcfc"/>
      <rect id="Rectangle_726" data-name="Rectangle 726" width="1.995" height="0.821" transform="translate(102.642 1.919)" fill="#fcfcfc"/>
      <rect id="Rectangle_727" data-name="Rectangle 727" width="47.076" height="0.821" transform="translate(49.581 1.919)" fill="#fcfcfc"/>
      <rect id="Rectangle_728" data-name="Rectangle 728" width="1.995" height="1.158" transform="translate(5.983 39.631)" fill="#e31010"/>
      <rect id="Rectangle_729" data-name="Rectangle 729" width="3.989" height="1.158" transform="translate(7.978 39.631)" fill="#e75cee"/>
      <rect id="Rectangle_730" data-name="Rectangle 730" width="1.995" height="1.158" transform="translate(11.967 39.631)" fill="#fcfc53"/>
      <rect id="Rectangle_731" data-name="Rectangle 731" width="3.989" height="1.158" transform="translate(13.962 39.631)" fill="#fcfcfc"/>
      <rect id="Rectangle_732" data-name="Rectangle 732" width="1.994" height="1.158" transform="translate(17.952 39.631)" fill="#fcfcfc"/>
      <rect id="Rectangle_733" data-name="Rectangle 733" width="7.724" height="1.158" transform="translate(27.925 39.631)" fill="#fcfcfc"/>
    </g>
  </g>
</svg>
