<svg xmlns="http://www.w3.org/2000/svg" width="641.333" height="73.334" viewBox="0 0 641.333 73.334">
  <path id="Path_649" data-name="Path 649" d="M73.333,6.667H80v6.667H6.667V6.667h40V-6.667H20V-20h6.667v6.667H53.333V-26.667H60v20H53.333V6.667ZM26.667-20V-40h6.667V-53.333H6.667V-60H80v6.667H40V-40H66.667v13.333H60v-6.667H33.333V-20ZM141.333,0V-13.333H148V0Zm13.333,6.667h6.667v6.667H148V6.667ZM128,6.667h6.667v6.667H101.333V6.667h13.333V0H101.333V-6.667h13.333v-6.667H101.333V-46.667h13.333v-6.667H101.333V-60h33.333v6.667H121.333v6.667H148V-60h6.667v13.333h20V0H168V6.667h-6.667V0H168V-40H154.667v26.667H148V-40H134.667v26.667H121.333v6.667h13.333V0H121.333V6.667ZM128-20v-6.667h-6.667V-20Zm-13.333,0v-6.667H108V-20ZM128-33.333V-40h-6.667v6.667Zm-13.333,0V-40H108v6.667Zm148,46.667V0h6.667V13.333ZM209.333,6.667H216v6.667H196V6.667h13.333ZM236,0h6.667V6.667H216V-20H202.667v-6.667H236V-20H222.667V0Zm26.667,0H256V-13.333h6.667ZM256-13.333h-6.667v-20H256Zm-6.667-20h-6.667V-40H196v-6.667h46.667V-60h6.667v13.333h13.333V-60h6.667v20h-20Zm68,46.667V-13.333h-6.667V13.333H304V-13.333H290.667V-20h6.667v-6.667H304V-20h13.333V-60H364V13.333H350.667V6.667h-20v-20H324V13.333ZM290.667,6.667V-6.667h6.667V6.667Zm66.667,0v-20h-20V0h13.333V6.667ZM350.667-20h6.667v-6.667H344V-20Zm-20,0h6.667v-6.667H324V-20ZM304-26.667v-6.667H290.667V-46.667h6.667V-40h13.333v13.333Zm53.333-6.667v-20H324v20h6.667V-46.667h6.667v13.333H344V-46.667h6.667v13.333Zm-60-13.333v-6.667H304v6.667ZM304-53.333V-60h6.667v6.667Zm148,60h6.667v6.667H445.333V6.667Zm-60,0h6.667v6.667H385.333V6.667Zm53.333,0h-6.667V0H405.333V6.667h-6.667V-46.667h20v-6.667H385.333V-60h73.333v6.667H425.333v6.667h20ZM432-6.667h6.667v-6.667H405.333v6.667ZM432-20h6.667v-6.667H405.333V-20Zm0-13.333h6.667V-40H405.333v6.667Zm74.667,6.667v-6.667h6.667v6.667Zm40,33.333h6.667v6.667H540V6.667Zm-33.333,0H520v6.667H506.667V6.667Zm-20,6.667H480V-13.333h20V13.333ZM540,6.667H520V0h13.333V-6.667H540Zm-46.667,0V-6.667h-6.667V6.667ZM520,0h-6.667V-13.333h-6.667V-20h40V-6.667H540v-6.667H520Zm26.667-26.667H533.333V-53.333H520v20h-6.667V-60H540v26.667h6.667V-40h6.667v13.333Zm-53.333-6.667H500v6.667H480v-6.667h13.333Zm0-13.333H500V-40H480v-6.667h13.333Zm0-13.333H500v6.667H480V-60h13.333ZM628,13.333V-33.333H608V-40h20V-60h6.667v20H648v6.667H634.667V13.333Zm-33.333,0h-20V-13.333h26.667V13.333ZM588,6.667h6.667V-6.667H581.333V6.667Zm6.667-40h6.667v6.667H574.667v-6.667Zm0-13.333h6.667V-40H574.667v-6.667h20Zm0-13.333h6.667v6.667H574.667V-60h20Z" transform="translate(-6.667 60)" fill="#fff"/>
</svg>
