<svg xmlns="http://www.w3.org/2000/svg" width="83.468" height="137.489" viewBox="0 0 83.468 137.489">
  <g id="太空艦" transform="translate(0 0)">
    <rect id="Rectangle_741" data-name="Rectangle 741" width="4.514" height="7.876" transform="translate(39.431 20.849)" fill="#79a8cb"/>
    <rect id="Rectangle_742" data-name="Rectangle 742" width="6.52" height="48.707" transform="translate(3.267 68.01)" fill="#79a8cb"/>
    <rect id="Rectangle_743" data-name="Rectangle 743" width="12.849" height="34.446" transform="translate(0.001 75.793)" fill="#79a8cb"/>
    <rect id="Rectangle_744" data-name="Rectangle 744" width="12.849" height="8.825" transform="translate(0.001 75.795)" fill="#517e94"/>
    <rect id="Rectangle_745" data-name="Rectangle 745" width="6.677" height="4.711" transform="translate(3.187 118.225)" fill="#ffd300"/>
    <rect id="Rectangle_746" data-name="Rectangle 746" width="6.677" height="2.357" transform="translate(3.187 129.334)" fill="#ffd300"/>
    <rect id="Rectangle_747" data-name="Rectangle 747" width="3.224" height="8.924" transform="translate(4.915 118.225)" fill="#dc257c"/>
    <rect id="Rectangle_748" data-name="Rectangle 748" width="3.224" height="4.461" transform="translate(4.915 129.334)" fill="#dc257c"/>
    <rect id="Rectangle_749" data-name="Rectangle 749" width="3.338" height="1.117" transform="translate(4.856 135.26)" fill="#ffd300"/>
    <rect id="Rectangle_750" data-name="Rectangle 750" width="1.606" height="2.228" transform="translate(5.721 135.26)" fill="#dc257c"/>
    <rect id="Rectangle_751" data-name="Rectangle 751" width="6.516" height="48.707" transform="translate(73.884 68.01)" fill="#79a8cb"/>
    <rect id="Rectangle_752" data-name="Rectangle 752" width="12.853" height="34.446" transform="translate(70.613 75.793)" fill="#79a8cb"/>
    <rect id="Rectangle_753" data-name="Rectangle 753" width="12.853" height="8.825" transform="translate(70.613 75.795)" fill="#517e94"/>
    <rect id="Rectangle_754" data-name="Rectangle 754" width="6.677" height="4.711" transform="translate(73.802 118.225)" fill="#ffd300"/>
    <rect id="Rectangle_755" data-name="Rectangle 755" width="6.677" height="2.357" transform="translate(73.802 129.334)" fill="#ffd300"/>
    <rect id="Rectangle_756" data-name="Rectangle 756" width="3.226" height="8.924" transform="translate(75.527 118.225)" fill="#dc257c"/>
    <rect id="Rectangle_757" data-name="Rectangle 757" width="3.226" height="4.461" transform="translate(75.527 129.334)" fill="#dc257c"/>
    <rect id="Rectangle_758" data-name="Rectangle 758" width="3.343" height="1.117" transform="translate(75.469 135.26)" fill="#ffd300"/>
    <rect id="Rectangle_759" data-name="Rectangle 759" width="1.615" height="2.228" transform="translate(76.331 135.26)" fill="#dc257c"/>
    <rect id="Rectangle_760" data-name="Rectangle 760" width="6.534" height="24.545" transform="translate(38.423 84.48)" fill="#ffd300"/>
    <rect id="Rectangle_761" data-name="Rectangle 761" width="3.645" height="24.545" transform="translate(39.866 84.48)" fill="#dc257c"/>
    <rect id="Rectangle_762" data-name="Rectangle 762" width="6.679" height="41.653" transform="translate(38.346 45.651)" fill="#de2663"/>
    <rect id="Rectangle_763" data-name="Rectangle 763" width="19.262" height="41.653" transform="translate(32.057 45.651)" fill="#dc257c"/>
    <rect id="Rectangle_764" data-name="Rectangle 764" width="11.965" height="44.976" transform="translate(35.709 48.653)" fill="#ffd300"/>
    <rect id="Rectangle_765" data-name="Rectangle 765" width="6.679" height="44.976" transform="translate(38.346 48.653)" fill="#dc257c"/>
    <rect id="Rectangle_766" data-name="Rectangle 766" width="19.262" height="41.653" transform="translate(32.057 39.25)" fill="#ffd300"/>
    <rect id="Rectangle_767" data-name="Rectangle 767" width="19.262" height="36.643" transform="translate(32.057 31.296)" fill="#79a8cb"/>
    <rect id="Rectangle_768" data-name="Rectangle 768" width="7.49" height="33.424" transform="translate(37.944 28.112)" fill="#79a8cb"/>
    <rect id="Rectangle_769" data-name="Rectangle 769" width="19.262" height="36.643" transform="translate(32.057 37.777)" fill="#517e94"/>
    <rect id="Rectangle_770" data-name="Rectangle 770" width="13.078" height="27.21" transform="translate(35.15 39.988)" fill="#86d0f6"/>
    <rect id="Rectangle_771" data-name="Rectangle 771" width="13.078" height="7.603" transform="translate(35.15 39.988)" fill="#45bcf0"/>
    <path id="Path_586" data-name="Path 586" d="M21.965,20.878V46.489H54.08v-6.4h-8.04v-6.4h-8V27.275h-8v-6.4Z" transform="translate(29.387 27.932)" fill="#517e94"/>
    <path id="Path_587" data-name="Path 587" d="M24,20.878v6.4H16.014v6.408H8.028v6.4H0v6.4H32.056V20.878Z" transform="translate(0 27.932)" fill="#517e94"/>
    <path id="Path_588" data-name="Path 588" d="M8.258,31.833l-.026,6.4,12.858.084V31.833Z" transform="translate(11.014 42.588)" fill="#517e94"/>
    <path id="Path_589" data-name="Path 589" d="M21.977,31.833l-.012,6.4,12.842.084V31.833Z" transform="translate(29.387 42.588)" fill="#517e94"/>
    <rect id="Rectangle_772" data-name="Rectangle 772" width="32.115" height="6.407" transform="translate(51.352 68.014)" fill="#79a8cb"/>
    <rect id="Rectangle_773" data-name="Rectangle 773" width="32.057" height="6.407" transform="translate(0.001 68.014)" fill="#89adcd"/>
    <rect id="Rectangle_774" data-name="Rectangle 774" width="2.929" height="6.125" transform="translate(24.803 49.431)" fill="#fff"/>
    <path id="Path_590" data-name="Path 590" d="M8.69,32.18l-.021,4.814,1.8.012V32.18Z" transform="translate(11.598 43.052)" fill="#fff"/>
    <rect id="Rectangle_775" data-name="Rectangle 775" width="2.558" height="6.133" transform="translate(32.876 80.109)" fill="#fff"/>
    <path id="Path_591" data-name="Path 591" d="M16.826,30.519V14.135H13.908V30.519Z" transform="translate(18.608 18.912)" fill="#fff"/>
    <path id="Path_592" data-name="Path 592" d="M18.26,42.99h.072V57.714h2.922V42.99h-2.6V36.942H15.732V42.99Z" transform="translate(21.048 49.424)" fill="#fff"/>
    <rect id="Rectangle_776" data-name="Rectangle 776" width="2.932" height="6.125" transform="translate(17.165 55.556)" fill="#fff"/>
    <rect id="Rectangle_777" data-name="Rectangle 777" width="2.927" height="6.193" transform="translate(4.982 108.167)" fill="#fff"/>
    <path id="Path_593" data-name="Path 593" d="M.8,32.928V64.113H3.721V32.928Z" transform="translate(1.066 44.054)" fill="#fff"/>
    <path id="Path_594" data-name="Path 594" d="M.8,29.395v5.2H3.721v-5.2Z" transform="translate(1.066 39.326)" fill="#fff"/>
    <rect id="Rectangle_778" data-name="Rectangle 778" width="2.927" height="1.314" transform="translate(4.982 73.918)" fill="#fff"/>
    <rect id="Rectangle_779" data-name="Rectangle 779" width="2.927" height="5.695" transform="translate(9.534 62.093)" fill="#fff"/>
    <rect id="Rectangle_780" data-name="Rectangle 780" width="3.345" height="3.348" transform="translate(40.345 15.485)" fill="#fff"/>
    <rect id="Rectangle_781" data-name="Rectangle 781" width="3.345" height="3.35" transform="translate(40.345 10.324)" fill="#fff"/>
    <rect id="Rectangle_782" data-name="Rectangle 782" width="3.345" height="3.348" transform="translate(40.345 5.164)" fill="#fff"/>
    <rect id="Rectangle_783" data-name="Rectangle 783" width="3.345" height="3.352" transform="translate(40.347 0)" fill="#fff"/>
    <rect id="Rectangle_784" data-name="Rectangle 784" width="8.447" height="6.382" transform="translate(37.467 20.187)" fill="#517e94"/>
    <path id="Path_595" data-name="Path 595" d="M16.23,8.837v5.2h1.875V16.9h-1.34v2.894h2.375V16.9h.388V13.971h1.036V12.62H17.493V8.837Z" transform="translate(21.714 11.823)" fill="#fff"/>
  </g>
</svg>
