<svg xmlns="http://www.w3.org/2000/svg" xmlns:xlink="http://www.w3.org/1999/xlink" width="994.507" height="276.053" viewBox="0 0 994.507 276.053">
  <defs>
    <clipPath id="clip-path">
      <rect id="Rectangle_739" data-name="Rectangle 739" width="994.507" height="276.053" fill="none" stroke="#707070" stroke-width="1"/>
    </clipPath>
    <clipPath id="clip-path-2">
      <rect id="Rectangle_739-2" data-name="Rectangle 739" width="994.507" height="276.053" fill="rgba(0,0,0,0)"/>
    </clipPath>
    <clipPath id="clip-path-3">
      <rect id="Rectangle_737" data-name="Rectangle 737" width="948.828" height="239.096" fill="rgba(0,0,0,0)"/>
    </clipPath>
  </defs>
  <g id="數字區-匡" transform="translate(-459 -725.545)">
    <g id="Group_569" data-name="Group 569" transform="translate(459 725.545)">
      <g id="Group_568" data-name="Group 568" clip-path="url(#clip-path)">
        <path id="Path_307" data-name="Path 307" d="M970.268,257.8H7.111V7.111H970.268ZM9.315,256.017H968.064V8.9H9.315Z" transform="translate(8.564 5.572)" fill="#4dffff"/>
        <g id="Group_567" data-name="Group 567">
          <g id="Group_566" data-name="Group 566" clip-path="url(#clip-path-2)">
            <g id="Group_565" data-name="Group 565" transform="translate(22.84 18.479)" opacity="0.54">
              <g id="Group_564" data-name="Group 564">
                <g id="Group_563" data-name="Group 563" clip-path="url(#clip-path-3)">
                  <rect id="Rectangle_736" data-name="Rectangle 736" width="947.727" height="238.204" transform="translate(0.55 0.446)" fill="rgba(0,0,0,0)"/>
                  <path id="Path_308" data-name="Path 308" d="M959.19,249.457H10.361V10.361H959.19Zm-947.727-.892H958.088V11.253H11.463Z" transform="translate(-10.362 -10.361)" fill="rgba(0,0,0,0)"/>
                </g>
              </g>
            </g>
          </g>
        </g>
        <path id="Path_309" data-name="Path 309" d="M0,148.944v10.4H12.86v-1.784H2.2v-8.622Z" transform="translate(0 116.704)" fill="#4dffff"/>
        <path id="Path_310" data-name="Path 310" d="M0,0V10.407H2.2V1.783H12.86V0Z" fill="#4dffff"/>
        <path id="Path_311" data-name="Path 311" d="M455.986,148.944v8.622H445.328v1.784H458.19V148.944Z" transform="translate(536.319 116.704)" fill="#4dffff"/>
        <path id="Path_312" data-name="Path 312" d="M445.328,0V1.783h10.658v8.623h2.2V0Z" transform="translate(536.319)" fill="#4dffff"/>
      </g>
    </g>
  </g>
</svg>
