<svg xmlns="http://www.w3.org/2000/svg" width="124" height="45.168" viewBox="0 0 124 45.168">
  <g id="雜訊按鈕的背景" transform="translate(-1244.575 -616.16)">
    <g id="Group_562" data-name="Group 562" transform="translate(1244.575 616.16)">
      <rect id="Rectangle_528" data-name="Rectangle 528" width="2.755" height="2.53" transform="translate(19.288 29.832)" fill="#e31010"/>
      <rect id="Rectangle_529" data-name="Rectangle 529" width="2.755" height="6.611" transform="translate(19.288 33.02)" fill="#e31010"/>
      <rect id="Rectangle_530" data-name="Rectangle 530" width="2.755" height="3.225" transform="translate(19.288 24.667)" fill="#e31010"/>
      <rect id="Rectangle_531" data-name="Rectangle 531" width="2.756" height="0.569" transform="translate(19.287 40.789)" fill="#e31010"/>
      <rect id="Rectangle_532" data-name="Rectangle 532" width="2.756" height="2.109" transform="translate(19.287 43.059)" fill="#e31010"/>
      <rect id="Rectangle_533" data-name="Rectangle 533" width="2.756" height="4.536" transform="translate(19.287 0.001)" fill="#e31010"/>
      <rect id="Rectangle_534" data-name="Rectangle 534" width="2.755" height="3.186" transform="translate(19.288 5.804)" fill="#e31010"/>
      <rect id="Rectangle_535" data-name="Rectangle 535" width="2.755" height="5.337" transform="translate(19.288 18.415)" fill="#e31010"/>
      <rect id="Rectangle_536" data-name="Rectangle 536" width="2.755" height="3.602" transform="translate(19.288 11.659)" fill="#e31010"/>
      <rect id="Rectangle_537" data-name="Rectangle 537" width="2.756" height="1.095" transform="translate(19.287 16.11)" fill="#e31010"/>
      <rect id="Rectangle_538" data-name="Rectangle 538" width="5.51" height="1.095" transform="translate(22.043 16.11)" fill="#e75cee"/>
      <rect id="Rectangle_539" data-name="Rectangle 539" width="5.511" height="3.225" transform="translate(22.042 24.667)" fill="#e75cee"/>
      <rect id="Rectangle_540" data-name="Rectangle 540" width="5.511" height="3.602" transform="translate(22.042 11.659)" fill="#e75cee"/>
      <rect id="Rectangle_541" data-name="Rectangle 541" width="5.51" height="4.536" transform="translate(22.043 0.001)" fill="#e75cee"/>
      <rect id="Rectangle_542" data-name="Rectangle 542" width="5.51" height="2.109" transform="translate(22.043 43.059)" fill="#e75cee"/>
      <rect id="Rectangle_543" data-name="Rectangle 543" width="5.511" height="5.337" transform="translate(22.042 18.415)" fill="#e75cee"/>
      <rect id="Rectangle_544" data-name="Rectangle 544" width="5.511" height="6.611" transform="translate(22.042 33.02)" fill="#e75cee"/>
      <rect id="Rectangle_545" data-name="Rectangle 545" width="5.511" height="2.53" transform="translate(22.042 29.832)" fill="#e75cee"/>
      <rect id="Rectangle_546" data-name="Rectangle 546" width="5.51" height="0.569" transform="translate(22.043 40.789)" fill="#e75cee"/>
      <rect id="Rectangle_547" data-name="Rectangle 547" width="5.511" height="3.186" transform="translate(22.042 5.804)" fill="#e75cee"/>
      <rect id="Rectangle_548" data-name="Rectangle 548" width="2.756" height="5.337" transform="translate(27.553 18.415)" fill="#fcfc53"/>
      <rect id="Rectangle_549" data-name="Rectangle 549" width="2.756" height="4.536" transform="translate(27.553 0.001)" fill="#fcfc53"/>
      <rect id="Rectangle_550" data-name="Rectangle 550" width="2.756" height="3.602" transform="translate(27.553 11.659)" fill="#fcfc53"/>
      <rect id="Rectangle_551" data-name="Rectangle 551" width="2.756" height="1.095" transform="translate(27.553 16.11)" fill="#fcfc53"/>
      <rect id="Rectangle_552" data-name="Rectangle 552" width="2.756" height="0.569" transform="translate(27.553 40.789)" fill="#fcfc53"/>
      <rect id="Rectangle_553" data-name="Rectangle 553" width="2.756" height="6.611" transform="translate(27.553 33.02)" fill="#fcfc53"/>
      <rect id="Rectangle_554" data-name="Rectangle 554" width="2.756" height="3.186" transform="translate(27.553 5.804)" fill="#fcfc53"/>
      <rect id="Rectangle_555" data-name="Rectangle 555" width="2.756" height="2.109" transform="translate(27.553 43.059)" fill="#fcfc53"/>
      <rect id="Rectangle_556" data-name="Rectangle 556" width="2.756" height="2.53" transform="translate(27.553 29.832)" fill="#fcfc53"/>
      <rect id="Rectangle_557" data-name="Rectangle 557" width="2.756" height="3.225" transform="translate(27.553 24.667)" fill="#fcfc53"/>
      <rect id="Rectangle_558" data-name="Rectangle 558" width="2.755" height="7.643" transform="translate(104.712 16.11)" fill="#195ff5"/>
      <rect id="Rectangle_559" data-name="Rectangle 559" width="2.755" height="3.602" transform="translate(104.712 11.658)" fill="#195ff5"/>
      <rect id="Rectangle_560" data-name="Rectangle 560" width="2.755" height="1.919" transform="translate(104.712)" fill="#195ff5"/>
      <rect id="Rectangle_561" data-name="Rectangle 561" width="2.755" height="3.186" transform="translate(104.712 5.803)" fill="#195ff5"/>
      <rect id="Rectangle_562" data-name="Rectangle 562" width="2.755" height="1.797" transform="translate(104.712 2.74)" fill="#195ff5"/>
      <rect id="Rectangle_563" data-name="Rectangle 563" width="2.755" height="3.225" transform="translate(104.712 24.667)" fill="#195ff5"/>
      <rect id="Rectangle_564" data-name="Rectangle 564" width="2.755" height="4.939" transform="translate(104.712 33.02)" fill="#195ff5"/>
      <rect id="Rectangle_565" data-name="Rectangle 565" width="2.755" height="2.53" transform="translate(104.712 29.832)" fill="#195ff5"/>
      <rect id="Rectangle_566" data-name="Rectangle 566" width="2.755" height="2.109" transform="translate(104.712 43.059)" fill="#195ff5"/>
      <rect id="Rectangle_567" data-name="Rectangle 567" width="2.755" height="2.636" transform="translate(104.712 38.722)" fill="#195ff5"/>
      <rect id="Rectangle_568" data-name="Rectangle 568" width="5.511" height="2.636" transform="translate(99.201 38.722)" fill="#19f5ee"/>
      <rect id="Rectangle_569" data-name="Rectangle 569" width="5.511" height="3.186" transform="translate(99.201 5.803)" fill="#19f5ee"/>
      <rect id="Rectangle_570" data-name="Rectangle 570" width="5.511" height="1.919" transform="translate(99.201)" fill="#19f5ee"/>
      <rect id="Rectangle_571" data-name="Rectangle 571" width="5.511" height="2.109" transform="translate(99.201 43.059)" fill="#19f5ee"/>
      <rect id="Rectangle_572" data-name="Rectangle 572" width="5.511" height="3.225" transform="translate(99.201 24.667)" fill="#19f5ee"/>
      <rect id="Rectangle_573" data-name="Rectangle 573" width="5.511" height="4.939" transform="translate(99.201 33.02)" fill="#19f5ee"/>
      <rect id="Rectangle_574" data-name="Rectangle 574" width="5.511" height="2.53" transform="translate(99.201 29.832)" fill="#19f5ee"/>
      <rect id="Rectangle_575" data-name="Rectangle 575" width="5.511" height="7.643" transform="translate(99.201 16.11)" fill="#19f5ee"/>
      <rect id="Rectangle_576" data-name="Rectangle 576" width="5.511" height="3.602" transform="translate(99.201 11.658)" fill="#19f5ee"/>
      <rect id="Rectangle_577" data-name="Rectangle 577" width="5.511" height="1.797" transform="translate(99.201 2.74)" fill="#19f5ee"/>
      <rect id="Rectangle_578" data-name="Rectangle 578" width="5.511" height="2.53" transform="translate(21.92 29.832)" fill="#fcfcfc"/>
      <rect id="Rectangle_579" data-name="Rectangle 579" width="5.51" height="4.536" transform="translate(21.921 0.001)" fill="#fcfcfc"/>
      <rect id="Rectangle_580" data-name="Rectangle 580" width="5.511" height="3.186" transform="translate(21.92 5.804)" fill="#fcfcfc"/>
      <rect id="Rectangle_581" data-name="Rectangle 581" width="5.511" height="6.611" transform="translate(21.92 33.02)" fill="#fcfcfc"/>
      <rect id="Rectangle_582" data-name="Rectangle 582" width="5.511" height="3.602" transform="translate(21.92 11.659)" fill="#fcfcfc"/>
      <rect id="Rectangle_583" data-name="Rectangle 583" width="5.51" height="1.095" transform="translate(21.921 16.11)" fill="#fcfcfc"/>
      <rect id="Rectangle_584" data-name="Rectangle 584" width="5.51" height="0.569" transform="translate(21.921 40.789)" fill="#fcfcfc"/>
      <rect id="Rectangle_585" data-name="Rectangle 585" width="5.51" height="2.109" transform="translate(21.921 43.059)" fill="#fcfcfc"/>
      <rect id="Rectangle_586" data-name="Rectangle 586" width="5.511" height="5.337" transform="translate(21.92 18.415)" fill="#fcfcfc"/>
      <rect id="Rectangle_587" data-name="Rectangle 587" width="5.511" height="3.225" transform="translate(21.92 24.667)" fill="#fcfcfc"/>
      <rect id="Rectangle_588" data-name="Rectangle 588" width="2.756" height="2.53" transform="translate(26.07 29.832)" fill="#fcfcfc"/>
      <rect id="Rectangle_589" data-name="Rectangle 589" width="2.756" height="6.611" transform="translate(26.07 33.02)" fill="#fcfcfc"/>
      <rect id="Rectangle_590" data-name="Rectangle 590" width="2.756" height="0.569" transform="translate(26.07 40.789)" fill="#fcfcfc"/>
      <rect id="Rectangle_591" data-name="Rectangle 591" width="2.756" height="4.536" transform="translate(26.07 0.001)" fill="#fcfcfc"/>
      <rect id="Rectangle_592" data-name="Rectangle 592" width="2.756" height="2.109" transform="translate(26.07 43.059)" fill="#fcfcfc"/>
      <rect id="Rectangle_593" data-name="Rectangle 593" width="2.756" height="3.225" transform="translate(26.07 24.667)" fill="#fcfcfc"/>
      <rect id="Rectangle_594" data-name="Rectangle 594" width="2.756" height="3.602" transform="translate(26.07 11.659)" fill="#fcfcfc"/>
      <rect id="Rectangle_595" data-name="Rectangle 595" width="2.756" height="1.095" transform="translate(26.07 16.11)" fill="#fcfcfc"/>
      <rect id="Rectangle_596" data-name="Rectangle 596" width="2.756" height="3.186" transform="translate(26.07 5.804)" fill="#fcfcfc"/>
      <rect id="Rectangle_597" data-name="Rectangle 597" width="2.756" height="5.337" transform="translate(26.07 18.415)" fill="#fcfcfc"/>
      <rect id="Rectangle_598" data-name="Rectangle 598" width="2.756" height="7.643" transform="translate(96.446 16.11)" fill="#fcfcfc"/>
      <rect id="Rectangle_599" data-name="Rectangle 599" width="2.756" height="2.53" transform="translate(96.446 29.832)" fill="#fcfcfc"/>
      <rect id="Rectangle_600" data-name="Rectangle 600" width="2.756" height="2.636" transform="translate(96.446 38.722)" fill="#fcfcfc"/>
      <rect id="Rectangle_601" data-name="Rectangle 601" width="2.756" height="3.602" transform="translate(96.446 11.658)" fill="#fcfcfc"/>
      <rect id="Rectangle_602" data-name="Rectangle 602" width="2.756" height="3.225" transform="translate(96.446 24.667)" fill="#fcfcfc"/>
      <rect id="Rectangle_603" data-name="Rectangle 603" width="2.756" height="3.186" transform="translate(96.446 5.803)" fill="#fcfcfc"/>
      <rect id="Rectangle_604" data-name="Rectangle 604" width="2.756" height="4.939" transform="translate(96.446 33.02)" fill="#fcfcfc"/>
      <rect id="Rectangle_605" data-name="Rectangle 605" width="2.756" height="1.797" transform="translate(96.445 2.74)" fill="#fcfcfc"/>
      <rect id="Rectangle_606" data-name="Rectangle 606" width="2.756" height="1.919" transform="translate(96.446)" fill="#fcfcfc"/>
      <rect id="Rectangle_607" data-name="Rectangle 607" width="2.756" height="2.109" transform="translate(96.446 43.059)" fill="#fcfcfc"/>
      <rect id="Rectangle_608" data-name="Rectangle 608" width="5.511" height="3.602" transform="translate(90.935 11.658)" fill="#fcfcfc"/>
      <rect id="Rectangle_609" data-name="Rectangle 609" width="5.511" height="3.186" transform="translate(90.935 5.804)" fill="#fcfcfc"/>
      <rect id="Rectangle_610" data-name="Rectangle 610" width="5.51" height="2.109" transform="translate(90.935 43.059)" fill="#fcfcfc"/>
      <rect id="Rectangle_611" data-name="Rectangle 611" width="5.511" height="1.797" transform="translate(90.935 2.74)" fill="#fcfcfc"/>
      <rect id="Rectangle_612" data-name="Rectangle 612" width="5.511" height="7.643" transform="translate(90.935 16.11)" fill="#fcfcfc"/>
      <rect id="Rectangle_613" data-name="Rectangle 613" width="5.511" height="3.225" transform="translate(90.935 24.667)" fill="#fcfcfc"/>
      <rect id="Rectangle_614" data-name="Rectangle 614" width="5.511" height="2.53" transform="translate(90.935 29.832)" fill="#fcfcfc"/>
      <rect id="Rectangle_615" data-name="Rectangle 615" width="5.511" height="4.939" transform="translate(90.935 33.02)" fill="#fcfcfc"/>
      <rect id="Rectangle_616" data-name="Rectangle 616" width="5.51" height="1.919" transform="translate(90.935)" fill="#fcfcfc"/>
      <rect id="Rectangle_617" data-name="Rectangle 617" width="5.511" height="2.636" transform="translate(90.935 38.722)" fill="#fcfcfc"/>
      <rect id="Rectangle_618" data-name="Rectangle 618" width="2.756" height="4.939" transform="translate(97.178 33.02)" fill="#fcfcfc"/>
      <rect id="Rectangle_619" data-name="Rectangle 619" width="2.756" height="2.53" transform="translate(97.179 29.832)" fill="#fcfcfc"/>
      <rect id="Rectangle_620" data-name="Rectangle 620" width="2.756" height="1.919" transform="translate(97.179)" fill="#fcfcfc"/>
      <rect id="Rectangle_621" data-name="Rectangle 621" width="2.756" height="2.636" transform="translate(97.179 38.722)" fill="#fcfcfc"/>
      <rect id="Rectangle_622" data-name="Rectangle 622" width="2.756" height="3.186" transform="translate(97.178 5.804)" fill="#fcfcfc"/>
      <rect id="Rectangle_623" data-name="Rectangle 623" width="2.756" height="1.797" transform="translate(97.178 2.74)" fill="#fcfcfc"/>
      <rect id="Rectangle_624" data-name="Rectangle 624" width="2.756" height="7.643" transform="translate(97.179 16.11)" fill="#fcfcfc"/>
      <rect id="Rectangle_625" data-name="Rectangle 625" width="2.756" height="3.602" transform="translate(97.179 11.658)" fill="#fcfcfc"/>
      <rect id="Rectangle_626" data-name="Rectangle 626" width="2.756" height="2.109" transform="translate(97.179 43.059)" fill="#fcfcfc"/>
      <rect id="Rectangle_627" data-name="Rectangle 627" width="2.756" height="3.225" transform="translate(97.179 24.667)" fill="#fcfcfc"/>
      <rect id="Rectangle_628" data-name="Rectangle 628" width="94.945" height="3.186" transform="translate(15.065 5.804)" fill="#fcfcfc"/>
      <path id="Path_304" data-name="Path 304" d="M55.361,15.787h50.381V17H55.361v5.338h94.945V14.691H55.361Z" transform="translate(-40.296 1.419)" fill="#fcfcfc"/>
      <path id="Path_305" data-name="Path 305" d="M70.7,35.815v-.762h79.61V30.114H55.36v6.61H66.03v1.158H55.36v.569H150.3V35.815Z" transform="translate(-40.296 2.907)" fill="#fcfcfc"/>
      <rect id="Rectangle_629" data-name="Rectangle 629" width="94.945" height="2.53" transform="translate(15.065 29.832)" fill="#fcfcfc"/>
      <rect id="Rectangle_630" data-name="Rectangle 630" width="94.945" height="3.225" transform="translate(15.065 24.667)" fill="#fcfcfc"/>
      <rect id="Rectangle_631" data-name="Rectangle 631" width="94.945" height="3.602" transform="translate(15.065 11.659)" fill="#fcfcfc"/>
      <rect id="Rectangle_632" data-name="Rectangle 632" width="94.945" height="2.109" transform="translate(15.065 43.059)" fill="#fcfcfc"/>
      <path id="Path_306" data-name="Path 306" d="M55.361,0V4.536h94.945v-1.8H85.277v-.82h65.029V0Z" transform="translate(-40.296 0.001)" fill="#fcfcfc"/>
      <rect id="Rectangle_633" data-name="Rectangle 633" width="2.755" height="2.67" transform="translate(22.043 8.989)" fill="#e31010"/>
      <rect id="Rectangle_634" data-name="Rectangle 634" width="5.511" height="2.67" transform="translate(24.798 8.989)" fill="#e75cee"/>
      <rect id="Rectangle_635" data-name="Rectangle 635" width="2.756" height="2.67" transform="translate(30.308 8.989)" fill="#fcfc53"/>
      <rect id="Rectangle_636" data-name="Rectangle 636" width="2.756" height="2.67" transform="translate(107.467 8.989)" fill="#195ff5"/>
      <rect id="Rectangle_637" data-name="Rectangle 637" width="5.511" height="2.67" transform="translate(101.957 8.989)" fill="#19f5ee"/>
      <rect id="Rectangle_638" data-name="Rectangle 638" width="5.511" height="2.67" transform="translate(23.913 8.989)" fill="#fcfcfc"/>
      <rect id="Rectangle_639" data-name="Rectangle 639" width="2.755" height="2.67" transform="translate(28.076 8.989)" fill="#fcfcfc"/>
      <rect id="Rectangle_640" data-name="Rectangle 640" width="2.755" height="2.67" transform="translate(99.201 8.989)" fill="#fcfcfc"/>
      <rect id="Rectangle_641" data-name="Rectangle 641" width="5.511" height="2.67" transform="translate(93.69 8.989)" fill="#fcfcfc"/>
      <rect id="Rectangle_642" data-name="Rectangle 642" width="2.755" height="2.67" transform="translate(90.935 8.989)" fill="#fcfcfc"/>
      <rect id="Rectangle_643" data-name="Rectangle 643" width="94.945" height="2.67" transform="translate(16.141 8.989)" fill="#fcfcfc"/>
      <rect id="Rectangle_644" data-name="Rectangle 644" width="2.756" height="0.849" transform="translate(26.07 15.26)" fill="#e31010"/>
      <rect id="Rectangle_645" data-name="Rectangle 645" width="5.511" height="0.849" transform="translate(27.899 15.26)" fill="#e75cee"/>
      <rect id="Rectangle_646" data-name="Rectangle 646" width="2.755" height="0.849" transform="translate(32.087 15.26)" fill="#fcfc53"/>
      <rect id="Rectangle_647" data-name="Rectangle 647" width="2.756" height="0.849" transform="translate(121.244 15.26)" fill="#195ff5"/>
      <rect id="Rectangle_648" data-name="Rectangle 648" width="5.511" height="0.849" transform="translate(115.733 15.26)" fill="#19f5ee"/>
      <rect id="Rectangle_649" data-name="Rectangle 649" width="5.511" height="0.849" transform="translate(33.878 15.26)" fill="#fcfcfc"/>
      <rect id="Rectangle_650" data-name="Rectangle 650" width="2.755" height="0.849" transform="translate(38.103 15.26)" fill="#fcfcfc"/>
      <rect id="Rectangle_651" data-name="Rectangle 651" width="2.756" height="0.849" transform="translate(112.977 15.26)" fill="#fcfcfc"/>
      <rect id="Rectangle_652" data-name="Rectangle 652" width="5.51" height="0.849" transform="translate(107.467 15.26)" fill="#fcfcfc"/>
      <rect id="Rectangle_653" data-name="Rectangle 653" width="2.755" height="0.849" transform="translate(104.712 15.26)" fill="#fcfcfc"/>
      <rect id="Rectangle_654" data-name="Rectangle 654" width="94.946" height="0.849" transform="translate(9.767 15.26)" fill="#fcfcfc"/>
      <rect id="Rectangle_655" data-name="Rectangle 655" width="2.755" height="1.265" transform="translate(5.511 4.537)" fill="#e31010"/>
      <rect id="Rectangle_656" data-name="Rectangle 656" width="5.511" height="1.265" transform="translate(8.266 4.537)" fill="#e75cee"/>
      <rect id="Rectangle_657" data-name="Rectangle 657" width="2.755" height="1.265" transform="translate(13.777 4.537)" fill="#fcfc53"/>
      <rect id="Rectangle_658" data-name="Rectangle 658" width="2.755" height="1.265" transform="translate(90.935 4.538)" fill="#195ff5"/>
      <rect id="Rectangle_659" data-name="Rectangle 659" width="5.511" height="1.265" transform="translate(94.576 4.538)" fill="#19f5ee"/>
      <rect id="Rectangle_660" data-name="Rectangle 660" width="5.511" height="1.265" transform="translate(16.532 4.537)" fill="#fcfcfc"/>
      <rect id="Rectangle_661" data-name="Rectangle 661" width="2.755" height="1.265" transform="translate(22.043 4.537)" fill="#fcfcfc"/>
      <rect id="Rectangle_662" data-name="Rectangle 662" width="2.756" height="1.265" transform="translate(93.168 4.538)" fill="#fcfcfc"/>
      <rect id="Rectangle_663" data-name="Rectangle 663" width="5.511" height="1.265" transform="translate(88.596 4.537)" fill="#fcfcfc"/>
      <rect id="Rectangle_664" data-name="Rectangle 664" width="2.755" height="1.265" transform="translate(87.152 4.537)" fill="#fcfcfc"/>
      <rect id="Rectangle_665" data-name="Rectangle 665" width="94.945" height="1.265" transform="translate(24.798 4.537)" fill="#fcfcfc"/>
      <rect id="Rectangle_666" data-name="Rectangle 666" width="2.755" height="1.939" transform="translate(0 27.893)" fill="#e31010"/>
      <rect id="Rectangle_667" data-name="Rectangle 667" width="5.511" height="1.939" transform="translate(2.755 27.892)" fill="#e75cee"/>
      <rect id="Rectangle_668" data-name="Rectangle 668" width="2.756" height="1.939" transform="translate(8.265 27.892)" fill="#fcfc53"/>
      <rect id="Rectangle_669" data-name="Rectangle 669" width="2.755" height="1.939" transform="translate(95.174 27.893)" fill="#195ff5"/>
      <rect id="Rectangle_670" data-name="Rectangle 670" width="5.511" height="1.939" transform="translate(90.59 27.893)" fill="#19f5ee"/>
      <rect id="Rectangle_671" data-name="Rectangle 671" width="5.511" height="1.939" transform="translate(11.021 27.892)" fill="#fcfcfc"/>
      <rect id="Rectangle_672" data-name="Rectangle 672" width="2.756" height="1.939" transform="translate(16.531 27.892)" fill="#fcfcfc"/>
      <rect id="Rectangle_673" data-name="Rectangle 673" width="2.756" height="1.939" transform="translate(89.157 27.893)" fill="#fcfcfc"/>
      <rect id="Rectangle_674" data-name="Rectangle 674" width="5.511" height="1.939" transform="translate(84.611 27.893)" fill="#fcfcfc"/>
      <rect id="Rectangle_675" data-name="Rectangle 675" width="2.756" height="1.939" transform="translate(83.141 27.893)" fill="#fcfcfc"/>
      <rect id="Rectangle_676" data-name="Rectangle 676" width="94.945" height="1.939" transform="translate(19.287 27.893)" fill="#fcfcfc"/>
      <rect id="Rectangle_677" data-name="Rectangle 677" width="2.756" height="0.66" transform="translate(30.309 32.361)" fill="#e31010"/>
      <rect id="Rectangle_678" data-name="Rectangle 678" width="5.51" height="0.66" transform="translate(23.914 32.361)" fill="#e75cee"/>
      <rect id="Rectangle_679" data-name="Rectangle 679" width="2.756" height="0.66" transform="translate(28.076 32.361)" fill="#fcfc53"/>
      <rect id="Rectangle_680" data-name="Rectangle 680" width="2.756" height="0.66" transform="translate(115.733 32.361)" fill="#195ff5"/>
      <rect id="Rectangle_681" data-name="Rectangle 681" width="5.51" height="0.66" transform="translate(110.223 32.361)" fill="#19f5ee"/>
      <rect id="Rectangle_682" data-name="Rectangle 682" width="5.51" height="0.66" transform="translate(29.892 32.361)" fill="#fcfcfc"/>
      <rect id="Rectangle_683" data-name="Rectangle 683" width="2.756" height="0.66" transform="translate(34.092 32.361)" fill="#fcfcfc"/>
      <rect id="Rectangle_684" data-name="Rectangle 684" width="2.756" height="0.66" transform="translate(107.467 32.361)" fill="#fcfcfc"/>
      <rect id="Rectangle_685" data-name="Rectangle 685" width="5.51" height="0.66" transform="translate(101.957 32.361)" fill="#fcfcfc"/>
      <rect id="Rectangle_686" data-name="Rectangle 686" width="2.756" height="0.66" transform="translate(99.201 32.361)" fill="#fcfcfc"/>
      <rect id="Rectangle_687" data-name="Rectangle 687" width="94.945" height="0.66" transform="translate(4.256 32.361)" fill="#fcfcfc"/>
      <rect id="Rectangle_688" data-name="Rectangle 688" width="2.756" height="0.914" transform="translate(24.798 23.753)" fill="#e31010"/>
      <rect id="Rectangle_689" data-name="Rectangle 689" width="5.511" height="0.914" transform="translate(27.553 23.753)" fill="#e75cee"/>
      <rect id="Rectangle_690" data-name="Rectangle 690" width="2.755" height="0.914" transform="translate(24.065 23.753)" fill="#fcfc53"/>
      <rect id="Rectangle_691" data-name="Rectangle 691" width="2.755" height="0.914" transform="translate(110.223 23.753)" fill="#195ff5"/>
      <rect id="Rectangle_692" data-name="Rectangle 692" width="5.51" height="0.914" transform="translate(104.712 23.753)" fill="#19f5ee"/>
      <rect id="Rectangle_693" data-name="Rectangle 693" width="5.511" height="0.914" transform="translate(25.906 23.753)" fill="#fcfcfc"/>
      <rect id="Rectangle_694" data-name="Rectangle 694" width="2.756" height="0.914" transform="translate(30.081 23.753)" fill="#fcfcfc"/>
      <rect id="Rectangle_695" data-name="Rectangle 695" width="2.756" height="0.914" transform="translate(101.957 23.753)" fill="#fcfcfc"/>
      <rect id="Rectangle_696" data-name="Rectangle 696" width="5.511" height="0.914" transform="translate(96.446 23.753)" fill="#fcfcfc"/>
      <rect id="Rectangle_697" data-name="Rectangle 697" width="2.756" height="0.914" transform="translate(93.69 23.753)" fill="#fcfcfc"/>
      <rect id="Rectangle_698" data-name="Rectangle 698" width="94.944" height="0.914" transform="translate(17.218 23.753)" fill="#fcfcfc"/>
      <rect id="Rectangle_699" data-name="Rectangle 699" width="2.755" height="1.7" transform="translate(22.043 41.358)" fill="#e31010"/>
      <rect id="Rectangle_700" data-name="Rectangle 700" width="5.511" height="1.7" transform="translate(24.798 41.358)" fill="#e75cee"/>
      <rect id="Rectangle_701" data-name="Rectangle 701" width="2.756" height="1.7" transform="translate(30.309 41.358)" fill="#fcfc53"/>
      <rect id="Rectangle_702" data-name="Rectangle 702" width="2.756" height="1.7" transform="translate(107.467 41.358)" fill="#195ff5"/>
      <rect id="Rectangle_703" data-name="Rectangle 703" width="5.511" height="1.7" transform="translate(101.957 41.358)" fill="#19f5ee"/>
      <rect id="Rectangle_704" data-name="Rectangle 704" width="5.511" height="1.7" transform="translate(23.913 41.358)" fill="#fcfcfc"/>
      <rect id="Rectangle_705" data-name="Rectangle 705" width="2.755" height="1.7" transform="translate(28.076 41.358)" fill="#fcfcfc"/>
      <rect id="Rectangle_706" data-name="Rectangle 706" width="2.755" height="1.7" transform="translate(99.201 41.358)" fill="#fcfcfc"/>
      <rect id="Rectangle_707" data-name="Rectangle 707" width="5.511" height="1.7" transform="translate(93.69 41.358)" fill="#fcfcfc"/>
      <rect id="Rectangle_708" data-name="Rectangle 708" width="2.755" height="1.7" transform="translate(90.935 41.358)" fill="#fcfcfc"/>
      <rect id="Rectangle_709" data-name="Rectangle 709" width="94.945" height="1.7" transform="translate(16.141 41.358)" fill="#fcfcfc"/>
      <rect id="Rectangle_710" data-name="Rectangle 710" width="2.755" height="0.763" transform="translate(110.223 37.959)" fill="#195ff5"/>
      <rect id="Rectangle_711" data-name="Rectangle 711" width="5.51" height="0.763" transform="translate(104.712 37.959)" fill="#19f5ee"/>
      <rect id="Rectangle_712" data-name="Rectangle 712" width="2.756" height="0.763" transform="translate(101.957 37.959)" fill="#fcfcfc"/>
      <rect id="Rectangle_713" data-name="Rectangle 713" width="5.511" height="0.763" transform="translate(96.446 37.959)" fill="#fcfcfc"/>
      <rect id="Rectangle_714" data-name="Rectangle 714" width="2.756" height="0.763" transform="translate(93.69 37.959)" fill="#fcfcfc"/>
      <rect id="Rectangle_715" data-name="Rectangle 715" width="79.609" height="0.763" transform="translate(26.67 37.959)" fill="#fcfcfc"/>
      <rect id="Rectangle_716" data-name="Rectangle 716" width="2.755" height="1.209" transform="translate(13.777 17.205)" fill="#e31010"/>
      <rect id="Rectangle_717" data-name="Rectangle 717" width="5.511" height="1.209" transform="translate(16.532 17.205)" fill="#e75cee"/>
      <rect id="Rectangle_718" data-name="Rectangle 718" width="2.755" height="1.209" transform="translate(22.043 17.205)" fill="#fcfc53"/>
      <rect id="Rectangle_719" data-name="Rectangle 719" width="5.511" height="1.209" transform="translate(24.798 17.205)" fill="#fcfcfc"/>
      <rect id="Rectangle_720" data-name="Rectangle 720" width="2.756" height="1.209" transform="translate(30.308 17.205)" fill="#fcfcfc"/>
      <rect id="Rectangle_721" data-name="Rectangle 721" width="50.381" height="1.209" transform="translate(23.873 17.205)" fill="#fcfcfc"/>
      <rect id="Rectangle_722" data-name="Rectangle 722" width="2.756" height="0.821" transform="translate(112.977 1.919)" fill="#195ff5"/>
      <rect id="Rectangle_723" data-name="Rectangle 723" width="5.51" height="0.821" transform="translate(107.467 1.919)" fill="#19f5ee"/>
      <rect id="Rectangle_724" data-name="Rectangle 724" width="2.755" height="0.821" transform="translate(104.712 1.919)" fill="#fcfcfc"/>
      <rect id="Rectangle_725" data-name="Rectangle 725" width="5.511" height="0.821" transform="translate(99.201 1.919)" fill="#fcfcfc"/>
      <rect id="Rectangle_726" data-name="Rectangle 726" width="2.756" height="0.821" transform="translate(96.446 1.919)" fill="#fcfcfc"/>
      <rect id="Rectangle_727" data-name="Rectangle 727" width="65.029" height="0.821" transform="translate(38.72 1.919)" fill="#fcfcfc"/>
      <rect id="Rectangle_728" data-name="Rectangle 728" width="2.756" height="1.158" transform="translate(8.265 39.631)" fill="#e31010"/>
      <rect id="Rectangle_729" data-name="Rectangle 729" width="5.511" height="1.158" transform="translate(11.021 39.631)" fill="#e75cee"/>
      <rect id="Rectangle_730" data-name="Rectangle 730" width="2.756" height="1.158" transform="translate(16.531 39.631)" fill="#fcfc53"/>
      <rect id="Rectangle_731" data-name="Rectangle 731" width="5.511" height="1.158" transform="translate(19.287 39.631)" fill="#fcfcfc"/>
      <rect id="Rectangle_732" data-name="Rectangle 732" width="2.755" height="1.158" transform="translate(24.798 39.631)" fill="#fcfcfc"/>
      <rect id="Rectangle_733" data-name="Rectangle 733" width="10.67" height="1.158" transform="translate(27.552 39.631)" fill="#fcfcfc"/>
    </g>
  </g>
</svg>
